<svg width="1563" height="64" viewBox="0 0 1563 64" fill="none" xmlns="http://www.w3.org/2000/svg">
<path d="M478.106 63.5083C481.107 63.3083 486.766 63.3488 486.766 63.5688C486.755 63.8088 474.334 64.1389 472.62 63.939C472.02 63.869 472.449 63.779 473.82 63.729C475.192 63.679 477.078 63.5783 478.106 63.5083ZM1202.08 61.7681C1208.26 60.9081 1208.17 60.9085 1216.92 61.7085L1223.94 62.3589H1324.85C1405.95 62.3489 1426.18 62.3185 1427.89 62.1685C1429.69 62.0085 1431.41 62.0288 1438.35 62.3188C1446.24 62.6388 1448.21 62.6587 1469.21 62.6187C1493.05 62.5787 1496.56 62.6789 1486.53 63.1089C1481.39 63.3289 1477.96 63.3385 1450.27 63.2085C1427.89 63.0985 1415.89 63.109 1405.69 63.229C1395.06 63.349 1385.63 63.349 1366.77 63.229C1348.17 63.099 1331.96 63.0985 1302.3 63.2085C1244.52 63.4385 1190.85 63.4187 1187.94 63.1587C1184.85 62.8787 1186.22 62.6886 1192.05 62.5786C1196 62.4986 1198.05 62.3288 1202.08 61.7788V61.7681ZM982.876 61.2681C984.762 61.1181 989.906 61.0985 1008.25 61.1685C1030.03 61.2485 1034.49 61.2485 1045.97 61.2085C1052.75 61.2042 1059.52 61.2144 1066.29 61.2388L1081.72 61.2886L1081.29 61.689C1081.19 61.952 1081.76 62.2133 1082.92 62.439C1086.35 63.069 1035.52 63.5682 1030.37 62.9683C1026.51 62.5283 1031.57 62.3783 1045.97 62.5083C1070.92 62.7383 1073.41 62.6585 1063.12 61.9585C1054.72 61.3685 1015.97 61.6188 1019.31 62.2388C1021.63 62.6888 1020.51 62.7288 999.336 63.0688C980.219 63.3688 977.561 63.3683 977.561 63.0483C977.559 62.9582 976.273 62.7287 974.731 62.5288L971.988 62.1782L979.275 62.2583C986.642 62.3382 998.461 62.1388 998.479 61.939C998.479 61.879 994.793 61.7888 990.335 61.7388C980.991 61.6388 979.704 61.5488 982.876 61.2788V61.2681ZM1143.7 61.4585C1146.02 61.1485 1151.25 61.1385 1157.16 61.4185C1160.68 61.5985 1162.56 61.609 1167.02 61.479C1172.59 61.309 1175.59 61.4089 1172.34 61.6489C1171.31 61.7189 1168.99 61.7788 1167.19 61.7788C1164.96 61.7888 1163.76 61.8585 1163.76 61.9985C1163.76 62.1185 1164.19 62.2182 1164.62 62.2183C1168.05 62.2183 1173.71 62.8181 1172.34 63.0181C1169.93 63.3381 1119.79 63.2985 1111.64 62.9585C1101.78 62.5585 1103.92 62.4389 1123.04 62.3589C1139.67 62.2989 1140.96 62.2684 1141.39 61.9985C1141.81 61.8039 1142.6 61.6225 1143.7 61.4683V61.4585ZM1562 62.6558V63.2212C1559.27 63.2252 1556.21 63.229 1552.8 63.229C1527.25 63.229 1521.42 63.1285 1524.68 62.7485C1525.31 62.6689 1545.91 62.6378 1562 62.6558ZM922.009 62.7681C922.02 62.5688 929.554 62.7688 931.867 63.0386C933.496 63.2186 933.154 63.2389 928.867 63.1489C923.038 63.0289 922.009 62.9681 922.009 62.7681ZM790.673 60.7583C796.845 60.7183 803.446 60.7088 805.504 60.7388C807.543 60.7794 809.608 60.7991 811.677 60.7983C819.306 60.7383 838.165 60.7989 841.767 60.8989C851.54 61.1389 846.739 61.2989 827.536 61.3989C807.734 61.4989 804.476 61.5986 807.39 61.9985C808.59 62.1785 812.019 62.2183 825.393 62.2183C843.224 62.2183 846.139 62.3584 837.566 62.8384C832.337 63.1284 753.038 63.2087 721.661 62.9487C711.46 62.8687 701.601 62.7983 699.629 62.7983C697.143 62.7983 696.286 62.7288 696.629 62.5688C696.972 62.3789 702.288 62.3288 740.779 62.2788C787.06 62.1988 794.441 62.1286 794.445 61.7788C794.445 61.6188 792.902 61.5787 786.558 61.6187L778.843 61.6685L779.186 61.2583C779.614 60.8485 779.616 60.8483 790.673 60.7583ZM949.527 62.7485C952.185 62.6185 959.044 62.6388 959.044 62.7788C959.041 62.9487 955.87 63.0786 951.5 63.0786C947.899 63.0786 946.613 62.8785 949.442 62.7485H949.527ZM639.619 62.1587L651.793 62.2886C667.052 62.4586 670.224 62.8581 657.365 63.0181C650.421 63.1081 648.62 63.0786 644.763 62.8286C640.477 62.5386 639.791 62.529 632.247 62.729C622.646 62.969 616.217 62.9885 616.216 62.7886C616.216 62.5886 621.616 62.3583 629.16 62.2183C632.589 62.1583 637.304 62.1387 639.619 62.1587ZM0 59.6968C2.65334 59.7391 2.8486 59.8332 3.08496 60.1089C3.59928 60.5888 7.45692 60.5887 8.05762 60.1089C8.40053 59.8089 8.82949 59.7984 21.0029 59.8784C27.8614 59.9184 45.5211 59.9382 60.0947 59.9282L90.2715 59.8989C126.877 59.8689 154.31 60.2183 159.454 60.7983L162.283 61.0981L167.855 60.7183C177.387 60.2584 187.991 60.1984 197.86 60.5483C201.718 60.7083 205.662 60.7189 218.007 60.6089C240.382 60.3989 259.071 60.5888 259.585 61.0288C260.1 61.4587 262.587 61.4282 270.13 60.9282L276.474 60.5083L318.995 60.4985H364.002L380.548 60.4585C395.807 60.4085 400.523 60.5787 402.237 61.1987C403.953 61.8387 421.012 62.0285 428.47 61.4985C434.128 61.0985 433.613 60.8981 427.27 61.0181C421.697 61.1281 419.897 61.1384 412.438 61.0884C393.407 60.9784 418.611 60.3787 439.271 60.4487C455.989 60.5087 465.248 61.0085 453.417 61.2085C444.244 61.3585 448.273 61.7085 459.847 61.7485C470.476 61.7985 470.477 61.7989 472.191 61.3989C474.506 60.8389 497.652 60.6988 504.511 61.1987C509.912 61.5887 511.97 61.5682 513.685 61.1382C514.713 60.8683 516 60.7788 518.828 60.7788C522.857 60.7788 525 61.1182 522.686 61.3882C520.371 61.6582 521.057 61.7384 525 61.6685C527.229 61.6285 529.63 61.449 531.259 61.189C534.345 60.689 541.975 60.6186 547.547 61.0386C550.462 61.2686 551.834 61.2887 556.463 61.1587C565.379 60.9187 589.553 62.3785 582.182 62.7085C579.01 62.8485 444.844 62.7989 436.186 62.6489C430.785 62.5689 426.755 62.5685 423.755 62.6685C420.24 62.7885 416.811 62.7588 407.124 62.5288C399.319 62.2398 390.943 62.2356 383.12 62.5181C373.262 62.7581 370.518 62.7782 365.46 62.6382C360.38 62.5189 355.165 62.499 350.028 62.5786C344.799 62.6486 338.369 62.6885 335.626 62.6685H322.767C313.508 62.6885 305.964 62.6787 284.446 62.6187C268.33 62.5787 255.986 62.1486 254.099 61.5786C253.07 61.2586 249.898 61.2985 243.64 61.7085C238.582 62.0385 237.638 62.0485 229.666 61.9185C223.065 61.8085 219.893 61.829 215.521 61.979C208.92 62.229 187.745 62.219 183.973 61.979C180.115 61.729 130.993 62.0287 120.362 62.3687C116.762 62.4687 114.875 62.4687 113.761 62.3687C112.903 62.2787 103.387 62.1488 92.5859 62.0688C81.7845 61.9988 70.4688 61.8981 67.4678 61.8481C64.3816 61.8081 60.3521 61.8285 58.5518 61.9185C55.9799 62.0285 53.665 61.9986 48.4355 61.7886C43.7206 61.5886 39.691 61.5384 35.1475 61.5884C31.5468 61.6384 23.2317 61.559 16.6309 61.439C11.1203 61.3368 5.56908 61.2676 0 61.2319V59.6968ZM968.388 61.3784C967.959 61.6883 968.217 61.9084 969.674 62.0884C971.56 62.3384 971.389 62.3481 966.931 62.2681C959.644 62.1481 959.044 62.1085 959.044 61.7085C959.044 61.5085 958.186 61.3083 957.157 61.2583C956.215 61.2183 955.7 61.1183 956.043 61.0483C956.386 60.9783 959.558 60.9185 962.987 60.9185H969.245L968.388 61.3784ZM1388.2 61.3481C1391.89 61.2181 1393.43 61.2383 1394.03 61.4683C1394.37 61.5782 1393.17 61.6382 1390.94 61.6382C1388.89 61.6382 1384.69 61.679 1381.6 61.729C1377.66 61.799 1375.86 61.7686 1375.86 61.6587C1375.86 61.5787 1377.91 61.489 1380.48 61.479C1383.09 61.4701 1385.68 61.4256 1388.2 61.3481ZM1105.04 61.3687C1106.5 61.1087 1110.95 61.1689 1110.53 61.4487C1110.27 61.5787 1109.58 61.7087 1108.9 61.7388C1106.84 61.8088 1104.18 61.5387 1105.12 61.3687H1105.04ZM593.24 60.7788C596.841 60.5988 598.212 60.5984 602.327 60.7983C604.127 60.8783 609.185 60.969 613.472 60.979C620.759 60.999 625.131 61.2185 623.073 61.4585C622.556 61.5185 616.814 61.5784 610.215 61.5884C603.7 61.5984 596.584 61.6487 594.44 61.6987C588.268 61.8587 587.239 61.0588 593.24 60.7788ZM862.856 61.0483C862.887 60.8685 905.636 60.8889 908.55 61.0688C915.922 61.5188 909.578 61.8381 899.634 61.5181C892.858 61.3191 885.867 61.239 878.888 61.2788C865.428 61.3088 862.856 61.2683 862.856 61.0483ZM652.307 61.1685C661.906 60.9385 690.183 60.8486 690.199 61.0483C690.199 61.1983 671.853 61.4981 655.394 61.5981C640.82 61.6981 639.276 61.4885 652.307 61.1685ZM759.554 61.0884C758.868 60.8484 763.24 60.8784 766.154 61.1284C768.469 61.3284 768.469 61.339 766.154 61.439C763.754 61.5489 760.325 61.3684 759.468 61.0884H759.554ZM79.2119 60.4888C76.8127 60.4888 74.9273 60.5485 74.9258 60.6284C74.9258 60.7084 76.8117 60.7788 79.2119 60.7788C81.5266 60.7788 83.499 60.7084 83.499 60.6284C83.4975 60.5485 81.5257 60.4888 79.2119 60.4888ZM475.535 0.518066C486.508 0.378069 487.537 0.378229 493.023 0.678223C498.424 0.968225 499.025 0.978068 501.683 0.768066C504.34 0.548101 504.855 0.557731 509.998 0.907715C515.484 1.28771 515.485 1.2876 521.314 1.0376C527.058 0.807614 527.315 0.808384 530.744 1.08838C533.83 1.34838 534.859 1.35849 540.688 1.2085C545.832 1.0785 550.204 1.09834 562.978 1.29834C571.722 1.43834 580.296 1.50826 582.182 1.46826C585.782 1.34829 586.296 1.51828 583.896 1.96826C581.067 2.49823 585.096 2.74764 597.955 2.82764C610.812 2.91762 612.529 2.98802 612.529 3.48779C612.529 3.67779 613.044 3.86846 613.729 3.91846C615.444 4.03827 629.749 2.66919 629.761 2.37842C629.761 1.87841 659.251 1.66779 685.398 1.98779L698.429 2.14795L705.116 1.7085L711.803 1.26807L722.519 1.5376C728.434 1.68759 734.434 1.87826 735.721 1.96826C737.264 2.05826 752.953 2.11768 779.271 2.11768C801.818 2.11768 830.022 2.20811 841.853 2.30811C855.741 2.43811 869.029 2.46772 878.888 2.40771C909.236 2.18772 980.904 2.40849 983.305 2.7085C985.962 3.0685 988.02 3.04791 997.965 2.60791C1006.19 2.24793 1006.45 2.24756 1011.08 2.49756C1016.74 2.78755 1016.57 2.96776 1010.74 3.19775C1005.25 3.41776 1005.77 3.58783 1012.28 3.77783C1016.82 3.90779 1017.68 3.98811 1018.02 4.31787L1018.37 4.71826L1030.28 4.67822L1042.29 4.63818L1042.89 4.05811C1043.74 3.28812 1050.17 3.11764 1053 3.7876C1056.17 4.5576 1065.09 4.60792 1065.09 3.85791C1065.09 3.62797 1065.69 3.38765 1066.55 3.32764C1073.4 3.03869 1080.71 2.92296 1087.98 2.98779C1090.12 3.07778 1093.47 3.04795 1098.78 2.89795C1109.84 2.58795 1153.05 2.42779 1213.66 2.48779C1242.2 2.51779 1269.38 2.52807 1274.1 2.51807C1280.67 2.50904 1287.24 2.51214 1293.81 2.52783C1310.56 2.55207 1327.3 2.56544 1344.05 2.56787C1380.91 2.56787 1383.23 2.58838 1383.91 2.83838C1385.29 3.35833 1418.81 3.51762 1434.92 3.07764C1438.36 2.95309 1441.99 2.91931 1445.55 2.97803C1447.01 3.04802 1452.33 3.04803 1457.3 2.97803C1490.66 2.56322 1536.84 2.62051 1562 2.9624V4.88916C1527.39 4.85276 1469.33 4.71516 1465.36 4.62842C1462.61 4.57842 1454.13 4.61826 1446.5 4.71826C1434.32 4.87826 1429.61 4.86795 1409.46 4.64795C1376.97 4.29795 1311.82 4.38759 1308.04 4.7876C1304.36 5.16758 1305.04 5.32803 1309.93 5.22803C1313.87 5.13806 1314.22 5.15807 1314.22 5.48779C1314.22 5.9078 1317.47 6.07775 1323.39 5.94775C1325.7 5.89776 1329.99 5.91854 1333.08 5.99854C1349.79 6.43853 1403.46 6.33791 1410.66 5.85791C1413.66 5.65792 1415.38 5.67802 1417.78 5.93799C1419.66 6.12799 1422.23 6.14807 1436.64 6.01807C1445.11 5.93715 1453.63 5.93715 1462.1 6.01807C1472.94 6.11086 1483.81 6.14384 1494.67 6.11768C1520.77 6.08431 1542.98 6.06945 1562 6.07568V49.5269C1542.49 49.5767 1525.63 49.6911 1523.82 49.8481C1519.88 50.1881 1518.68 50.6388 1522.11 50.4888C1527.25 50.2588 1534.54 50.2483 1551.26 50.4683C1555.79 50.5238 1559.27 50.5626 1562 50.5874V52.4985C1559.64 52.6442 1558.72 52.8081 1560.51 52.9487C1565.06 53.3187 1563.86 53.3687 1550.66 53.3687C1533.94 53.3787 1516.45 53.6687 1516.45 53.9487C1516.45 54.1185 1518.94 54.1486 1530.34 54.1187C1537.26 54.1049 1547.59 54.0983 1562 54.0972V55.0425C1550.72 54.8195 1523.7 54.8174 1518.51 55.0483C1514.14 55.2583 1497.42 55.2686 1471.7 55.0786C1456.18 54.9786 1456.01 54.9788 1456.01 55.2788C1456.01 55.6685 1455.58 55.668 1448.72 55.2681C1442.04 54.8881 1423.78 54.7587 1401.92 54.9487L1388.8 55.0483L1393.09 55.2788C1400.25 55.4972 1407.64 55.5908 1415.03 55.5581C1427.89 55.5981 1432.86 55.6688 1433.89 55.8188C1435.01 55.9788 1440.15 56.0288 1457.73 56.0288C1469.99 56.0388 1482.76 56.0887 1486.19 56.1587C1490.22 56.2387 1497.33 56.2086 1506.42 56.0786C1534.45 55.6786 1553.74 55.6485 1556.31 55.9985C1557.6 56.1616 1558.93 56.2545 1562 56.2837V57.9731C1561.65 57.971 1561.3 57.9706 1560.94 57.9683C1546.11 57.8683 1511.99 57.8087 1499.13 57.8687C1488.5 57.9187 1428.66 57.7382 1418.38 57.6382C1407.75 57.5282 1405.43 57.5383 1401.75 57.7583C1397.8 57.9783 1395.14 57.9889 1372.25 57.8589C1353.14 57.7389 1345.68 57.7484 1341.31 57.8784C1338.13 57.9784 1334.19 58.018 1332.56 57.978C1322.36 57.718 1224.54 57.5888 1217.69 57.8188C1211.86 58.0188 1209.8 58.0282 1206.2 57.8882C1202.26 57.7382 1201.48 57.7481 1199 58.0181C1195.65 58.3981 1191.62 58.4089 1188.71 58.0688C1187.08 57.8789 1181.94 57.7483 1167.36 57.5483L1148.33 57.2788L1142.16 57.6489C1126.3 58.5989 1128.19 58.7583 1154.93 58.7583C1172.68 58.7583 1175.42 58.7283 1176.71 58.5083C1178.17 58.2883 1179.19 58.2787 1187.34 58.4487C1201.48 58.7187 1214.43 58.7989 1219.83 58.6489C1228.24 58.5612 1236.7 58.554 1245.12 58.6284C1256.35 58.6884 1307.1 58.7588 1357.94 58.7788C1408.86 58.7988 1462.7 58.878 1477.62 58.978C1500.08 59.108 1505.31 59.1087 1508.13 58.9487C1510.88 58.7887 1513.54 58.7789 1521.77 58.8989C1535.16 59.0213 1548.57 59.1014 1562 59.145V60.3296C1542.67 60.3365 1471.59 60.3137 1390 60.2788L1216.14 60.2085L1179.19 60.2583C1166.69 60.2486 1154.2 60.2991 1141.73 60.4087C1138.05 60.5087 1137.19 60.4682 1134.87 60.1382L1132.3 59.7583L1123.04 59.9985C1108.98 60.3685 1021.37 60.4086 1017.34 60.0386C1015.02 59.8386 1013.57 59.829 1009.02 59.939C1004.91 60.039 1001.05 60.0184 993.421 59.8384C984.869 59.6371 983.538 59.6122 978.629 59.8101L973.922 60.0073C968.825 60.2084 965.655 60.2021 947.127 60.0884C929.724 59.9784 875.029 59.9483 857.884 60.0483C854.365 60.0683 785.103 60.1081 779.614 60.0981L688.999 59.9985C641.163 59.9485 592.298 59.8488 580.467 59.7788C568.551 59.7088 525.429 59.6384 484.536 59.6284C442.358 59.6284 409.009 59.5588 407.295 59.4888C405.409 59.3988 402.751 59.3988 400.18 59.4888C397.522 59.5788 393.75 59.5685 388.949 59.4585C384.234 59.3485 380.891 59.339 379.091 59.439C377.633 59.509 370.089 59.5483 362.202 59.5083C354.401 59.4783 346.343 59.458 344.285 59.478C342.313 59.498 338.97 59.4985 336.912 59.4985L281.188 59.4282C244.497 59.3882 227.865 59.319 224.607 59.189C221.264 59.059 218.349 59.0487 213.72 59.1587C202.832 59.4087 166.314 59.2985 161.169 58.9985C157.311 58.7685 156.796 58.768 155.425 58.978C154.225 59.168 152.424 59.1889 143.595 59.1089C136.394 59.0389 132.364 59.069 130.393 59.189C128.421 59.309 126.792 59.3085 124.392 59.2085C121.048 59.0585 71.4969 58.8989 8.22949 58.8589L0 58.8511V57.0005C16.6759 57.0308 56.1211 57.2194 57.6084 57.2886C58.5514 57.3286 82.2125 57.3982 109.988 57.4282L165.541 57.4888C168.199 57.4888 177.028 57.4184 185.001 57.3384C198.117 57.1984 200.175 57.2087 205.49 57.4487C210.72 57.6687 213.12 57.6888 225.379 57.5688C233.094 57.5088 242.439 57.4683 245.954 57.5083C249.555 57.5483 254.27 57.5287 256.413 57.4487C259.585 57.3487 262.157 57.3887 268.158 57.6187C275.102 57.8886 276.902 57.8981 286.675 57.7681C302.145 57.6572 317.653 57.6376 333.14 57.7085C389.972 57.8585 436.176 57.868 436.871 57.728C439.614 57.218 431.728 56.9988 411.496 57.0288C391.78 56.9836 372.058 56.9836 352.343 57.0288C341.798 57.0388 330.74 56.9887 327.653 56.9087C324.567 56.8187 304.935 56.7583 282.646 56.7583C260.956 56.7483 241.496 56.6984 239.524 56.6284C237.466 56.5584 215.006 56.5281 189.545 56.5581C110.846 56.6581 73.8112 56.4683 41.2344 55.7983C34.9379 55.6287 28.3865 55.6361 22.1172 55.8188C14.929 55.98 7.19385 56.081 0 56.1274V52.5366C2.42123 52.3681 4.42163 52.1843 3.94238 52.1284H3.85645C3.21864 52.0575 1.72906 51.9997 0 51.9585V51.1724C1.86831 51.239 4.8796 51.2858 9.42969 51.3286C14.5731 51.3886 20.0592 51.4583 21.6025 51.5083C23.4884 51.5583 24.603 51.5083 25.2031 51.3384C26.3176 50.9984 24.1746 50.8788 14.6592 50.7788L14.7441 50.7681C10.2007 50.7181 4.71431 50.6381 2.48535 50.5981C1.44504 50.5745 0.638416 50.564 0 50.5669V48.7231C1.94821 48.6708 2.22849 48.4967 2.22852 48.1685C2.22852 47.7685 1.71385 47.6671 0 47.687V8.47705C12.0775 8.51607 20.8854 8.56257 22.9746 8.60791C26.6614 8.67791 41.9207 8.74854 56.9229 8.74854C71.8389 8.74854 86.4978 8.81819 89.585 8.88818C93.2713 8.99818 96.1866 8.98818 99.0156 8.88818C102.016 8.76819 106.988 8.76795 117.704 8.89795C137.335 9.12794 168.194 9.13767 170.084 8.90771C172.141 8.67771 172.914 8.69791 178.4 9.10791C185.515 9.62785 203.944 9.64805 204.633 9.13818C204.89 8.88818 205.662 8.82791 208.062 8.85791C214.321 8.93791 219.807 8.94818 222.894 8.88818C225.294 8.8382 225.979 8.8782 226.322 9.13818C226.751 9.52817 228.894 9.54802 236.01 9.22803C246.897 8.74803 238.581 8.31787 218.606 8.31787C211.062 8.31787 200.432 8.24822 195.117 8.17822C189.631 8.09822 175.828 7.99775 164.255 7.94775C152.767 7.89775 136.65 7.82783 128.506 7.77783C120.362 7.73783 108.874 7.70803 102.873 7.72803C96.9577 7.72803 85.2128 7.64783 76.8115 7.52783C68.4103 7.39784 59.1519 7.33819 56.1514 7.38818C53.1509 7.43818 42.5205 7.33795 31.7188 7.14795C22.5379 7.0008 10.2632 6.87478 0 6.81689V4.69092C11.5293 4.7366 21.6733 4.79973 25.2891 4.85791C30.2612 4.93791 37.0334 4.99853 40.377 4.99854C46.549 4.99854 47.664 5.09799 45.0928 5.39795C43.9783 5.52795 44.0636 5.58772 45.6924 5.65771C49.0352 5.80769 51.7783 5.60796 51.0938 5.26807C50.5794 5.04808 51.0933 4.94819 52.8076 4.88818C56.4938 4.77819 55.5513 4.43793 51.0938 4.35791C43.3782 4.22791 13.7154 3.97803 3.94238 3.97803C2.84201 3.97803 1.50324 3.97221 0 3.96533V3.14209C13.9008 3.18786 28.7883 3.24651 53.2363 3.34814L109.646 3.63818C131.848 3.76818 151.822 3.81805 154.053 3.76807C156.282 3.72807 160.74 3.74764 163.998 3.82764C167.762 3.94378 171.721 3.94379 175.485 3.82764C179.414 3.69867 183.575 3.70288 187.487 3.83838C213.549 4.56838 259.757 4.36854 263.357 3.49854C265.072 3.07861 265.501 3.07826 273.044 3.42822C277.588 3.64822 282.818 3.48838 284.961 3.08838C286.932 2.70841 283.589 2.48831 279.988 2.7583C277.159 2.9883 254.27 3.05814 253.155 2.84814C250.583 2.36814 258.385 2.09795 273.559 2.14795C299.449 2.21795 312.222 1.57756 291.219 1.24756C284.876 1.14757 279.218 1.01776 278.874 0.947754C277.417 0.687752 283.161 0.528456 288.562 0.668457C292.848 0.778449 295.248 0.768141 298.849 0.598145C304.764 0.338147 319.166 0.427642 332.368 0.827637C341.033 1.17966 350.469 1.17636 359.115 0.817871C370.86 0.427868 372.661 0.438492 374.547 0.958496C375.918 1.35846 377.119 1.45845 379.69 1.41846C387.663 1.27846 408.324 1.07795 433.1 0.897949C450.074 0.767948 469.191 0.598067 475.535 0.518066ZM1122.01 57.9087C1117.47 57.6187 1101.7 57.5588 1098.7 57.8188C1095.44 58.0988 1095.09 58.3988 1097.84 58.5288C1110.18 59.0788 1131.87 58.5187 1122.01 57.9087ZM806.79 57.5181C788.187 57.4981 788.616 58.4582 807.305 58.6782C817.677 58.7982 818.534 58.7581 818.534 58.0581L818.449 58.0688V57.5386L806.79 57.5181ZM699.458 57.6089C696.2 57.1889 692.943 57.2489 688.656 57.8188C683.941 58.4589 678.797 58.4885 667.652 57.9585C663.452 57.7585 656.079 57.5285 651.364 57.4585C637.476 57.2485 626.331 57.4785 627.703 57.9585C629.078 58.4285 689.856 58.828 706.83 58.478C712.574 58.358 727.577 58.3088 750.98 58.3188C773.341 58.3288 786.37 58.2886 786.387 58.1987C786.387 57.7987 779.699 57.4386 774.127 57.5386C767.354 57.6686 741.297 57.6585 739.579 57.5386C738.893 57.4886 736.578 57.559 734.35 57.689C730.835 57.909 729.205 57.9083 720.804 57.7583C714.031 57.6383 710.517 57.6388 708.888 57.7388C705.116 57.9687 701.944 57.9288 699.458 57.6089ZM1069.03 57.9585C1063.63 57.7085 1037.14 57.7684 1033.2 58.0483C1026.34 58.5383 1028.23 58.6688 1040.66 58.5688C1046.83 58.5088 1060.46 58.4683 1070.92 58.4683C1084.89 58.4683 1089.86 58.4283 1089.52 58.2983C1088.58 57.9883 1080.35 57.7585 1075.55 57.9185C1073.06 57.9985 1070.15 58.0185 1069.03 57.9585ZM939.326 57.6187C931.611 57.3387 929.467 57.4188 929.467 57.9888C929.467 58.2785 930.411 58.3789 933.153 58.3589C936.446 58.3878 939.733 58.4238 943.013 58.4683C948.071 58.5383 956.129 58.538 960.844 58.478C971.698 58.416 982.573 58.4232 993.421 58.4985C1018.97 58.6485 1023.17 58.5885 1023.17 58.0386C1023.17 57.6986 1023.68 57.7087 1015.8 57.9087C1010.22 58.0487 1009.28 58.0283 1006.37 57.7583C1002.77 57.4283 997.365 57.3682 995.05 57.6382C992.049 57.9782 948.671 57.9687 939.326 57.6187ZM885.746 57.439C887.289 56.879 872.544 56.9286 854.541 57.5386C850.683 57.6686 846.225 57.7282 844.253 57.6782C840.31 57.5783 824.626 58.1083 824.621 58.3384C824.621 58.4184 836.281 58.459 852.483 58.439C883.002 58.399 883.174 58.399 885.746 57.439ZM480.336 57.1187C446.645 56.8287 449.816 56.8188 445.444 57.2388C440.558 57.6888 441.501 57.7685 454.36 57.9185C469.364 58.0884 616.456 58.0682 617.93 57.8882C621.702 57.4582 582.525 56.908 570.522 57.228C564.436 57.388 561.006 57.4081 558.777 57.3081C557.063 57.2381 552.69 57.2083 549.09 57.2583C545.489 57.3083 535.974 57.2782 528.001 57.1782C516.513 57.0382 512.912 57.0382 510.598 57.1782C508.369 57.3182 502.367 57.3186 480.336 57.1187ZM898.005 57.6089C897.846 57.6089 897.694 57.6163 897.581 57.6294C897.469 57.6425 897.406 57.6598 897.405 57.6782C897.405 57.6874 897.42 57.6971 897.45 57.7056C897.48 57.7141 897.525 57.7215 897.581 57.728C897.637 57.7345 897.703 57.7392 897.775 57.7427C897.848 57.7462 897.926 57.7485 898.005 57.7485C898.084 57.7485 898.162 57.7462 898.234 57.7427C898.307 57.7392 898.374 57.7345 898.43 57.728C898.485 57.7215 898.529 57.714 898.56 57.7056C898.59 57.6971 898.605 57.6874 898.605 57.6782C898.605 57.6598 898.541 57.6425 898.43 57.6294C898.317 57.6163 898.164 57.6089 898.005 57.6089ZM1521.34 56.9487C1521.34 56.6987 1518.17 56.669 1516.96 56.8989C1515.94 57.0989 1518.34 57.3785 1520.05 57.2485C1520.44 57.2124 1520.75 57.1665 1520.98 57.1147C1521.2 57.063 1521.32 57.0065 1521.34 56.9487ZM1218.37 54.9683C1217.17 54.8083 1213.23 54.8488 1212.37 55.0288C1211.94 55.1088 1212.11 55.2484 1212.97 55.3384C1215.11 55.5984 1214.51 55.728 1211.26 55.728C1209.54 55.728 1208.17 55.7983 1208.17 55.8882C1208.17 55.9682 1209.89 56.0188 1212.11 55.9888C1214.77 55.9688 1216.06 55.8785 1215.8 55.7485C1215.63 55.6385 1216.32 55.4381 1217.34 55.3081C1218.46 55.1681 1218.89 55.0183 1218.46 54.9683H1218.37ZM103.73 54.7183C102.958 54.5583 93.0144 54.5282 91.7285 54.6782C90.4427 54.8182 90.7856 55.4181 92.1572 55.5181C93.8718 55.6381 104.673 54.8883 103.816 54.7183H103.73ZM164.855 54.2085C164.855 54.1085 162.026 54.1684 159.025 54.3384C156.197 54.5084 155.082 55.018 157.653 55.0181C158.939 55.0181 164.94 54.3583 164.94 54.2183L164.855 54.2085ZM6.08594 53.5688C3.34328 53.5688 2.05726 53.6884 2.05664 53.9683C2.05664 54.2582 7.54222 54.1288 8.05762 53.8188C8.3148 53.6488 7.71472 53.5689 6.08594 53.5688ZM1486.62 52.3784C1487.3 51.9284 1486.87 51.928 1480.44 52.228C1474.79 52.508 1474.7 52.6287 1479.84 52.9487L1483.87 53.1987L1478.9 53.3081C1474.6 53.3941 1470.29 53.4682 1465.96 53.5288C1460.13 53.6088 1457.98 53.6989 1457.98 53.8589C1458.02 54.0886 1488.08 54.2086 1494.59 53.9888C1496.39 53.9388 1500.16 53.9486 1502.99 54.0386C1508.99 54.2186 1512.59 53.9789 1508.73 53.6489C1505.56 53.3689 1505.99 53.3288 1515.59 53.0688C1531.45 52.6188 1528.97 52.2681 1510.11 52.2681C1497.08 52.2681 1495.36 52.4081 1500.08 53.0181C1503.08 53.398 1501.7 53.4581 1492.53 53.3481C1485.59 53.2581 1484.47 53.2083 1485.16 53.0083C1485.81 52.804 1486.3 52.5931 1486.62 52.3784ZM192.717 51.4087C179.858 51.4087 178.657 51.9081 191.174 52.0181C198.886 52.088 201.973 51.9685 201.976 51.6089C201.976 51.4589 199.746 51.4087 192.717 51.4087ZM125.248 51.4282C125.848 50.9883 122.077 51.0281 120.362 51.478C119.591 51.678 119.333 51.888 119.848 51.938C121.219 52.108 124.819 51.7682 125.248 51.4282ZM169.827 51.3687C165.198 51.0587 163.226 51.0584 161.254 51.3384C158.426 51.7383 160.74 51.978 167.427 51.978C174.628 51.978 175.571 51.7584 169.827 51.3784V51.3687ZM148.652 51.3784C148.052 51.1484 145.652 51.0683 144.623 51.2583C144.194 51.3383 142.565 51.4087 140.937 51.4087C137.508 51.4087 135.793 51.6584 137.679 51.8784C138.622 51.9884 139.822 51.9884 141.794 51.8784C143.337 51.7884 145.652 51.6782 146.938 51.6382C148.138 51.5882 148.909 51.4784 148.652 51.3784ZM108.874 51.4087C108.874 51.1887 99.5297 50.9489 97.3008 51.1089C95.0721 51.2789 94.472 51.8382 96.4434 51.9282C99.3571 52.0582 108.868 51.6587 108.874 51.4087ZM85.8994 50.9888C81.0987 50.7988 81.6983 50.7983 80.1553 51.0083C75.2688 51.7283 77.7551 52.0084 85.4707 51.6284C90.7854 51.3684 90.8712 51.1888 85.8994 50.9888ZM49.5498 47.8784C41.663 47.4684 36.9476 47.4183 33.5186 47.7183C28.8899 48.1282 33.9479 48.4483 46.0352 48.5083C58.5515 48.5683 59.4943 48.3884 49.5498 47.8784ZM28.1113 48.0757C27.8249 47.94 16.5307 47.9004 15.3447 48.0386C13.8874 48.2086 15.8588 48.3784 19.2021 48.3784C23.7417 48.3686 27.9498 48.2318 28.1113 48.0757C28.115 48.0774 28.1182 48.0768 28.1182 48.0786V48.0688C28.118 48.0718 28.1144 48.0727 28.1113 48.0757ZM13.2871 46.4985C13.2871 46.0085 11.4005 45.9589 7.45703 46.3589C3.77125 46.7089 3.94285 46.888 8.05762 46.978C12.4294 47.078 13.287 46.9984 13.2871 46.4985ZM1522.45 44.5483C1520.48 44.0483 1518.16 44.0183 1513.88 44.4683L1510.02 44.8687L1515.16 45.3481C1519.96 45.7881 1520.82 45.818 1526.48 45.728C1538.23 45.548 1539.43 45.3281 1530 45.0581C1525.45 44.9381 1523.31 44.7883 1522.45 44.5483ZM284.189 6.93799C279.732 6.80799 279.56 7.1184 283.846 7.58838C286.675 7.88838 287.447 7.91857 292.419 7.78857C296.23 7.6894 300.181 7.6894 303.992 7.78857C310.508 7.93858 327.653 7.68799 327.653 7.43799C327.654 7.2581 329.878 7.29769 307.336 7.15771C296.449 7.08772 286.077 6.98799 284.189 6.93799ZM267.558 7.0376C258.813 6.9976 257.271 7.19849 264.472 7.4585C270.299 7.65843 275.271 7.58813 275.273 7.29834C275.273 7.13834 273.387 7.0776 267.558 7.0376ZM225.208 6.87842C216.549 6.66842 211.662 6.68803 207.719 6.97803C201.375 7.438 203.347 7.61806 213.892 7.51807C233.095 7.34807 236.353 7.15842 225.208 6.87842ZM174.542 6.92822C173.942 6.57831 171.284 6.53813 166.998 6.80811C162.455 7.0981 162.798 7.26818 168.027 7.38818C172.914 7.49817 175.228 7.32821 174.542 6.92822ZM1351.85 6.72803C1343.71 6.72803 1343.36 6.79796 1350.14 7.14795C1355.88 7.45783 1358.54 7.39813 1358.54 6.99854C1358.54 6.76853 1357.6 6.72803 1351.85 6.72803ZM375.146 5.87842C374.201 5.67854 363.408 5.65811 363.402 5.85791C363.402 6.0679 373.345 6.34815 374.804 6.17822C375.49 6.09822 375.661 5.95842 375.146 5.87842ZM353.2 5.65771C345.141 5.46773 263.879 5.38791 262.843 5.56787C261.128 5.91787 265.243 6.1676 270.559 6.0376C276.05 5.95426 281.612 5.95426 287.104 6.0376C320.881 6.4476 373.604 6.13772 353.2 5.65771ZM74.4971 4.32764C66.4397 4.25765 64.8959 4.28786 64.21 4.48779C62.924 4.8578 64.6385 4.92822 75.7832 4.92822C86.9278 4.92822 89.5852 5.08822 84.0986 5.42822C80.4983 5.65822 80.6697 5.90802 84.4414 5.97803C88.0404 6.048 93.3527 5.59847 93.3574 5.24854C93.3574 4.87853 100.816 4.97841 104.674 5.37842C106.645 5.58839 107.503 5.59849 109.475 5.4585L114.275 5.10791C116.247 4.96793 118.047 4.98854 124.22 5.24854C129.792 5.48852 132.364 5.5282 134.078 5.42822C135.793 5.31823 137.165 5.36798 140.079 5.64795C144.451 6.08795 148.567 6.01795 154.739 5.39795C162.197 4.66797 160.139 4.62853 111.875 4.49854V4.48779C96.6153 4.44779 79.8122 4.37764 74.4971 4.32764ZM171.37 4.81787C164.941 4.39789 163.483 4.47823 163.912 5.17822C164.255 5.73805 164.512 5.78852 167.341 5.74854C169.055 5.72854 175.657 5.71803 182.172 5.72803C188.516 5.74803 197.946 5.74854 203.09 5.74854C216.464 5.74636 229.838 5.75566 243.211 5.77783C255.891 5.78783 256.755 5.76809 256.756 5.49854C256.756 5.21853 255.727 5.20818 216.035 5.13818C180.372 5.07818 174.799 5.03787 171.37 4.81787ZM1172.76 5.0083C1164.28 4.8183 1161.28 4.80831 1158.45 5.0083C1152.79 5.3883 1159.13 5.62779 1171.31 5.48779C1181.59 5.36779 1182.02 5.23807 1172.76 5.01807V5.0083ZM983.905 4.65771C980.905 4.33771 977.818 4.35849 976.875 4.7085C975.761 5.12843 977.133 5.2876 981.934 5.2876C986.734 5.28758 987.505 5.03769 983.905 4.65771ZM351.829 2.98779C349.343 2.67779 345.999 2.63838 338.798 2.83838C336.397 2.90837 331.683 2.92841 328.254 2.87842C323.367 2.81842 320.709 2.87822 314.794 3.17822C305.536 3.66822 306.564 3.77854 322.681 3.99854C331.768 4.12854 336.398 4.24822 338.112 4.42822C340.684 4.68822 358.516 5.07826 362.974 4.96826C364.688 4.91826 364.002 4.83838 360.059 4.58838C347.628 3.83838 357.916 3.66767 407.381 3.86768C445.873 4.00768 477.25 3.93799 480.679 3.68799C485.307 3.35799 371.632 2.88799 358.43 3.18799C354.915 3.26798 353.629 3.22778 351.743 2.98779H351.829ZM581.066 3.26807C575.751 2.6881 556.205 2.69761 543.175 3.2876C535.631 3.6276 531.087 3.97779 533.916 3.98779C534.087 3.98779 542.06 4.13838 551.576 4.33838C578.581 4.86838 591.44 4.40808 581.066 3.26807ZM777.128 3.69775C776.013 3.47775 772.841 3.52806 772.069 3.76807C771.213 4.03806 772.242 4.41846 773.956 4.41846C775.671 4.41841 777.985 3.86775 777.128 3.69775ZM1000.11 3.46826C999.25 3.19831 990.593 3.20809 988.706 3.47803C986.477 3.78803 988.277 3.98779 993.421 3.98779C998.393 3.98779 1001.14 3.76826 1000.11 3.46826ZM858.57 3.62842C858.57 3.33842 855.569 3.15791 853.854 3.35791C851.712 3.60791 852.998 4.00849 855.741 3.9585C857.54 3.92851 858.569 3.81819 858.57 3.62842ZM308.879 2.17822C306.993 2.09823 305.107 2.29812 303.821 2.72803C303.307 2.89802 301.763 2.97802 298.935 2.97803C294.391 2.97803 291.733 3.19853 292.762 3.49854C293.876 3.85853 302.621 3.74814 304.85 3.34814C305.964 3.15814 308.45 2.92764 310.422 2.82764C314.194 2.65764 315.48 2.2583 312.308 2.2583C311.45 2.25829 309.736 2.21822 308.879 2.17822ZM716.689 3.14795C710.26 2.80797 688.744 2.92816 689.256 3.30811C689.599 3.61811 690.114 3.62846 704.688 3.66846C720.375 3.70845 724.147 3.54794 716.689 3.14795ZM146.681 2.04834C150.881 1.70837 162.368 1.95801 162.369 2.39795C162.369 2.85795 142.309 3.13775 140.251 2.69775C139.308 2.48776 137.679 2.39795 134.679 2.39795C132.278 2.39795 130.393 2.33779 130.393 2.23779C130.396 2.12802 132.453 2.10828 137.079 2.17822C142.308 2.24822 144.537 2.22834 146.681 2.04834ZM188.859 0.378418C190.149 0.148489 212.35 0.227858 233.438 0.527832L253.327 0.817871C253.498 0.817971 253.67 0.888318 253.67 0.968262C253.667 1.07806 251.438 1.09778 246.897 1.02783C239.182 0.917832 236.61 1.27826 243.896 1.46826C248.611 1.58826 248.012 1.81828 241.754 2.21826C233.438 2.75827 219.978 3.0283 214.577 2.7583C211.062 2.58831 207.633 2.55819 199.232 2.63818C193.251 2.68802 188.377 2.70793 188.345 2.66846C188.345 2.63846 189.373 2.34834 190.745 2.04834C193.917 1.31834 193.917 0.878223 190.659 0.678223C189.374 0.578262 188.602 0.448437 188.944 0.378418H188.859ZM176.171 2.11768C180.715 2.11768 180.715 2.58846 176.171 2.66846C172.828 2.71844 170.342 2.50806 171.628 2.26807C172.057 2.1881 174.114 2.11768 176.171 2.11768ZM337.255 1.72803C334.511 1.41805 317.796 1.25817 317.88 1.55811C317.966 1.91809 324.995 2.43786 328.682 2.35791C336.74 2.16791 339.312 1.97803 337.255 1.72803ZM89.6709 1.69775C94.9861 1.31775 97.0439 1.30822 97.0439 1.67822C97.0399 2.37808 73.8108 2.57836 71.582 1.87842C70.2966 1.51848 72.1829 1.47758 78.8691 1.74756C85.2987 1.99756 85.3847 1.99774 89.6709 1.69775ZM230.951 0.878418C228.636 0.678449 224.436 0.638074 220.149 0.768066C218.95 0.808089 217.922 1.00812 217.664 1.22803C217.321 1.57802 216.721 1.61822 211.234 1.67822C205.148 1.75822 202.404 2.03775 206.091 2.19775C212.607 2.49768 235.495 1.27841 230.951 0.878418ZM48.9502 1.73779C48.9524 1.49802 52.1242 1.47783 57.4375 1.69775C61.4665 1.85777 63.0948 2.33849 59.1514 2.2085L52.9795 2.0376C50.6648 1.9876 48.9502 1.85779 48.9502 1.73779ZM7.0293 1.38818C7.0293 1.20819 9.00055 1.21796 14.7441 1.39795C20.6593 1.59795 21.174 2.0084 15.3447 1.87842C10.3739 1.76845 7.03118 1.56815 7.0293 1.38818ZM113.075 0.0776367C113.082 -0.0119907 115.395 -0.0223128 118.99 0.0375977C125.763 0.147596 127.22 0.22819 125.849 0.388184C124.477 0.548185 113.075 0.257638 113.075 0.0776367Z" fill="#201818"/>
</svg>
