<svg width="1563" height="100" viewBox="0 0 1563 100" fill="none" xmlns="http://www.w3.org/2000/svg">
<path d="M478.106 98.9756C481.106 98.559 486.763 98.6426 486.766 99.1006C486.76 99.6006 474.334 100.288 472.62 99.8711C472.02 99.7253 472.449 99.5378 473.82 99.4336C475.192 99.3294 477.078 99.1214 478.106 98.9756ZM1202.08 95.3506C1208.26 93.5589 1208.17 93.5589 1216.92 95.2256L1223.94 96.5791H1324.85C1405.95 96.5583 1426.18 96.4961 1427.89 96.1836C1429.69 95.8503 1431.41 95.8919 1438.35 96.4961C1446.24 97.1628 1448.21 97.2044 1469.21 97.1211C1493.05 97.0378 1496.56 97.2458 1486.53 98.1416C1481.39 98.5999 1477.96 98.6214 1450.27 98.3506C1427.89 98.1214 1415.89 98.1416 1405.69 98.3916C1395.06 98.6416 1385.63 98.6416 1366.77 98.3916C1348.17 98.1208 1331.96 98.1214 1302.3 98.3506C1244.52 98.8298 1190.85 98.7878 1187.94 98.2461C1184.85 97.6628 1186.22 97.2672 1192.05 97.0381C1196 96.8714 1198.05 96.5169 1202.08 95.3711V95.3506ZM982.876 94.3086C984.762 93.9961 989.906 93.9548 1008.25 94.1006C1030.03 94.2673 1034.49 94.2669 1045.97 94.1836C1052.75 94.1746 1059.52 94.1954 1066.29 94.2461L1081.72 94.3506L1081.29 95.1836C1081.19 95.7319 1081.76 96.2756 1082.92 96.7461C1086.35 98.0586 1035.52 99.1004 1030.37 97.8506C1026.51 96.9339 1031.57 96.6208 1045.97 96.8916C1070.92 97.3708 1073.41 97.2044 1063.12 95.7461C1054.72 94.517 1015.97 95.0376 1019.31 96.3291C1021.63 97.2666 1020.51 97.3503 999.336 98.0586C980.219 98.6836 977.561 98.6833 977.561 98.0166C977.558 97.8286 976.273 97.3498 974.731 96.9336L971.988 96.2041L979.275 96.3711C986.648 96.5378 998.479 96.1208 998.479 95.7041C998.466 95.5791 994.785 95.3921 990.335 95.2881C980.991 95.0798 979.704 94.8916 982.876 94.3291V94.3086ZM1143.7 94.7041C1146.02 94.0584 1151.25 94.0378 1157.16 94.6211C1160.68 94.9961 1162.56 95.0169 1167.02 94.7461C1172.59 94.3919 1175.59 94.6006 1172.34 95.1006C1171.31 95.2464 1168.99 95.3711 1167.19 95.3711C1164.97 95.3919 1163.77 95.5379 1163.76 95.8291C1163.76 96.079 1164.19 96.2879 1164.62 96.2881C1168.05 96.2881 1173.71 97.5374 1172.34 97.9541C1169.94 98.6208 1119.79 98.5374 1111.64 97.8291C1101.78 96.9958 1103.92 96.7458 1123.04 96.5791C1139.67 96.4541 1140.96 96.3916 1141.39 95.8291C1141.81 95.4236 1142.6 95.0468 1143.7 94.7256V94.7041ZM1562 97.1992V98.3789C1559.27 98.3873 1556.21 98.3916 1552.8 98.3916C1527.25 98.3916 1521.42 98.1832 1524.68 97.3916C1525.31 97.2256 1545.91 97.1617 1562 97.1992ZM922.009 97.4336C922.013 97.0176 929.553 97.4338 931.867 97.9961C933.496 98.3711 933.154 98.4131 928.867 98.2256C923.038 97.9756 922.009 97.8502 922.009 97.4336ZM790.673 93.2461C796.845 93.1628 803.446 93.1416 805.504 93.2041C807.543 93.2888 809.608 93.3306 811.677 93.3291C819.306 93.2041 838.165 93.3298 841.767 93.5381C851.54 94.0381 846.739 94.3708 827.536 94.5791C807.734 94.7874 804.476 94.9959 807.39 95.8291C808.59 96.2041 812.019 96.2881 825.393 96.2881C843.224 96.2881 846.139 96.5791 837.566 97.5791C832.337 98.1833 753.038 98.3503 721.661 97.8086C711.46 97.6419 701.601 97.4961 699.629 97.4961C697.143 97.4961 696.286 97.3499 696.629 97.0166C696.976 96.6211 702.302 96.5172 740.779 96.4131C787.071 96.2464 794.445 96.1002 794.445 95.3711C794.444 95.0381 792.899 94.9548 786.558 95.0381L778.843 95.1416L779.186 94.2881C779.614 93.4342 779.615 93.4336 790.673 93.2461ZM949.527 97.3916C952.183 97.121 959.034 97.163 959.044 97.4541C959.044 97.8083 955.872 98.0791 951.5 98.0791C947.899 98.0791 946.613 97.6624 949.442 97.3916H949.527ZM629.16 96.2881C632.589 96.1631 637.304 96.1214 639.619 96.1631L651.793 96.4336C667.052 96.7878 670.224 97.6208 657.365 97.9541C650.421 98.1416 648.62 98.0794 644.763 97.5586C640.477 96.9545 639.791 96.934 632.247 97.3506C622.648 97.8504 616.22 97.8919 616.216 97.4756C616.219 97.059 621.618 96.5797 629.16 96.2881ZM0 91.0303C2.6524 91.1185 2.84872 91.3177 3.08496 91.8916C3.59933 92.8916 7.45752 92.8916 8.05762 91.8916C8.40049 91.267 8.83243 91.2465 21.0029 91.4131C27.8614 91.4964 45.5211 91.5374 60.0947 91.5166L90.2715 91.4541C126.877 91.3916 154.31 92.1208 159.454 93.3291L162.283 93.9541L167.855 93.1631C177.387 92.205 187.991 92.0795 197.86 92.8086C201.718 93.1419 205.662 93.1628 218.007 92.9336C240.38 92.4961 259.067 92.8921 259.585 93.8086C260.099 94.7044 262.586 94.6422 270.13 93.6006L276.474 92.7256L318.995 92.7041H364.002L380.548 92.6211C395.807 92.5169 400.523 92.8715 402.237 94.1631C403.954 95.4962 421.012 95.8921 428.47 94.7881C434.128 93.9547 433.613 93.5381 427.27 93.7881C421.697 94.0172 419.897 94.0378 412.438 93.9336C393.408 93.7044 418.611 92.4548 439.271 92.6006C455.989 92.7256 465.248 93.7669 453.417 94.1836C444.244 94.4961 448.273 95.2253 459.847 95.3086C470.477 95.4128 470.477 95.4124 472.191 94.5791C474.507 93.4125 497.652 93.1215 504.511 94.1631C509.912 94.9756 511.97 94.9339 513.685 94.0381C514.713 93.4757 515.999 93.2881 518.828 93.2881C522.857 93.2881 525 93.9961 522.686 94.5586C520.371 95.1211 521.057 95.2874 525 95.1416C527.229 95.0583 529.63 94.6833 531.259 94.1416C534.345 93.1001 541.975 92.9542 547.547 93.8291C550.462 94.3083 551.834 94.3499 556.463 94.0791C565.379 93.5792 589.553 96.621 582.182 97.3086C579.01 97.6003 444.844 97.4961 436.186 97.1836C430.785 97.0169 426.755 97.0173 423.755 97.2256C420.24 97.4756 416.811 97.4127 407.124 96.9336C399.319 96.3315 390.943 96.3246 383.12 96.9131C373.262 97.4131 370.518 97.4547 365.46 97.1631C360.38 96.9145 355.165 96.8723 350.028 97.0381C344.799 97.1839 338.369 97.2673 335.626 97.2256H322.767C313.508 97.2673 305.964 97.2461 284.446 97.1211C268.33 97.0378 255.985 96.1416 254.099 94.9541C253.07 94.2876 249.897 94.3715 243.64 95.2256C238.582 95.9131 237.638 95.9339 229.666 95.6631C223.065 95.4339 219.893 95.4756 215.521 95.7881C208.92 96.3089 187.745 96.2881 183.973 95.7881C180.115 95.2673 130.993 95.8923 120.362 96.6006C116.762 96.8089 114.875 96.8089 113.761 96.6006C112.903 96.4131 103.387 96.1422 92.5859 95.9756C81.7845 95.8298 70.4687 95.6208 67.4678 95.5166C64.3816 95.4333 60.3521 95.4756 58.5518 95.6631C55.9799 95.8923 53.665 95.8291 48.4355 95.3916C43.7206 94.9749 39.691 94.8714 35.1475 94.9756C31.5467 95.0797 23.2317 94.9131 16.6309 94.6631C11.1203 94.4503 5.56907 94.3067 0 94.2324V91.0303ZM968.388 94.5381C967.959 95.1836 968.217 95.6417 969.674 96.0166C971.56 96.5374 971.389 96.5583 966.931 96.3916C959.645 96.1416 959.044 96.0586 959.044 95.2256C959.043 94.809 958.186 94.3922 957.157 94.2881C956.215 94.2048 955.701 93.9964 956.043 93.8506C956.387 93.7048 959.559 93.5791 962.987 93.5791H969.245L968.388 94.5381ZM1388.2 94.4756C1391.89 94.2048 1393.43 94.2465 1394.03 94.7256C1394.37 94.9546 1393.17 95.0791 1390.94 95.0791C1388.89 95.0791 1384.69 95.1624 1381.6 95.2666C1377.66 95.4124 1375.86 95.3502 1375.86 95.1211C1375.86 94.9545 1377.91 94.7669 1380.48 94.7461C1383.09 94.7276 1385.68 94.637 1388.2 94.4756ZM1105.04 94.5166C1106.5 93.9751 1110.95 94.1006 1110.53 94.6836C1110.27 94.9544 1109.58 95.2255 1108.9 95.2881C1106.84 95.4339 1104.18 94.8708 1105.12 94.5166H1105.04ZM593.24 93.2881C596.841 92.9131 598.212 92.9125 602.327 93.3291C604.127 93.4958 609.185 93.6833 613.472 93.7041C620.759 93.7458 625.131 94.2041 623.073 94.7041C622.557 94.8291 616.814 94.9548 610.215 94.9756C603.7 94.9964 596.584 95.0999 594.44 95.2041C588.268 95.5374 587.239 93.8714 593.24 93.2881ZM862.856 93.8506C862.884 93.476 905.636 93.5167 908.55 93.8916C915.922 94.8291 909.578 95.4958 899.634 94.8291C892.858 94.4146 885.867 94.2461 878.888 94.3291C865.432 94.3916 862.858 94.3086 862.856 93.8506ZM652.307 94.1006C661.905 93.6216 690.183 93.4344 690.199 93.8506C690.184 94.1632 671.846 94.7878 655.394 94.9961C640.82 95.2044 639.276 94.7672 652.307 94.1006ZM759.554 93.9336C758.869 93.4337 763.24 93.4959 766.154 94.0166C768.469 94.4333 768.469 94.4548 766.154 94.6631C763.754 94.8922 760.325 94.5169 759.468 93.9336H759.554ZM79.2119 92.6836C76.8134 92.6836 74.9285 92.8091 74.9258 92.9756C74.9289 93.1421 76.8136 93.2881 79.2119 93.2881C81.5247 93.2881 83.4958 93.1421 83.499 92.9756C83.4962 92.8091 81.5249 92.6836 79.2119 92.6836ZM1562 69.8477C1542.49 69.9515 1525.63 70.1893 1523.82 70.5166C1519.88 71.2249 1518.68 72.1621 1522.11 71.8496C1527.25 71.3705 1534.54 71.3503 1551.26 71.8086C1555.79 71.9243 1559.27 72.005 1562 72.0566V76.0342C1559.64 76.3376 1558.72 76.6816 1560.51 76.9746C1565.06 77.7454 1563.86 77.8496 1550.66 77.8496C1533.94 77.8704 1516.46 78.4754 1516.45 79.0586C1516.45 79.4126 1518.94 79.4746 1530.34 79.4121C1537.26 79.3834 1547.59 79.3696 1562 79.3672V81.3379C1550.72 80.8733 1523.7 80.8686 1518.51 81.3496C1514.14 81.7871 1497.42 81.8079 1471.7 81.4121C1456.19 81.2038 1456.01 81.2046 1456.01 81.8291C1456.01 82.6416 1455.58 82.6419 1448.72 81.8086C1442.04 81.0169 1423.78 80.7458 1401.92 81.1416L1388.8 81.3496L1393.09 81.8291C1400.25 82.284 1407.64 82.4802 1415.03 82.4121C1427.89 82.4954 1432.86 82.6416 1433.89 82.9541C1435.01 83.2874 1440.15 83.3916 1457.73 83.3916C1469.99 83.4124 1482.76 83.5163 1486.19 83.6621C1490.22 83.8288 1497.33 83.7669 1506.42 83.4961C1534.45 82.6628 1553.74 82.6 1556.31 83.3291C1557.6 83.6688 1558.93 83.862 1562 83.9229V87.4453C1561.65 87.4409 1561.3 87.4384 1560.94 87.4336C1546.11 87.2253 1511.99 87.1006 1499.13 87.2256C1488.5 87.3297 1428.66 86.9544 1418.38 86.7461C1407.75 86.5169 1405.43 86.5378 1401.75 86.9961C1397.8 87.4544 1395.14 87.4749 1372.25 87.2041C1353.14 86.9541 1345.68 86.9753 1341.31 87.2461C1338.13 87.4544 1334.19 87.5374 1332.56 87.4541C1322.36 86.9124 1224.55 86.6419 1217.69 87.1211C1211.86 87.5377 1209.8 87.5582 1206.2 87.2666C1202.26 86.9541 1201.48 86.9757 1199 87.5381C1195.65 88.3298 1191.62 88.3499 1188.71 87.6416C1187.08 87.2458 1181.94 86.9752 1167.36 86.5586L1148.33 85.9961L1142.16 86.7666C1126.3 88.7457 1128.19 89.0791 1154.93 89.0791C1172.68 89.0791 1175.42 89.0169 1176.71 88.5586C1178.17 88.1003 1179.19 88.0794 1187.34 88.4336C1201.48 88.9961 1214.43 89.1631 1219.83 88.8506C1228.24 88.6678 1236.7 88.6536 1245.12 88.8086C1256.35 88.9336 1307.1 89.0794 1357.94 89.1211C1408.86 89.1628 1462.7 89.3298 1477.62 89.5381C1500.08 89.8089 1505.31 89.8089 1508.13 89.4756C1510.88 89.1423 1513.54 89.1211 1521.77 89.3711C1535.16 89.6261 1548.57 89.7977 1562 89.8887V92.3613C1542.67 92.3757 1471.59 92.3188 1390 92.2461L1216.14 92.1006L1179.19 92.2041C1166.69 92.1839 1154.2 92.2882 1141.73 92.5166C1138.05 92.7249 1137.19 92.6416 1134.87 91.9541L1132.3 91.1631L1123.04 91.6631C1108.98 92.4339 1021.37 92.5169 1017.34 91.7461C1015.02 91.3295 1013.57 91.3089 1009.02 91.5381C1004.91 91.7464 1001.05 91.7041 993.421 91.3291C984.869 90.9098 983.538 90.8573 978.629 91.2695L973.922 91.6816C968.825 92.1006 965.655 92.0876 947.127 91.8506C929.724 91.6214 875.029 91.5583 857.884 91.7666C854.365 91.8083 785.103 91.8919 779.614 91.8711L688.999 91.6631C641.163 91.5589 592.298 91.3499 580.467 91.2041C568.551 91.0583 525.429 90.9124 484.536 90.8916C442.358 90.8916 409.009 90.7464 407.295 90.6006C405.409 90.4131 402.751 90.4131 400.18 90.6006C397.522 90.7881 393.75 90.7673 388.949 90.5381C384.235 90.3089 380.891 90.2878 379.091 90.4961C377.633 90.6419 370.089 90.7249 362.202 90.6416C354.401 90.5791 346.343 90.5375 344.285 90.5791C342.313 90.6208 338.97 90.6211 336.912 90.6211L281.188 90.4756C244.497 90.3923 227.865 90.2464 224.607 89.9756C221.264 89.7048 218.349 89.6839 213.72 89.9131C202.832 90.4339 166.313 90.2041 161.169 89.5791C157.311 89.0999 156.796 89.1006 155.425 89.5381C154.225 89.9339 152.424 89.9752 143.595 89.8086C136.394 89.6628 132.364 89.7256 130.393 89.9756C128.421 90.2256 126.792 90.2249 124.392 90.0166C121.048 89.7041 71.4967 89.3714 8.22949 89.2881L0 89.2715V85.417C16.6757 85.4802 56.1202 85.8724 57.6084 86.0166C58.5514 86.0999 82.2125 86.2461 109.988 86.3086L165.541 86.4336C168.199 86.4336 177.028 86.2878 185.001 86.1211C198.117 85.8294 200.175 85.8506 205.49 86.3506C210.72 86.8089 213.12 86.8506 225.379 86.6006C233.094 86.4756 242.439 86.3923 245.954 86.4756C249.555 86.5589 254.27 86.5173 256.413 86.3506C259.585 86.1423 262.157 86.2249 268.158 86.7041C275.102 87.2666 276.902 87.2874 286.675 87.0166C302.145 86.7857 317.653 86.7439 333.14 86.8916C389.969 87.2041 436.171 87.2251 436.871 86.9336C439.614 85.8711 431.727 85.4121 411.496 85.4746C391.78 85.3803 372.058 85.3803 352.343 85.4746C341.798 85.4954 330.74 85.3913 327.653 85.2246C324.567 85.0371 304.935 84.9121 282.646 84.9121C260.956 84.8913 241.496 84.7874 239.524 84.6416C237.466 84.4958 215.006 84.4336 189.545 84.4961C110.846 84.7044 73.8112 84.308 41.2344 82.9121C34.938 82.5587 28.3865 82.5733 22.1172 82.9541C14.929 83.2898 7.19384 83.5018 0 83.5986V76.1182C2.42115 75.7672 4.42161 75.3831 3.94238 75.2666H3.85645C3.21859 75.1188 1.72901 74.995 0 74.9092V73.2734C1.8683 73.4122 4.8795 73.5104 9.42969 73.5996C14.5731 73.7246 20.0592 73.8704 21.6025 73.9746C23.4883 74.0788 24.603 73.9751 25.2031 73.6211C26.3172 72.9128 24.1742 72.6624 14.6592 72.4541L14.7441 72.4336C10.2007 72.3294 4.71431 72.1624 2.48535 72.0791C1.44504 72.0299 0.638416 72.0095 0 72.0156V68.1768C1.94826 68.0678 2.22851 67.7005 2.22852 67.0166C2.22837 66.1837 1.71359 65.9741 0 66.0156V0H1562V69.8477ZM1122.01 87.3086C1117.47 86.7044 1101.7 86.5794 1098.7 87.1211C1095.44 87.7044 1095.09 88.3297 1097.84 88.6006C1110.18 89.7464 1131.87 88.5794 1122.01 87.3086ZM806.79 86.4961C788.187 86.4544 788.616 88.4547 807.305 88.9131C817.677 89.1631 818.534 89.0793 818.534 87.6211L818.449 87.6416V86.5381L806.79 86.4961ZM699.458 86.6836C696.2 85.8086 692.942 85.9337 688.656 87.1211C683.941 88.4544 678.797 88.5173 667.652 87.4131C663.452 86.9964 656.079 86.5169 651.364 86.3711C637.477 85.9336 626.333 86.4132 627.703 87.4131C629.083 88.3922 689.857 89.2252 706.83 88.4961C712.574 88.2461 727.577 88.1423 750.98 88.1631C773.338 88.1839 786.367 88.1003 786.387 87.9131C786.385 87.0799 779.699 86.3298 774.127 86.5381C767.354 86.8089 741.298 86.788 739.579 86.5381C738.893 86.4339 736.578 86.5798 734.35 86.8506C730.835 87.3089 729.205 87.3086 720.804 86.9961C714.032 86.7461 710.517 86.7458 708.888 86.9541C705.116 87.4332 701.944 87.3502 699.458 86.6836ZM1069.03 87.4131C1063.63 86.8923 1037.14 87.0173 1033.2 87.6006C1026.34 88.6214 1028.23 88.8919 1040.66 88.6836C1046.83 88.5586 1060.46 88.4756 1070.92 88.4756C1084.89 88.4756 1089.86 88.3918 1089.52 88.1211C1088.58 87.4753 1080.35 86.9958 1075.55 87.3291C1073.06 87.4958 1070.15 87.5381 1069.03 87.4131ZM939.326 86.7041C931.611 86.1208 929.467 86.2884 929.467 87.4756C929.467 88.0794 930.411 88.2877 933.153 88.2461C936.446 88.3063 939.733 88.383 943.013 88.4756C948.071 88.6214 956.129 88.6211 960.844 88.4961C971.698 88.3669 982.573 88.3811 993.421 88.5381C1018.97 88.8506 1023.17 88.7249 1023.17 87.5791C1023.17 86.8713 1023.68 86.892 1015.8 87.3086C1010.22 87.6002 1009.28 87.5585 1006.37 86.9961C1002.77 86.3086 997.365 86.1836 995.05 86.7461C992.049 87.4544 948.671 87.4333 939.326 86.7041ZM885.746 86.3291C887.286 85.1628 872.542 85.2674 854.541 86.5381C850.683 86.8089 846.225 86.9333 844.253 86.8291C840.311 86.6209 824.633 87.7246 824.621 88.2041C824.621 88.3708 836.281 88.4548 852.483 88.4131C883.002 88.3298 883.174 88.3291 885.746 86.3291ZM480.336 85.6621C446.645 85.0579 449.816 85.0381 445.444 85.9131C440.558 86.8506 441.501 87.0166 454.36 87.3291C469.364 87.6832 616.458 87.6415 617.93 87.2666C621.701 86.3708 582.525 85.225 570.522 85.8916C564.436 86.2249 561.006 86.2669 558.777 86.0586C557.063 85.9128 552.69 85.8499 549.09 85.9541C545.489 86.0583 535.974 85.9964 528.001 85.7881C516.513 85.4964 512.912 85.4964 510.598 85.7881C508.368 86.0797 502.367 86.0788 480.336 85.6621ZM898.005 86.6836C897.846 86.6836 897.694 86.6993 897.581 86.7266C897.469 86.7538 897.406 86.7906 897.405 86.8291C897.405 86.8481 897.42 86.8672 897.45 86.8848C897.48 86.9025 897.525 86.9191 897.581 86.9326C897.637 86.9461 897.703 86.9566 897.775 86.9639C897.848 86.9712 897.926 86.9756 898.005 86.9756C898.084 86.9756 898.162 86.9712 898.234 86.9639C898.307 86.9565 898.374 86.9462 898.43 86.9326C898.485 86.9191 898.529 86.9024 898.56 86.8848C898.589 86.8672 898.605 86.8482 898.605 86.8291C898.605 86.7907 898.541 86.7538 898.43 86.7266C898.317 86.6992 898.164 86.6836 898.005 86.6836ZM1521.34 85.3086C1521.34 84.7882 1518.17 84.7252 1516.96 85.2041C1515.94 85.6208 1518.34 86.2044 1520.05 85.9336C1520.44 85.8582 1520.75 85.7632 1520.98 85.6553C1521.2 85.5474 1521.32 85.4291 1521.34 85.3086ZM1218.37 81.1836C1217.17 80.8503 1213.23 80.9337 1212.37 81.3086C1211.94 81.4753 1212.11 81.7666 1212.97 81.9541C1215.11 82.4957 1214.51 82.7666 1211.26 82.7666C1209.54 82.7666 1208.17 82.9125 1208.17 83.0996C1208.17 83.2663 1209.89 83.3711 1212.11 83.3086C1214.77 83.2669 1216.06 83.0793 1215.8 82.8086C1215.63 82.5794 1216.32 82.1623 1217.34 81.8916C1218.46 81.6 1218.89 81.2878 1218.46 81.1836H1218.37ZM103.73 80.6621C102.956 80.3289 93.0146 80.2667 91.7285 80.5791C90.4427 80.8708 90.7856 82.1207 92.1572 82.3291C93.8718 82.5791 104.674 81.0163 103.816 80.6621H103.73ZM164.855 79.5996C164.848 79.3924 162.022 79.5174 159.025 79.8711C156.197 80.2253 155.082 81.287 157.653 81.2871C158.939 81.2871 164.937 79.9132 164.94 79.6211L164.855 79.5996ZM6.08594 78.2666C3.34386 78.2666 2.05779 78.5168 2.05664 79.0996C2.05664 79.7038 7.54325 79.4329 8.05762 78.7871C8.31385 78.4333 7.71394 78.2666 6.08594 78.2666ZM1486.62 75.7871C1487.3 74.8499 1486.87 74.8497 1480.44 75.4746C1474.79 76.0579 1474.7 76.308 1479.84 76.9746L1483.87 77.4961L1478.9 77.7246C1474.6 77.9039 1470.29 78.0573 1465.96 78.1836C1460.13 78.3502 1457.98 78.538 1457.98 78.8711C1457.99 79.3501 1488.08 79.5999 1494.59 79.1416C1496.39 79.0375 1500.16 79.0586 1502.99 79.2461C1508.99 79.6211 1512.59 79.1211 1508.73 78.4336C1505.56 77.8503 1505.99 77.7663 1515.59 77.2246C1531.45 76.2871 1528.97 75.5586 1510.11 75.5586C1497.08 75.5586 1495.36 75.8503 1500.08 77.1211C1503.08 77.9127 1501.7 78.0377 1492.53 77.8086C1485.59 77.6211 1484.47 77.5163 1485.16 77.0996C1485.81 76.6739 1486.3 76.2344 1486.62 75.7871ZM192.717 73.7666C179.858 73.7666 178.657 74.8079 191.174 75.0371C198.888 75.1829 201.975 74.9334 201.976 74.1836C201.974 73.8714 199.744 73.7666 192.717 73.7666ZM125.248 73.8086C125.847 72.8923 122.077 72.975 120.362 73.9121C119.591 74.3288 119.333 74.7669 119.848 74.8711C121.219 75.2251 124.818 74.5168 125.248 73.8086ZM169.827 73.6836C165.198 73.0378 163.226 73.0378 161.254 73.6211C158.426 74.4543 160.74 74.9541 167.427 74.9541C174.628 74.9541 175.571 74.4958 169.827 73.7041V73.6836ZM148.652 73.7041C148.052 73.2251 145.652 73.0584 144.623 73.4541C144.194 73.6208 142.565 73.7666 140.937 73.7666C137.508 73.7666 135.793 74.2878 137.679 74.7461C138.622 74.9753 139.822 74.9753 141.794 74.7461C143.337 74.5586 145.652 74.3294 146.938 74.2461C148.138 74.1419 148.909 73.9124 148.652 73.7041ZM108.874 73.7666C108.869 73.3084 99.5292 72.8084 97.3008 73.1416C95.0721 73.4958 94.4721 74.662 96.4434 74.8496C99.3581 75.1204 108.874 74.2874 108.874 73.7666ZM85.8994 72.8916C81.0987 72.4958 81.6983 72.4961 80.1553 72.9336C75.2688 74.4336 77.7552 75.0163 85.4707 74.2246C90.7854 73.683 90.8712 73.3083 85.8994 72.8916ZM49.5498 66.4121C41.6631 65.558 36.9476 65.4541 33.5186 66.0791C28.89 66.9332 33.9479 67.5996 46.0352 67.7246C58.5515 67.8496 59.4943 67.4746 49.5498 66.4121ZM28.1123 66.8203C27.8485 66.5369 16.532 66.4579 15.3447 66.7461C13.8874 67.1003 15.8588 67.4541 19.2021 67.4541C23.77 67.4335 28.0006 67.1481 28.1123 66.8203C28.1152 66.8235 28.118 66.826 28.1182 66.8291V66.8086C28.1181 66.8128 28.1139 66.8162 28.1123 66.8203ZM13.2871 63.5371C13.2863 62.5169 11.3997 62.4129 7.45703 63.2461C3.77127 63.9752 3.94288 64.3496 8.05762 64.5371C12.4298 64.7454 13.2871 64.5788 13.2871 63.5371ZM1522.45 59.4746C1520.48 58.433 1518.16 58.3711 1513.88 59.3086L1510.02 60.1416L1515.16 61.1416C1519.96 62.0583 1520.82 62.1211 1526.48 61.9336C1538.23 61.5586 1539.43 61.0996 1530 60.5371C1525.45 60.2871 1523.31 59.9746 1522.45 59.4746Z" fill="#050608"/>
</svg>
