<svg width="1563" height="162" viewBox="0 0 1563 162" fill="none" xmlns="http://www.w3.org/2000/svg">
<path d="M478.106 160.756C481.107 160.25 486.766 160.351 486.766 160.908C486.762 161.516 474.334 162.351 472.62 161.845C472.02 161.668 472.449 161.439 473.82 161.312C475.192 161.186 477.078 160.933 478.106 160.756ZM1202.08 156.352C1208.26 154.175 1208.17 154.175 1216.92 156.2L1223.94 157.845H1324.85C1405.94 157.819 1426.18 157.744 1427.89 157.364C1429.69 156.959 1431.41 157.01 1438.35 157.744C1446.24 158.554 1448.21 158.604 1469.21 158.503C1493.05 158.402 1496.56 158.655 1486.53 159.743C1481.39 160.3 1477.96 160.326 1450.27 159.997C1427.89 159.719 1415.89 159.743 1405.69 160.047C1395.06 160.351 1385.63 160.351 1366.77 160.047C1348.17 159.718 1331.96 159.719 1302.3 159.997C1244.52 160.579 1190.85 160.528 1187.94 159.87C1184.85 159.161 1186.22 158.681 1192.05 158.402C1196 158.2 1198.05 157.769 1202.08 156.377V156.352ZM982.876 155.086C984.762 154.706 989.906 154.656 1008.25 154.833C1030.03 155.036 1034.49 155.036 1045.97 154.935C1052.75 154.924 1059.52 154.948 1066.29 155.01L1081.72 155.137L1081.29 156.149C1081.19 156.816 1081.76 157.476 1082.92 158.048C1086.35 159.643 1035.52 160.908 1030.37 159.39C1026.51 158.276 1031.57 157.896 1045.97 158.225C1070.92 158.807 1073.41 158.605 1063.12 156.833C1054.72 155.34 1015.97 155.972 1019.31 157.541C1021.63 158.68 1020.51 158.782 999.336 159.643C980.219 160.402 977.561 160.402 977.561 159.592C977.561 159.364 976.275 158.782 974.731 158.275L971.988 157.39L979.275 157.592C986.647 157.794 998.475 157.288 998.479 156.782C998.479 156.63 994.793 156.402 990.335 156.275C980.991 156.022 979.704 155.795 982.876 155.111V155.086ZM1143.7 155.567C1146.02 154.783 1151.25 154.757 1157.16 155.466C1160.68 155.921 1162.56 155.946 1167.02 155.617C1172.59 155.187 1175.59 155.44 1172.34 156.048C1171.31 156.225 1168.99 156.377 1167.19 156.377C1164.96 156.402 1163.76 156.579 1163.76 156.934C1163.76 157.237 1164.19 157.491 1164.62 157.491C1168.05 157.491 1173.71 159.009 1172.34 159.516C1169.93 160.326 1119.79 160.225 1111.64 159.364C1101.78 158.352 1103.92 158.047 1123.04 157.845C1139.67 157.693 1140.96 157.617 1141.39 156.934C1141.81 156.441 1142.6 155.982 1143.7 155.592V155.567ZM1524.68 158.832C1525.31 158.63 1545.91 158.552 1562 158.598V160.031C1559.27 160.041 1556.21 160.047 1552.8 160.047C1527.25 160.047 1521.42 159.794 1524.68 158.832ZM922.009 158.883C922.01 158.377 929.552 158.883 931.867 159.566C933.496 160.022 933.154 160.073 928.867 159.845C923.038 159.541 922.009 159.389 922.009 158.883ZM790.673 153.795C796.845 153.694 803.446 153.668 805.504 153.744C807.543 153.847 809.608 153.898 811.677 153.896C819.306 153.745 838.165 153.896 841.767 154.149C851.54 154.757 846.739 155.162 827.536 155.415C807.734 155.668 804.476 155.921 807.39 156.934C808.59 157.389 812.019 157.491 825.393 157.491C843.224 157.491 846.139 157.846 837.566 159.061C832.337 159.795 753.038 159.997 721.661 159.339C711.46 159.136 701.601 158.959 699.629 158.959C697.143 158.959 696.286 158.782 696.629 158.377C696.972 157.896 702.287 157.769 740.779 157.643C787.072 157.44 794.445 157.263 794.445 156.377C794.445 155.972 792.901 155.87 786.558 155.972L778.843 156.099L779.186 155.061C779.614 154.023 779.615 154.023 790.673 153.795ZM949.527 158.832C952.185 158.503 959.043 158.554 959.044 158.908C959.044 159.339 955.872 159.668 951.5 159.668C947.899 159.668 946.613 159.161 949.442 158.832H949.527ZM629.16 157.491C632.589 157.339 637.304 157.288 639.619 157.339L651.793 157.668C667.052 158.098 670.224 159.111 657.365 159.516C650.421 159.743 648.62 159.668 644.763 159.035C640.477 158.301 639.791 158.275 632.247 158.781C622.646 159.389 616.216 159.44 616.216 158.934C616.216 158.427 621.616 157.846 629.16 157.491ZM0 151.104C2.65284 151.211 2.84867 151.452 3.08496 152.149C3.59933 153.364 7.45752 153.364 8.05762 152.149C8.40051 151.39 8.83097 151.365 21.0029 151.567C27.8614 151.669 45.5211 151.72 60.0947 151.694L90.2715 151.618C126.877 151.542 154.31 152.428 159.454 153.896L162.283 154.655L167.855 153.693C177.387 152.529 187.991 152.378 197.86 153.264C201.718 153.669 205.662 153.693 218.007 153.415C240.382 152.883 259.071 153.365 259.585 154.479C260.099 155.567 262.586 155.491 270.13 154.226L276.474 153.162L318.995 153.137H364.002L380.548 153.036C395.807 152.91 400.523 153.34 402.237 154.909C403.953 156.529 421.012 157.009 428.47 155.668C434.128 154.655 433.613 154.149 427.27 154.453C421.697 154.732 419.897 154.757 412.438 154.631C393.407 154.352 418.611 152.834 439.271 153.011C455.989 153.163 465.248 154.428 453.417 154.935C444.244 155.314 448.273 156.2 459.847 156.301C470.477 156.427 470.477 156.427 472.191 155.415C474.506 153.998 497.652 153.644 504.511 154.909C509.912 155.896 511.97 155.845 513.685 154.757C514.713 154.074 515.999 153.846 518.828 153.846C522.857 153.846 525 154.706 522.686 155.39C520.371 156.073 521.057 156.276 525 156.099C527.229 155.997 529.63 155.542 531.259 154.884C534.345 153.618 541.975 153.441 547.547 154.504C550.462 155.086 551.834 155.137 556.463 154.808C565.379 154.2 589.553 157.896 582.182 158.731C579.01 159.086 444.844 158.959 436.186 158.579C430.785 158.377 426.755 158.377 423.755 158.63C420.24 158.934 416.811 158.858 407.124 158.275C399.319 157.544 390.943 157.535 383.12 158.25C373.262 158.857 370.518 158.908 365.46 158.554C360.38 158.252 355.165 158.201 350.028 158.402C344.799 158.58 338.369 158.681 335.626 158.63H322.767C313.508 158.681 305.964 158.655 284.446 158.503C268.33 158.402 255.986 157.314 254.099 155.871C253.07 155.061 249.898 155.162 243.64 156.2C238.582 157.036 237.638 157.06 229.666 156.731C223.065 156.453 219.893 156.503 215.521 156.883C208.919 157.516 187.745 157.49 183.973 156.883C180.115 156.25 130.994 157.009 120.362 157.87C116.762 158.123 114.875 158.123 113.761 157.87C112.903 157.642 103.387 157.314 92.5859 157.111C81.7845 156.934 70.4687 156.68 67.4678 156.554C64.3816 156.452 60.3521 156.504 58.5518 156.731C55.9799 157.01 53.665 156.934 48.4355 156.402C43.7206 155.896 39.691 155.77 35.1475 155.896C31.5467 156.023 23.2317 155.82 16.6309 155.517C11.1203 155.258 5.56908 155.083 0 154.993V151.104ZM968.388 155.364C967.959 156.149 968.216 156.706 969.674 157.162C971.56 157.795 971.389 157.82 966.931 157.617C959.645 157.313 959.044 157.212 959.044 156.2C959.044 155.694 958.186 155.187 957.157 155.061C956.215 154.959 955.701 154.706 956.043 154.529C956.386 154.352 959.558 154.2 962.987 154.2H969.245L968.388 155.364ZM1388.2 155.288C1391.89 154.959 1393.43 155.01 1394.03 155.592C1394.37 155.87 1393.17 156.022 1390.94 156.022C1388.89 156.022 1384.69 156.123 1381.6 156.25C1377.66 156.427 1375.86 156.352 1375.86 156.073C1375.86 155.871 1377.91 155.643 1380.48 155.617C1383.09 155.595 1385.68 155.484 1388.2 155.288ZM1105.04 155.339C1106.5 154.681 1110.96 154.833 1110.53 155.542C1110.27 155.871 1109.58 156.199 1108.9 156.275C1106.84 156.453 1104.18 155.769 1105.12 155.339H1105.04ZM593.24 153.846C596.841 153.39 598.212 153.39 602.327 153.896C604.127 154.099 609.185 154.326 613.472 154.352C620.759 154.402 625.131 154.96 623.073 155.567C622.556 155.719 616.814 155.871 610.215 155.896C603.7 155.922 596.584 156.048 594.44 156.175C588.268 156.58 587.239 154.554 593.24 153.846ZM862.856 154.529C862.856 154.074 905.635 154.124 908.55 154.58C915.922 155.719 909.578 156.529 899.634 155.719C892.858 155.215 885.867 155.01 878.888 155.111C865.43 155.187 862.857 155.086 862.856 154.529ZM652.307 154.833C661.908 154.251 690.199 154.023 690.199 154.529C690.194 154.909 671.851 155.668 655.394 155.921C640.82 156.174 639.276 155.643 652.307 154.833ZM759.554 154.631C758.868 154.023 763.24 154.099 766.154 154.731C768.469 155.238 768.469 155.263 766.154 155.517C763.754 155.795 760.325 155.339 759.468 154.631H759.554ZM79.2119 153.111C76.8124 153.111 74.927 153.263 74.9258 153.466C74.9258 153.668 76.8117 153.846 79.2119 153.846C81.5266 153.846 83.499 153.668 83.499 153.466C83.4978 153.263 81.5259 153.111 79.2119 153.111ZM475.535 1.31055C486.508 0.956178 487.537 0.956465 493.023 1.71582C498.424 2.44989 499.025 2.47493 501.683 1.94336C504.34 1.38659 504.855 1.41196 509.998 2.29785C515.485 3.25971 515.485 3.25977 521.314 2.62695C527.058 2.04481 527.315 2.04517 530.744 2.75391C533.83 3.41203 534.859 3.4373 540.688 3.05762C545.832 2.72856 550.204 2.77892 562.978 3.28516C571.722 3.63953 580.296 3.81707 582.182 3.71582C585.782 3.41214 586.296 3.84241 583.896 4.98145C581.067 6.32294 585.096 6.9557 597.955 7.1582C610.814 7.38602 612.529 7.56346 612.529 8.8291C612.529 9.30997 613.044 9.79045 613.729 9.91699C615.444 10.2205 629.756 6.75439 629.761 6.01953C629.761 4.75389 659.251 4.22222 685.398 5.03223L698.429 5.43652L705.116 4.32324L711.803 3.20898L722.519 3.89258C728.434 4.27226 734.434 4.75362 735.721 4.98145C737.264 5.20926 752.953 5.36133 779.271 5.36133C801.818 5.36133 830.022 5.58867 841.853 5.8418C855.741 6.17086 869.029 6.2466 878.888 6.09473C909.235 5.53785 980.903 6.09512 983.305 6.85449C985.962 7.76575 988.02 7.71532 997.965 6.60156C1006.19 5.69035 1006.45 5.69043 1011.08 6.32324C1016.74 7.05728 1016.57 7.51256 1010.74 8.09473C1005.25 8.65161 1005.77 9.08156 1012.28 9.5625C1016.82 9.89152 1017.68 10.0946 1018.02 10.9297L1018.37 11.9424L1030.28 11.8408L1042.29 11.7402L1042.89 10.2715C1043.74 8.32248 1050.17 7.8921 1053 9.58789C1056.17 11.5369 1065.09 11.6639 1065.09 9.76562C1065.09 9.18349 1065.69 8.57578 1066.55 8.42383C1073.4 7.69243 1080.71 7.39937 1087.98 7.56348C1090.12 7.79126 1093.47 7.71464 1098.78 7.33496C1109.84 6.55028 1153.05 6.14598 1213.66 6.29785C1242.2 6.37379 1269.38 6.39836 1274.1 6.37305C1280.67 6.3502 1287.24 6.35871 1293.81 6.39844C1310.56 6.45979 1327.3 6.49386 1344.05 6.5C1380.91 6.5 1383.23 6.55077 1383.91 7.18359C1385.29 8.49981 1418.81 8.90476 1434.92 7.79102C1438.36 7.47574 1441.99 7.38946 1445.55 7.53809C1447.01 7.71526 1452.33 7.71527 1457.3 7.53809C1490.66 6.48809 1536.84 6.63458 1562 7.5V12.377C1527.39 12.2848 1469.33 11.9344 1465.36 11.7148C1462.61 11.5883 1454.13 11.6893 1446.5 11.9424C1434.32 12.3474 1429.61 12.3225 1409.46 11.7656C1376.97 10.8797 1311.82 11.1066 1308.04 12.1191C1304.36 13.081 1305.04 13.4865 1309.93 13.2334C1313.87 13.0056 1314.22 13.0563 1314.22 13.8916C1314.22 14.9546 1317.47 15.3847 1323.39 15.0557C1325.7 14.9291 1329.99 14.9801 1333.08 15.1826C1349.79 16.2964 1403.46 16.0431 1410.66 14.8281C1413.66 14.3219 1415.38 14.3722 1417.78 15.0303C1419.66 15.5112 1422.23 15.5625 1436.64 15.2334C1445.11 15.0286 1453.63 15.0286 1462.1 15.2334C1472.94 15.4683 1483.81 15.5525 1494.67 15.4863C1520.77 15.4019 1542.98 15.3651 1562 15.3809V125.365C1542.49 125.491 1525.63 125.781 1523.82 126.179C1519.88 127.039 1518.68 128.179 1522.11 127.799C1527.25 127.217 1534.54 127.191 1551.26 127.748C1555.79 127.889 1559.27 127.987 1562 128.05V132.882C1559.64 133.251 1558.72 133.669 1560.51 134.025C1565.06 134.962 1563.86 135.089 1550.66 135.089C1533.94 135.114 1516.46 135.848 1516.45 136.557C1516.45 136.987 1518.94 137.063 1530.34 136.987C1537.26 136.952 1547.59 136.935 1562 136.932V139.323C1550.72 138.759 1523.7 138.757 1518.51 139.342C1514.14 139.873 1497.42 139.898 1471.7 139.417C1456.18 139.164 1456.01 139.164 1456.01 139.924C1456.01 140.911 1455.58 140.911 1448.72 139.898C1442.04 138.937 1423.78 138.607 1401.92 139.088L1388.8 139.342L1393.09 139.924C1400.25 140.477 1407.64 140.716 1415.03 140.633C1427.89 140.734 1432.86 140.911 1433.89 141.291C1435.01 141.696 1440.15 141.822 1457.73 141.822C1469.99 141.848 1482.76 141.974 1486.19 142.151C1490.22 142.354 1497.33 142.277 1506.42 141.948C1534.45 140.936 1553.74 140.86 1556.31 141.746C1557.6 142.159 1558.93 142.394 1562 142.468V146.747C1561.65 146.742 1561.3 146.738 1560.94 146.732C1546.11 146.479 1511.99 146.328 1499.13 146.479C1488.5 146.606 1428.66 146.151 1418.38 145.897C1407.75 145.619 1405.43 145.644 1401.75 146.201C1397.8 146.758 1395.14 146.783 1372.25 146.454C1353.14 146.15 1345.68 146.176 1341.31 146.505C1338.13 146.758 1334.19 146.859 1332.56 146.758C1322.36 146.1 1224.54 145.771 1217.69 146.354C1211.86 146.86 1209.8 146.885 1206.2 146.53C1202.26 146.151 1201.48 146.176 1199 146.859C1195.65 147.821 1191.62 147.847 1188.71 146.986C1187.08 146.505 1181.94 146.176 1167.36 145.67L1148.33 144.986L1142.16 145.923C1126.3 148.328 1128.19 148.732 1154.93 148.732C1172.68 148.732 1175.42 148.656 1176.71 148.1C1178.17 147.543 1179.19 147.518 1187.34 147.948C1201.48 148.632 1214.43 148.834 1219.83 148.454C1228.24 148.232 1236.7 148.215 1245.12 148.403C1256.35 148.555 1307.1 148.733 1357.94 148.783C1408.86 148.834 1462.7 149.036 1477.62 149.289C1500.08 149.618 1505.31 149.619 1508.13 149.214C1510.88 148.809 1513.54 148.783 1521.77 149.087C1535.16 149.397 1548.57 149.605 1562 149.716V152.72C1542.67 152.737 1471.59 152.668 1390 152.58L1216.14 152.403L1179.19 152.529C1166.69 152.505 1154.2 152.632 1141.73 152.909C1138.05 153.162 1137.19 153.061 1134.87 152.226L1132.3 151.264L1123.04 151.871C1108.98 152.808 1021.37 152.909 1017.34 151.973C1015.02 151.466 1013.57 151.441 1009.02 151.72C1004.91 151.973 1001.05 151.921 993.421 151.466C983.648 150.884 983.305 150.884 976.275 151.644C969.417 152.403 968.302 152.428 947.127 152.099C929.724 151.82 875.029 151.745 857.884 151.998C854.365 152.049 785.103 152.149 779.614 152.124L688.999 151.871C641.163 151.745 592.298 151.492 580.467 151.314C568.551 151.137 525.429 150.96 484.536 150.935C442.358 150.935 409.009 150.757 407.295 150.58C405.409 150.352 402.751 150.352 400.18 150.58C397.522 150.808 393.75 150.783 388.949 150.505C384.234 150.226 380.891 150.201 379.091 150.454C377.633 150.631 370.089 150.732 362.202 150.631C354.401 150.555 346.343 150.504 344.285 150.555C342.313 150.605 338.97 150.605 336.912 150.605L281.188 150.429C244.497 150.327 227.865 150.15 224.607 149.821C221.264 149.492 218.349 149.467 213.72 149.745C202.832 150.378 166.313 150.099 161.169 149.34C157.311 148.758 156.796 148.758 155.425 149.289C154.225 149.77 152.424 149.821 143.595 149.618C136.394 149.441 132.364 149.518 130.393 149.821C128.421 150.125 126.792 150.125 124.392 149.872C121.048 149.492 71.4969 149.087 8.22949 148.985L0 148.966V144.282C16.676 144.359 56.1214 144.837 57.6084 145.012C58.5514 145.113 82.2125 145.29 109.988 145.366L165.541 145.518C168.199 145.518 177.028 145.34 185.001 145.138C198.117 144.783 200.175 144.809 205.49 145.417C210.72 145.974 213.12 146.024 225.379 145.721C233.094 145.569 242.439 145.467 245.954 145.568C249.555 145.67 254.27 145.619 256.413 145.417C259.585 145.164 262.157 145.264 268.158 145.847C275.102 146.53 276.902 146.556 286.675 146.227C302.145 145.946 317.653 145.895 333.14 146.074C389.974 146.454 436.18 146.479 436.871 146.125C439.614 144.834 431.728 144.278 411.496 144.354C391.78 144.239 372.058 144.239 352.343 144.354C341.798 144.379 330.74 144.252 327.653 144.05C324.567 143.822 304.935 143.67 282.646 143.67C260.956 143.645 241.496 143.518 239.524 143.341C237.466 143.164 215.006 143.088 189.545 143.164C110.846 143.417 73.8112 142.936 41.2344 141.24C34.9379 140.811 28.3865 140.828 22.1172 141.291C14.929 141.699 7.19384 141.956 0 142.073V132.985C2.42118 132.559 4.42162 132.092 3.94238 131.95H3.85645C3.21866 131.771 1.72909 131.621 0 131.517V129.529C1.8683 129.698 4.87951 129.816 9.42969 129.925C14.5731 130.077 20.0593 130.254 21.6025 130.381C23.4886 130.507 24.603 130.381 25.2031 129.95C26.3176 129.09 24.1746 128.786 14.6592 128.533L14.7441 128.508C10.2007 128.381 4.71431 128.178 2.48535 128.077C1.44502 128.017 0.638422 127.993 0 128V123.336C1.94793 123.204 2.22841 122.757 2.22852 121.927C2.22852 120.914 1.71383 120.659 0 120.71V21.4541C12.0775 21.5529 20.8854 21.6743 22.9746 21.7891C26.6614 21.9662 41.9207 22.1436 56.9229 22.1436C71.839 22.1436 86.4979 22.3209 89.585 22.498C93.2713 22.7765 96.1866 22.7512 99.0156 22.498C102.016 22.1943 106.988 22.1944 117.704 22.5234C137.334 23.1056 168.193 23.1309 170.084 22.5488C172.141 21.9666 172.914 22.0169 178.4 23.0547C185.516 24.3708 203.944 24.4215 204.633 23.1309C204.89 22.498 205.662 22.3459 208.062 22.4219C214.321 22.6244 219.807 22.6499 222.894 22.498C225.294 22.3715 225.979 22.4728 226.322 23.1309C226.751 24.1178 228.895 24.1683 236.01 23.3584C246.897 22.1434 238.581 21.0547 218.606 21.0547C211.062 21.0547 200.432 20.8774 195.117 20.7002C189.631 20.4977 175.828 20.2447 164.255 20.1182C152.767 19.9916 136.65 19.815 128.506 19.6885C120.362 19.5872 108.874 19.5109 102.873 19.5615C96.9577 19.5615 85.2128 19.3594 76.8115 19.0557C68.4103 18.7266 59.1519 18.5746 56.1514 18.7012C53.1509 18.8277 42.5205 18.5747 31.7188 18.0938C22.5379 17.7213 10.2632 17.4014 0 17.2549V11.873C11.5293 11.9887 21.6733 12.1496 25.2891 12.2969C30.2612 12.4994 37.0334 12.6514 40.377 12.6514C46.5492 12.6514 47.6642 12.9047 45.0928 13.6641C43.9783 13.9931 44.0636 14.1441 45.6924 14.3213C49.0352 14.7009 51.7782 14.1953 51.0938 13.335C50.5794 12.7781 51.0933 12.5249 52.8076 12.373C56.4938 12.0946 55.5512 11.2338 51.0938 11.0312C43.3782 10.7022 13.7154 10.0693 3.94238 10.0693C2.842 10.0693 1.50324 10.0575 0 10.04V7.95508C13.9008 8.07093 28.7883 8.21734 53.2363 8.47461L109.646 9.20898C131.848 9.53803 151.821 9.6646 154.053 9.53809C156.282 9.43683 160.74 9.48695 163.998 9.68945C167.762 9.98345 171.721 9.98346 175.485 9.68945C179.414 9.363 183.575 9.37185 187.487 9.71484C213.549 11.5627 259.757 11.0567 263.357 8.85449C265.072 7.79148 265.5 7.79088 273.044 8.67676C277.588 9.23364 282.818 8.82892 284.961 7.81641C286.932 6.8546 283.589 6.29803 279.988 6.98145C277.159 7.56361 254.27 7.74052 253.155 7.20898C250.583 5.99397 258.385 5.30996 273.559 5.43652C299.449 5.61371 312.222 3.9945 291.219 3.15918C284.876 2.90609 279.218 2.57662 278.874 2.39941C277.417 1.74128 283.161 1.33605 288.562 1.69043C292.848 1.96885 295.248 1.94398 298.849 1.51367C304.764 0.855549 319.166 1.08321 332.368 2.0957C341.033 2.98677 350.469 2.97773 359.115 2.07031C370.86 1.08311 372.661 1.10854 374.547 2.4248C375.918 3.43727 377.119 3.69011 379.69 3.58887C387.663 3.23449 408.324 2.72809 433.1 2.27246C450.074 1.9434 469.191 1.51305 475.535 1.31055ZM1122.01 146.581C1117.47 145.847 1101.7 145.695 1098.7 146.354C1095.44 147.062 1095.09 147.821 1097.84 148.15C1110.18 149.543 1131.87 148.125 1122.01 146.581ZM806.79 145.594C788.187 145.543 788.616 147.973 807.305 148.53C817.677 148.834 818.534 148.733 818.534 146.961L818.449 146.986V145.645L806.79 145.594ZM699.458 145.821C696.2 144.758 692.943 144.911 688.656 146.354C683.941 147.974 678.797 148.049 667.652 146.707C663.452 146.201 656.079 145.619 651.364 145.441C637.477 144.91 626.333 145.492 627.703 146.707C629.075 147.897 689.855 148.909 706.83 148.023C712.574 147.72 727.577 147.594 750.98 147.619C773.342 147.644 786.371 147.543 786.387 147.315C786.387 146.303 779.699 145.391 774.127 145.645C767.354 145.974 741.297 145.948 739.579 145.645C738.893 145.518 736.578 145.695 734.35 146.024C730.835 146.581 729.205 146.581 720.804 146.201C714.031 145.897 710.517 145.897 708.888 146.15C705.116 146.733 701.944 146.631 699.458 145.821ZM1069.03 146.707C1063.63 146.074 1037.14 146.227 1033.2 146.936C1026.34 148.176 1028.23 148.505 1040.66 148.252C1046.83 148.1 1060.46 147.998 1070.92 147.998C1084.89 147.998 1089.86 147.897 1089.52 147.568C1088.58 146.784 1080.35 146.201 1075.55 146.606C1073.06 146.809 1070.15 146.859 1069.03 146.707ZM939.326 145.847C931.611 145.138 929.467 145.341 929.467 146.783C929.467 147.517 930.41 147.77 933.153 147.72C936.446 147.793 939.733 147.886 943.013 147.998C948.071 148.175 956.129 148.175 960.844 148.023C971.698 147.866 982.573 147.883 993.421 148.074C1018.97 148.454 1023.17 148.302 1023.17 146.91C1023.17 146.05 1023.68 146.075 1015.8 146.581C1010.22 146.935 1009.28 146.885 1006.37 146.201C1002.77 145.366 997.365 145.214 995.05 145.897C992.049 146.758 948.671 146.733 939.326 145.847ZM885.746 145.392C887.289 143.974 872.544 144.1 854.541 145.645C850.683 145.974 846.225 146.126 844.253 145.999C840.31 145.746 824.629 147.087 824.621 147.669C824.621 147.871 836.281 147.973 852.483 147.923C883.002 147.822 883.174 147.822 885.746 145.392ZM480.336 144.581C446.645 143.847 449.816 143.822 445.444 144.885C440.558 146.024 441.501 146.227 454.36 146.606C469.364 147.037 616.456 146.986 617.93 146.53C621.702 145.442 582.525 144.049 570.522 144.859C564.436 145.264 561.006 145.316 558.777 145.062C557.063 144.885 552.69 144.809 549.09 144.936C545.489 145.062 535.974 144.987 528.001 144.733C516.513 144.379 512.912 144.379 510.598 144.733C508.368 145.088 502.367 145.087 480.336 144.581ZM898.005 145.821C897.846 145.821 897.694 145.84 897.581 145.873C897.469 145.906 897.405 145.952 897.405 145.999C897.405 146.022 897.42 146.045 897.45 146.066C897.48 146.088 897.525 146.108 897.581 146.124C897.637 146.14 897.703 146.153 897.775 146.162C897.848 146.171 897.926 146.176 898.005 146.176C898.084 146.176 898.162 146.171 898.234 146.162C898.307 146.153 898.374 146.14 898.43 146.124C898.485 146.108 898.529 146.088 898.56 146.066C898.589 146.045 898.605 146.022 898.605 145.999C898.605 145.952 898.542 145.906 898.43 145.873C898.317 145.84 898.164 145.821 898.005 145.821ZM1521.34 144.151C1521.34 143.519 1518.17 143.442 1516.96 144.024C1515.94 144.531 1518.34 145.239 1520.05 144.91C1520.44 144.819 1520.75 144.703 1520.98 144.572C1521.2 144.441 1521.32 144.298 1521.34 144.151ZM1218.37 139.139C1217.17 138.734 1213.23 138.835 1212.37 139.291C1211.94 139.494 1212.11 139.847 1212.97 140.075C1215.11 140.733 1214.51 141.062 1211.26 141.062C1209.54 141.063 1208.17 141.24 1208.17 141.468C1208.17 141.67 1209.89 141.797 1212.11 141.721C1214.77 141.67 1216.06 141.442 1215.8 141.113C1215.63 140.835 1216.32 140.329 1217.34 140C1218.46 139.646 1218.89 139.265 1218.46 139.139H1218.37ZM103.73 138.506C102.957 138.101 93.0143 138.026 91.7285 138.405C90.4428 138.76 90.7856 140.278 92.1572 140.531C93.8718 140.835 104.674 138.936 103.816 138.506H103.73ZM164.855 137.215C164.853 136.962 162.024 137.114 159.025 137.544C156.197 137.974 155.082 139.265 157.653 139.266C158.939 139.266 164.94 137.595 164.94 137.24L164.855 137.215ZM6.08594 135.595C3.343 135.595 2.05699 135.899 2.05664 136.607C2.05664 137.341 7.54325 137.012 8.05762 136.228C8.31426 135.797 7.71428 135.595 6.08594 135.595ZM1486.62 132.583C1487.3 131.444 1486.87 131.444 1480.44 132.203C1474.79 132.912 1474.7 133.215 1479.84 134.025L1483.87 134.658L1478.9 134.938C1474.6 135.155 1470.29 135.341 1465.96 135.494C1460.13 135.697 1457.98 135.924 1457.98 136.329C1457.98 136.911 1488.07 137.215 1494.59 136.658C1496.39 136.532 1500.16 136.557 1502.99 136.785C1508.99 137.241 1512.59 136.633 1508.73 135.798C1505.56 135.089 1505.99 134.987 1515.59 134.329C1531.45 133.19 1528.97 132.305 1510.11 132.305C1497.08 132.305 1495.36 132.659 1500.08 134.203C1503.08 135.165 1501.7 135.317 1492.53 135.038C1485.59 134.81 1484.47 134.684 1485.16 134.178C1485.81 133.66 1486.3 133.126 1486.62 132.583ZM192.717 130.128C179.858 130.128 178.657 131.393 191.174 131.672C198.889 131.849 201.976 131.545 201.976 130.634C201.975 130.254 199.746 130.128 192.717 130.128ZM125.248 130.179C125.848 129.065 122.077 129.166 120.362 130.305C119.591 130.811 119.333 131.342 119.848 131.469C121.219 131.899 124.818 131.039 125.248 130.179ZM169.827 130.026C165.198 129.242 163.226 129.241 161.254 129.95C158.425 130.963 160.74 131.57 167.427 131.57C174.628 131.57 175.571 131.014 169.827 130.052V130.026ZM148.652 130.052C148.052 129.47 145.652 129.267 144.623 129.748C144.194 129.951 142.565 130.128 140.937 130.128C137.508 130.128 135.793 130.761 137.679 131.317C138.622 131.596 139.822 131.596 141.794 131.317C143.337 131.09 145.652 130.811 146.938 130.71C148.138 130.583 148.909 130.305 148.652 130.052ZM108.874 130.128C108.874 129.571 99.5297 128.963 97.3008 129.368C95.0721 129.798 94.4719 131.216 96.4434 131.444C99.3577 131.773 108.871 130.761 108.874 130.128ZM85.8994 129.064C81.0986 128.584 81.6984 128.584 80.1553 129.115C75.2688 130.938 77.7552 131.646 85.4707 130.685C90.7855 130.026 90.8712 129.571 85.8994 129.064ZM49.5498 121.192C41.663 120.155 36.9476 120.028 33.5186 120.787C28.8899 121.825 33.9479 122.635 46.0352 122.787C58.5515 122.939 59.4943 122.483 49.5498 121.192ZM28.1123 121.688C27.8551 121.343 16.5317 121.247 15.3447 121.598C13.8874 122.028 15.8588 122.458 19.2021 122.458C23.773 122.433 28.006 122.086 28.1123 121.688C28.1152 121.691 28.1181 121.694 28.1182 121.698V121.673C28.1182 121.678 28.1137 121.682 28.1123 121.688ZM13.2871 117.699C13.2871 116.459 11.4005 116.332 7.45703 117.345C3.77119 118.231 3.94282 118.686 8.05762 118.914C12.4296 119.167 13.287 118.965 13.2871 117.699ZM1522.45 112.763C1520.48 111.497 1518.16 111.421 1513.88 112.561L1510.02 113.573L1515.16 114.788C1519.96 115.902 1520.82 115.978 1526.48 115.75C1538.23 115.294 1539.43 114.737 1530 114.054C1525.45 113.75 1523.31 113.37 1522.45 112.763ZM284.189 17.5615C279.732 17.2325 279.56 18.0174 283.846 19.207C286.675 19.9664 287.447 20.042 292.419 19.7129C296.23 19.4619 300.181 19.4619 303.992 19.7129C310.508 20.0926 327.653 19.46 327.653 18.8271C327.654 18.3718 329.878 18.4734 307.336 18.1191C296.449 17.942 286.077 17.6881 284.189 17.5615ZM267.558 17.8145C258.813 17.7132 257.271 18.2198 264.472 18.8779C270.301 19.3842 275.273 19.2067 275.273 18.4727C275.272 18.0679 273.385 17.9157 267.558 17.8145ZM225.208 17.4102C216.549 16.8786 211.662 16.929 207.719 17.6631C201.375 18.8274 203.347 19.2834 213.892 19.0303C233.095 18.6 236.353 18.1189 225.208 17.4102ZM174.542 17.5361C173.941 16.6505 171.284 16.5491 166.998 17.2324C162.455 17.9665 162.798 18.3974 168.027 18.7012C172.914 18.9796 175.228 18.5486 174.542 17.5361ZM1351.85 17.0303C1343.71 17.0303 1343.36 17.2078 1350.14 18.0938C1355.88 18.8784 1358.54 18.7262 1358.54 17.7139C1358.54 17.1317 1357.6 17.0303 1351.85 17.0303ZM375.146 14.8789C374.202 14.3728 363.402 14.3219 363.402 14.8281C363.404 15.3597 373.346 16.0679 374.804 15.6377C375.49 15.4352 375.661 15.0814 375.146 14.8789ZM353.2 14.3213C345.14 13.8404 263.88 13.6382 262.843 14.0938C261.128 14.9797 265.243 15.6123 270.559 15.2832C276.05 15.0723 281.612 15.0723 287.104 15.2832C320.881 16.321 373.604 15.5363 353.2 14.3213ZM74.4971 10.9551C66.4388 10.7779 64.8958 10.8541 64.21 11.3604C62.924 12.2969 64.6385 12.4736 75.7832 12.4736C86.9278 12.4736 89.5852 12.8786 84.0986 13.7393C80.4982 14.3214 80.6696 14.9546 84.4414 15.1318C88.0416 15.309 93.3564 14.1701 93.3574 13.2842C93.3574 12.3476 100.816 12.6008 104.674 13.6133C106.645 14.1448 107.503 14.1698 109.475 13.8154L114.275 12.9297C116.247 12.5753 118.047 12.6261 124.22 13.2842C129.792 13.8916 132.364 13.9923 134.078 13.7393C135.793 13.4608 137.164 13.5882 140.079 14.2969C144.451 15.4106 148.567 15.2335 154.739 13.6641C162.198 11.8163 160.14 11.7148 111.875 11.3857V11.3604C96.6153 11.2591 79.8122 11.0816 74.4971 10.9551ZM171.37 12.1953C164.941 11.1323 163.484 11.3348 163.912 13.1064C164.255 14.5239 164.512 14.651 167.341 14.5498C169.055 14.4992 175.657 14.4737 182.172 14.499C188.516 14.5496 197.946 14.5498 203.09 14.5498C216.464 14.5443 229.838 14.5698 243.211 14.626C255.897 14.6513 256.756 14.6002 256.756 13.917C256.756 13.2082 255.727 13.183 216.035 13.0059C180.372 12.854 174.799 12.7522 171.37 12.1953ZM1172.76 12.6768C1164.28 12.1958 1161.28 12.1705 1158.45 12.6768C1152.79 13.6386 1159.13 14.246 1171.31 13.8916C1181.59 13.5879 1182.02 13.259 1172.76 12.7021V12.6768ZM983.905 11.79C980.905 10.98 977.818 11.031 976.875 11.917C975.761 12.9801 977.133 13.3848 981.934 13.3848C986.734 13.3847 987.506 12.7519 983.905 11.79ZM351.829 7.56348C349.343 6.77878 345.999 6.67734 338.798 7.18359C336.397 7.36076 331.683 7.41169 328.254 7.28516C323.367 7.13328 320.709 7.28456 314.794 8.04395C305.535 9.28425 306.564 9.56325 322.681 10.1201C331.768 10.4492 336.398 10.7524 338.112 11.208C340.684 11.8661 358.516 12.8536 362.974 12.5752C364.688 12.4486 364.002 12.2461 360.059 11.6133C347.628 9.71484 357.916 9.28476 407.381 9.79102C445.873 10.1454 477.25 9.96778 480.679 9.33496C485.307 8.49964 371.632 7.30996 358.43 8.06934C354.915 8.27181 353.629 8.17092 351.743 7.56348H351.829ZM581.066 8.27246C575.751 6.80437 556.205 6.82884 543.175 8.32227C535.631 9.1829 531.087 10.0694 533.916 10.0947C534.087 10.0947 542.06 10.4742 551.576 10.9805C578.581 12.322 591.44 11.1581 581.066 8.27246ZM777.128 9.36035C776.013 8.80347 772.841 8.93058 772.069 9.53809C771.213 10.2215 772.242 11.1826 773.956 11.1826C775.671 11.1825 777.985 9.79066 777.128 9.36035ZM1000.11 8.77832C999.25 8.09496 990.593 8.12038 988.706 8.80371C986.477 9.58841 988.277 10.0947 993.421 10.0947C998.393 10.0947 1001.14 9.5377 1000.11 8.77832ZM858.57 9.18359C858.57 8.44952 855.569 7.99374 853.854 8.5C851.712 9.13283 852.998 10.1451 855.741 10.0186C857.541 9.94261 858.57 9.6643 858.57 9.18359ZM308.879 5.5127C306.993 5.3102 305.107 5.81692 303.821 6.90527C303.307 7.33558 301.763 7.53807 298.935 7.53809C294.391 7.53809 291.733 8.09511 292.762 8.85449C293.876 9.76568 302.621 9.48708 304.85 8.47461C305.964 7.99367 308.45 7.41133 310.422 7.1582C314.194 6.72789 315.48 5.71582 312.308 5.71582C311.45 5.71579 309.736 5.61393 308.879 5.5127ZM716.689 7.96777C710.26 7.10721 688.745 7.41135 689.256 8.37305C689.599 9.15774 690.114 9.18293 704.688 9.28418C720.375 9.38542 724.147 8.98025 716.689 7.96777ZM146.681 5.18359C150.881 4.32312 162.366 4.95586 162.369 6.06934C162.369 7.23372 142.309 7.94284 140.251 6.8291C139.308 6.29754 137.679 6.06934 134.679 6.06934C132.279 6.06934 130.394 5.91801 130.393 5.66504C130.393 5.3866 132.45 5.33551 137.079 5.5127C142.308 5.68988 144.537 5.63922 146.681 5.18359ZM188.859 0.957031C190.147 0.37494 212.349 0.576598 233.438 1.33594L253.327 2.07031C253.498 2.07056 253.67 2.24784 253.67 2.4502C253.669 2.72851 251.44 2.77871 246.897 2.60156C239.182 2.32312 236.61 3.23487 243.896 3.71582C248.611 4.01957 248.012 4.60179 241.754 5.61426C233.438 6.98115 219.978 7.66489 214.577 6.98145C211.062 6.55116 207.633 6.47525 199.232 6.67773C193.231 6.8043 188.345 6.85418 188.345 6.75293C188.347 6.67538 189.375 5.94199 190.745 5.18359C193.917 3.33584 193.917 2.22206 190.659 1.71582C189.374 1.46281 188.603 1.13427 188.944 0.957031H188.859ZM176.171 5.36133C180.715 5.36133 180.715 6.55043 176.171 6.75293C172.828 6.87946 170.342 6.34773 171.628 5.74023C172.058 5.53784 174.114 5.36134 176.171 5.36133ZM337.255 4.37402C334.512 3.5894 317.797 3.18424 317.88 3.94336C317.966 4.85458 324.995 6.17111 328.682 5.96875C336.74 5.48781 339.312 5.00684 337.255 4.37402ZM89.6709 4.29785C94.9857 3.33603 97.0437 3.31069 97.0439 4.24707C97.0439 6.01896 73.811 6.5258 71.582 4.75391C70.2963 3.8427 72.1826 3.74139 78.8691 4.4248C85.2987 5.05761 85.3847 5.0572 89.6709 4.29785ZM230.951 2.22266C228.636 1.71647 224.436 1.61431 220.149 1.94336C218.949 2.04469 217.921 2.55158 217.664 3.1084C217.321 3.99427 216.721 4.0952 211.234 4.24707C205.148 4.44957 202.404 5.15847 206.091 5.56348C212.607 6.32267 235.495 3.23514 230.951 2.22266ZM48.9502 4.39941C48.9502 3.79191 52.1223 3.74097 57.4375 4.29785C61.4665 4.70289 63.0948 5.91793 59.1514 5.58887L52.9795 5.1582C50.6655 5.03168 48.9512 4.70309 48.9502 4.39941ZM7.0293 3.51367C7.0293 3.05805 9.00058 3.08248 14.7441 3.53809C20.6593 4.04433 21.174 5.08293 15.3447 4.75391C10.3742 4.47556 7.03166 3.96918 7.0293 3.51367ZM113.075 0.197266C113.075 -0.0305488 115.39 -0.0561723 118.99 0.0957031C125.762 0.374128 127.22 0.576487 125.849 0.981445C124.477 1.38644 113.076 0.652899 113.075 0.197266Z" fill="#201818"/>
</svg>
