<svg width="1563" height="64" viewBox="0 0 1563 64" fill="none" xmlns="http://www.w3.org/2000/svg">
<path d="M478.106 63.3438C481.106 63.0771 486.763 63.1307 486.766 63.4238C486.765 63.7438 474.335 64.1837 472.62 63.917C472.02 63.8237 472.449 63.7034 473.82 63.6367C475.192 63.5701 477.078 63.4371 478.106 63.3438ZM1202.08 61.0234C1208.26 59.8768 1208.17 59.8767 1216.92 60.9434L1223.94 61.8105H1324.85C1405.94 61.7972 1426.18 61.7576 1427.89 61.5576C1429.69 61.3443 1431.41 61.3702 1438.35 61.7568C1446.24 62.1835 1448.21 62.2106 1469.21 62.1572C1493.05 62.1039 1496.56 62.2372 1486.53 62.8105C1481.39 63.1039 1477.96 63.1167 1450.27 62.9434C1427.89 62.7967 1415.89 62.8107 1405.69 62.9707C1395.06 63.1307 1385.63 63.1307 1366.77 62.9707C1348.17 62.7974 1331.96 62.7967 1302.3 62.9434C1244.52 63.25 1190.85 63.2236 1187.94 62.877C1184.85 62.5036 1186.22 62.2502 1192.05 62.1035C1196 61.9968 1198.05 61.7704 1202.08 61.0371V61.0234ZM982.876 60.3574C984.762 60.1574 989.906 60.1303 1008.25 60.2236C1030.03 60.3303 1034.49 60.3307 1045.97 60.2773C1052.75 60.2716 1059.52 60.2849 1066.29 60.3174L1081.72 60.3838L1081.29 60.917C1081.19 61.2679 1081.76 61.6158 1082.92 61.917C1086.35 62.757 1035.52 63.4239 1030.37 62.624C1026.51 62.0374 1031.57 61.8374 1045.97 62.0107C1070.92 62.3174 1073.41 62.2107 1063.12 61.2773C1054.72 60.4907 1015.97 60.8238 1019.31 61.6504C1021.63 62.2504 1020.51 62.3035 999.336 62.7568C980.219 63.1568 977.561 63.1571 977.561 62.7305C977.559 62.6103 976.274 62.3036 974.731 62.0371L971.988 61.5703L979.275 61.6768C986.648 61.7834 998.479 61.5167 998.479 61.25C998.457 61.17 994.78 61.0499 990.335 60.9834C980.991 60.8501 979.704 60.7301 982.876 60.3701V60.3574ZM1143.7 60.6104C1146.02 60.1971 1151.25 60.1833 1157.16 60.5566C1160.68 60.7966 1162.56 60.81 1167.02 60.6367C1172.59 60.4101 1175.59 60.5443 1172.34 60.8643C1171.31 60.9576 1168.99 61.0371 1167.19 61.0371C1164.97 61.0504 1163.77 61.1438 1163.76 61.3301C1163.76 61.49 1164.19 61.6239 1164.62 61.624C1168.05 61.624 1173.71 62.4238 1172.34 62.6904C1169.93 63.1171 1119.79 63.0637 1111.64 62.6104C1101.78 62.077 1103.92 61.9172 1123.04 61.8105C1139.67 61.7305 1140.96 61.6901 1141.39 61.3301C1141.81 61.0705 1142.6 60.8296 1143.7 60.624V60.6104ZM1562 62.208V62.9619C1559.27 62.9673 1556.21 62.9707 1552.8 62.9707C1527.25 62.9707 1521.42 62.8367 1524.68 62.3301C1525.31 62.2238 1545.91 62.184 1562 62.208ZM922.009 62.3574C922.013 62.0911 929.552 62.3569 931.867 62.7168C933.496 62.9568 933.154 62.9843 928.867 62.8643C923.04 62.7043 922.01 62.6239 922.009 62.3574ZM790.673 59.6768C796.845 59.6234 803.446 59.6104 805.504 59.6504C807.543 59.7046 809.608 59.7314 811.677 59.7305C819.306 59.6505 838.165 59.7309 841.767 59.8643C851.54 60.1843 846.739 60.3969 827.536 60.5303C807.734 60.6636 804.476 60.7968 807.39 61.3301C808.59 61.5701 812.019 61.624 825.393 61.624C843.224 61.624 846.139 61.8102 837.566 62.4502C832.337 62.8369 753.038 62.9433 721.661 62.5967C711.46 62.49 701.601 62.3975 699.629 62.3975C697.143 62.3975 696.286 62.3041 696.629 62.0908C696.973 61.8375 702.291 61.7708 740.779 61.7041C787.072 61.5974 794.445 61.5038 794.445 61.0371C794.444 60.824 792.899 60.7709 786.558 60.8242L778.843 60.8906L779.186 60.3438C779.614 59.7974 779.616 59.7967 790.673 59.6768ZM949.527 62.3301C952.182 62.1569 959.03 62.1839 959.044 62.3701C959.044 62.5968 955.872 62.7705 951.5 62.7705C947.899 62.7705 946.613 62.5034 949.442 62.3301H949.527ZM639.619 61.5439L651.793 61.7168C667.052 61.9435 670.224 62.4771 657.365 62.6904C650.421 62.8104 648.62 62.7708 644.763 62.4375C640.477 62.0509 639.791 62.0371 632.247 62.3037C622.645 62.6237 616.216 62.6505 616.216 62.3838C616.219 62.1172 621.618 61.8106 629.16 61.624C632.589 61.544 637.304 61.5173 639.619 61.5439ZM0 58.2617C2.65269 58.3182 2.84868 58.4431 3.08496 58.8105C3.59932 59.4505 7.45737 59.4505 8.05762 58.8105C8.40051 58.4107 8.83073 58.3972 21.0029 58.5039C27.8614 58.5572 45.5211 58.5836 60.0947 58.5703L90.2715 58.5303C126.877 58.4903 154.31 58.9571 159.454 59.7305L162.283 60.1309L167.855 59.624C177.387 59.0108 187.991 58.9308 197.86 59.3975C201.718 59.6108 205.662 59.6242 218.007 59.4775C240.38 59.1976 259.068 59.4505 259.585 60.0371C260.099 60.6104 262.586 60.57 270.13 59.9033L276.474 59.3438L318.995 59.3301H364.002L380.548 59.2773C395.807 59.2107 400.523 59.437 402.237 60.2637C403.952 61.117 421.011 61.3707 428.47 60.6641C434.128 60.1307 433.613 59.8634 427.27 60.0234C421.697 60.1701 419.897 60.1839 412.438 60.1172C393.407 59.9705 418.611 59.1704 439.271 59.2637C455.989 59.3437 465.248 60.0107 453.417 60.2773C444.244 60.4773 448.273 60.9437 459.847 60.9971C470.477 61.0637 470.477 61.0636 472.191 60.5303C474.506 59.7836 497.652 59.5971 504.511 60.2637C509.912 60.7837 511.97 60.7569 513.685 60.1836C514.713 59.8237 516 59.7041 518.828 59.7041C522.857 59.7041 525 60.1576 522.686 60.5176C520.371 60.8776 521.057 60.9839 525 60.8906C527.229 60.8373 529.63 60.5967 531.259 60.25C534.345 59.5834 541.975 59.4908 547.547 60.0508C550.462 60.3574 551.834 60.3843 556.463 60.2109C565.379 59.891 589.553 61.8373 582.182 62.2773C579.01 62.464 444.844 62.3973 436.186 62.1973C430.785 62.0906 426.755 62.0903 423.755 62.2236C420.24 62.3836 416.811 62.3438 407.124 62.0371C399.319 61.6518 390.943 61.6468 383.12 62.0234C373.262 62.3434 370.518 62.3702 365.46 62.1836C360.38 62.0245 355.165 61.9974 350.028 62.1035C344.799 62.1968 338.369 62.2503 335.626 62.2236H322.767C313.508 62.2503 305.964 62.2372 284.446 62.1572C268.33 62.1039 255.986 61.5305 254.099 60.7705C253.07 60.3439 249.897 60.3967 243.64 60.9434C238.582 61.3834 237.638 61.397 229.666 61.2236C223.065 61.077 219.893 61.1037 215.521 61.3037C208.92 61.637 187.745 61.6237 183.973 61.3037C180.115 60.9704 130.993 61.3709 120.362 61.8242C116.762 61.9576 114.875 61.9576 113.761 61.8242C112.903 61.7042 103.388 61.5305 92.5859 61.4238C81.7846 61.3305 70.4688 61.1975 67.4678 61.1309C64.3816 61.0775 60.3521 61.1036 58.5518 61.2236C55.9799 61.3703 53.665 61.3308 48.4355 61.0508C43.7206 60.7841 39.691 60.7175 35.1475 60.7842C31.5467 60.8508 23.2317 60.744 16.6309 60.584C11.1203 60.4478 5.56907 60.3561 0 60.3086V58.2617ZM968.388 60.5039C967.959 60.9171 968.217 61.2102 969.674 61.4502C971.56 61.7835 971.389 61.7971 966.931 61.6904C959.644 61.5304 959.044 61.4767 959.044 60.9434C959.043 60.6769 958.185 60.4104 957.157 60.3438C956.215 60.2904 955.7 60.1568 956.043 60.0635C956.386 59.9701 959.558 59.8906 962.987 59.8906H969.245L968.388 60.5039ZM1388.2 60.4639C1391.89 60.2905 1393.43 60.3174 1394.03 60.624C1394.37 60.7706 1393.17 60.8506 1390.94 60.8506C1388.89 60.8506 1384.69 60.904 1381.6 60.9707C1377.66 61.064 1375.86 61.0236 1375.86 60.877C1375.86 60.7704 1377.92 60.65 1380.48 60.6367C1383.09 60.6249 1385.68 60.5672 1388.2 60.4639ZM1105.04 60.4902C1106.5 60.1437 1110.95 60.2238 1110.53 60.5967C1110.27 60.77 1109.58 60.9433 1108.9 60.9834C1106.84 61.0767 1104.18 60.7169 1105.12 60.4902H1105.04ZM593.24 59.7041C596.841 59.4641 598.212 59.4638 602.327 59.7305C604.127 59.8371 609.185 59.9574 613.472 59.9707C620.759 59.9974 625.131 60.2904 623.073 60.6104C622.556 60.6903 616.814 60.7708 610.215 60.7842C603.7 60.7975 596.584 60.864 594.44 60.9307C588.268 61.144 587.239 60.0774 593.24 59.7041ZM862.856 60.0635C862.919 59.824 905.637 59.851 908.55 60.0908C915.922 60.6908 909.578 61.1171 899.634 60.6904C892.858 60.4252 885.867 60.317 878.888 60.3701C865.428 60.4101 862.856 60.3568 862.856 60.0635ZM652.307 60.2236C661.902 59.9172 690.163 59.7975 690.199 60.0635C690.199 60.2635 671.853 60.6635 655.394 60.7969C640.82 60.9302 639.276 60.6503 652.307 60.2236ZM759.554 60.1172C758.868 59.7972 763.24 59.8376 766.154 60.1709C768.469 60.4376 768.469 60.4507 766.154 60.584C763.754 60.7306 760.325 60.4905 759.468 60.1172H759.554ZM79.2119 59.3174C76.8133 59.3174 74.9283 59.3973 74.9258 59.5039C74.9271 59.6105 76.8125 59.7041 79.2119 59.7041C81.5258 59.7041 83.4977 59.6105 83.499 59.5039C83.4964 59.3973 81.5251 59.3174 79.2119 59.3174ZM1562 44.7021C1542.49 44.7686 1525.63 44.9204 1523.82 45.1299C1519.88 45.5832 1518.68 46.1834 1522.11 45.9834C1527.25 45.6767 1534.54 45.6637 1551.26 45.957C1555.79 46.0311 1559.27 46.0822 1562 46.1152V48.665C1559.64 48.8592 1558.72 49.0762 1560.51 49.2637C1565.06 49.757 1563.86 49.8232 1550.66 49.8232C1533.95 49.8366 1516.47 50.2235 1516.45 50.5967C1516.45 50.8233 1518.94 50.8642 1530.34 50.8242C1537.26 50.8059 1547.59 50.7964 1562 50.7949V52.0557C1550.72 51.7583 1523.7 51.7556 1518.51 52.0635C1514.14 52.3435 1497.42 52.3568 1471.7 52.1035C1456.19 51.9702 1456.01 51.9706 1456.01 52.3701C1456.01 52.8901 1455.58 52.8908 1448.72 52.3574C1442.04 51.8508 1423.78 51.6773 1401.92 51.9307L1388.8 52.0635L1393.09 52.3701C1400.25 52.6613 1407.64 52.7877 1415.03 52.7441C1427.89 52.7975 1432.86 52.8908 1433.89 53.0908C1435.01 53.3041 1440.15 53.3701 1457.73 53.3701C1469.99 53.3835 1482.76 53.4506 1486.19 53.5439C1490.22 53.6506 1497.33 53.6108 1506.42 53.4375C1534.45 52.9042 1553.74 52.8634 1556.31 53.3301C1557.6 53.5475 1558.93 53.671 1562 53.71V55.9648C1561.65 55.962 1561.3 55.9601 1560.94 55.957C1546.11 55.8237 1511.99 55.7442 1499.13 55.8242C1488.5 55.8909 1428.66 55.6509 1418.38 55.5176C1407.75 55.3709 1405.43 55.3834 1401.75 55.6768C1397.8 55.9701 1395.14 55.9839 1372.25 55.8105C1353.14 55.6505 1345.68 55.6636 1341.31 55.8369C1338.13 55.9702 1334.19 56.024 1332.56 55.9707C1322.36 55.624 1224.55 55.4502 1217.69 55.7568C1211.86 56.0235 1209.8 56.0372 1206.2 55.8506C1202.26 55.6506 1201.48 55.6635 1199 56.0234C1195.65 56.5301 1191.62 56.5442 1188.71 56.0908C1187.08 55.8375 1181.94 55.6641 1167.36 55.3975L1148.33 55.0371L1142.16 55.5303C1126.3 56.7969 1128.19 57.0107 1154.93 57.0107C1172.68 57.0107 1175.42 56.9701 1176.71 56.6768C1178.17 56.3834 1179.19 56.37 1187.34 56.5967C1201.48 56.9567 1214.43 57.0643 1219.83 56.8643C1228.24 56.7473 1236.7 56.7377 1245.12 56.8369C1256.35 56.9169 1307.1 57.0104 1357.94 57.0371C1408.86 57.0638 1462.7 57.1704 1477.62 57.3037C1500.08 57.477 1505.31 57.477 1508.13 57.2637C1510.88 57.0504 1513.54 57.0373 1521.77 57.1973C1535.16 57.3605 1548.57 57.4672 1562 57.5254V59.1104C1542.67 59.1195 1471.59 59.0836 1390 59.0371L1216.14 58.9434L1179.19 59.0107C1166.69 58.9978 1154.2 59.0647 1141.73 59.2109C1138.05 59.3443 1137.19 59.2905 1134.87 58.8506L1132.3 58.3438L1123.04 58.6641C1108.98 59.1574 1021.37 59.2101 1017.34 58.7168C1015.02 58.4501 1013.57 58.4373 1009.02 58.584C1004.91 58.7173 1001.05 58.6902 993.421 58.4502C984.869 58.1819 983.538 58.1483 978.629 58.4121L973.922 58.6758C968.825 58.9439 965.655 58.9358 947.127 58.7842C929.724 58.6375 875.029 58.5971 857.884 58.7305C854.365 58.7571 785.103 58.8102 779.614 58.7969L688.999 58.6641C641.163 58.5974 592.298 58.4635 580.467 58.3701C568.551 58.2768 525.429 58.1842 484.536 58.1709C442.358 58.1709 409.009 58.0767 407.295 57.9834C405.409 57.8634 402.751 57.8634 400.18 57.9834C397.522 58.1034 393.75 58.09 388.949 57.9434C384.235 57.7967 380.891 57.7837 379.091 57.917C377.633 58.0103 370.089 58.0641 362.202 58.0107C354.401 57.9707 346.343 57.944 344.285 57.9707C342.313 57.9974 338.97 57.9971 336.912 57.9971L281.188 57.9033C244.497 57.85 227.865 57.7573 224.607 57.584C221.264 57.4107 218.349 57.3973 213.72 57.5439C202.832 57.8773 166.313 57.7301 161.169 57.3301C157.311 57.0234 156.796 57.0237 155.425 57.3037C154.225 57.557 152.424 57.5842 143.595 57.4775C136.394 57.3842 132.364 57.424 130.393 57.584C128.421 57.744 126.792 57.7437 124.392 57.6104C121.048 57.4104 71.4968 57.1969 8.22949 57.1436L0 57.1328V54.666C16.676 54.7065 56.1212 54.9585 57.6084 55.0508C58.5514 55.1041 82.2125 55.1973 109.988 55.2373L165.541 55.3174C168.199 55.3174 177.028 55.2239 185.001 55.1172C198.117 54.9305 200.175 54.9437 205.49 55.2637C210.72 55.557 213.12 55.5838 225.379 55.4238C233.094 55.3438 242.439 55.2904 245.954 55.3438C249.555 55.3971 254.27 55.3703 256.413 55.2637C259.585 55.1303 262.157 55.1836 268.158 55.4902C275.102 55.8502 276.902 55.8638 286.675 55.6904C302.145 55.5426 317.653 55.5158 333.14 55.6104C389.972 55.8103 436.177 55.8233 436.871 55.6367C439.614 54.9567 431.728 54.6641 411.496 54.7041C391.78 54.6438 372.058 54.6438 352.343 54.7041C341.798 54.7174 330.74 54.6506 327.653 54.5439C324.567 54.4239 304.935 54.3438 282.646 54.3438C260.956 54.3304 241.496 54.2642 239.524 54.1709C237.467 54.0776 215.006 54.0371 189.545 54.0771C110.846 54.2105 73.8112 53.9568 41.2344 53.0635C34.9379 52.8373 28.3865 52.8471 22.1172 53.0908C14.929 53.3056 7.19385 53.44 0 53.502V48.7148C2.4212 48.4902 4.42162 48.2445 3.94238 48.1699H3.85645C3.21859 48.0753 1.72897 47.9983 0 47.9434V46.8945C1.86831 46.9833 4.87956 47.0464 9.42969 47.1035C14.5731 47.1835 20.0592 47.2771 21.6025 47.3438C23.4883 47.4104 24.603 47.3438 25.2031 47.1172C26.3174 46.6639 24.1744 46.5034 14.6592 46.3701L14.7441 46.3574C10.2006 46.2908 4.7143 46.1832 2.48535 46.1299C1.44504 46.0984 0.638415 46.085 0 46.0889V43.6309C1.94786 43.5611 2.2284 43.3281 2.22852 42.8906C2.22838 42.3576 1.71362 42.2224 0 42.249V0H1562V44.7021ZM1122.01 55.877C1117.47 55.4903 1101.7 55.4102 1098.7 55.7568C1095.44 56.1302 1095.09 56.5308 1097.84 56.7041C1110.18 57.4374 1131.87 56.6903 1122.01 55.877ZM806.79 55.3574C788.187 55.3308 788.616 56.61 807.305 56.9033C817.677 57.0633 818.534 57.0104 818.534 56.0771L818.449 56.0908V55.3838L806.79 55.3574ZM699.458 55.4775C696.2 54.9176 692.942 54.9969 688.656 55.7568C683.941 56.6102 678.797 56.65 667.652 55.9434C663.452 55.6767 656.079 55.3707 651.364 55.2773C637.477 54.9974 626.332 55.3034 627.703 55.9434C629.075 56.57 689.855 57.1034 706.83 56.6367C712.574 56.4767 727.577 56.4105 750.98 56.4238C773.356 56.4372 786.387 56.3837 786.387 56.2637C786.384 55.7305 779.698 55.2505 774.127 55.3838C767.354 55.5571 741.297 55.5438 739.579 55.3838C738.893 55.3171 736.578 55.4107 734.35 55.584C730.835 55.8773 729.205 55.8768 720.804 55.6768C714.031 55.5168 710.517 55.5171 708.888 55.6504C705.116 55.957 701.944 55.9042 699.458 55.4775ZM1069.03 55.9434C1063.63 55.61 1037.14 55.6902 1033.2 56.0635C1026.34 56.7168 1028.23 56.8902 1040.66 56.7568C1046.83 56.6768 1060.46 56.624 1070.92 56.624C1084.89 56.624 1089.86 56.5707 1089.52 56.3975C1088.58 55.9841 1080.35 55.6773 1075.55 55.8906C1073.06 55.9973 1070.15 56.0234 1069.03 55.9434ZM939.326 55.4902C931.613 55.117 929.468 55.2239 929.467 55.9834C929.467 56.3701 930.41 56.5042 933.153 56.4775C936.446 56.5161 939.733 56.5648 943.013 56.624C948.071 56.7174 956.129 56.7167 960.844 56.6367C971.698 56.554 982.573 56.5636 993.421 56.6641C1018.96 56.864 1023.17 56.7838 1023.17 56.0508C1023.17 55.5977 1023.68 55.6103 1015.8 55.877C1010.22 56.0636 1009.28 56.0367 1006.37 55.6768C1002.77 55.2368 997.365 55.1576 995.05 55.5176C992.049 55.9709 948.671 55.9569 939.326 55.4902ZM885.746 55.25C887.286 54.5036 872.542 54.5705 854.541 55.3838C850.683 55.5571 846.225 55.637 844.253 55.5703C840.311 55.4371 824.636 56.1433 824.621 56.4502C824.621 56.5569 836.281 56.6107 852.483 56.584C883.002 56.5307 883.174 56.53 885.746 55.25ZM480.336 54.8242C446.645 54.4376 449.816 54.4234 445.444 54.9834C440.558 55.5834 441.501 55.6906 454.36 55.8906C469.364 56.1173 616.453 56.0905 617.93 55.8506C621.701 55.2773 582.525 54.5441 570.522 54.9707C564.436 55.184 561.006 55.2105 558.777 55.0771C557.063 54.9838 552.69 54.9441 549.09 55.0107C545.489 55.0774 535.974 55.0367 528.001 54.9033C516.513 54.7167 512.912 54.7167 510.598 54.9033C508.369 55.09 502.367 55.0909 480.336 54.8242ZM898.005 55.4775C897.846 55.4775 897.694 55.4874 897.581 55.5049C897.469 55.5223 897.406 55.5457 897.405 55.5703C897.405 55.5825 897.42 55.5952 897.45 55.6064C897.48 55.6178 897.525 55.6281 897.581 55.6367C897.637 55.6453 897.703 55.6516 897.775 55.6562C897.848 55.6609 897.926 55.6641 898.005 55.6641C898.084 55.6641 898.162 55.6609 898.234 55.6562C898.307 55.6516 898.374 55.6454 898.43 55.6367C898.485 55.6281 898.529 55.6177 898.56 55.6064C898.59 55.5951 898.605 55.5825 898.605 55.5703C898.605 55.5457 898.541 55.5223 898.43 55.5049C898.317 55.4874 898.164 55.4775 898.005 55.4775ZM1521.34 54.5967C1521.33 54.264 1518.16 54.2239 1516.96 54.5303C1515.94 54.7969 1518.34 55.1704 1520.05 54.9971C1520.44 54.9489 1520.75 54.8884 1520.98 54.8193C1521.2 54.7503 1521.32 54.6738 1521.34 54.5967ZM1218.37 51.957C1217.17 51.7437 1213.23 51.7971 1212.37 52.0371C1211.94 52.1438 1212.11 52.3302 1212.97 52.4502C1215.11 52.7968 1214.51 52.9707 1211.26 52.9707C1209.54 52.9707 1208.17 53.0638 1208.17 53.1836C1208.17 53.2903 1209.89 53.3574 1212.11 53.3174C1214.77 53.2907 1216.06 53.1703 1215.8 52.9971C1215.63 52.8504 1216.32 52.5835 1217.34 52.4102C1218.46 52.2235 1218.89 52.0237 1218.46 51.957H1218.37ZM103.73 51.624C102.958 51.4107 93.0145 51.3703 91.7285 51.5703C90.4427 51.757 90.7856 52.5571 92.1572 52.6904C93.8717 52.8504 104.672 51.8508 103.816 51.624H103.73ZM164.855 50.9434C164.847 50.8108 162.022 50.8908 159.025 51.1172C156.197 51.3438 155.082 52.0234 157.653 52.0234C158.939 52.0234 164.94 51.1437 164.94 50.957L164.855 50.9434ZM6.08594 50.0908C3.34315 50.0908 2.05713 50.2508 2.05664 50.624C2.05936 51.0103 7.5431 50.837 8.05762 50.4238C8.31453 50.1972 7.7145 50.0908 6.08594 50.0908ZM1486.62 48.5039C1487.3 47.904 1486.87 47.9037 1480.44 48.3037C1474.79 48.677 1474.7 48.837 1479.84 49.2637L1483.87 49.5967L1478.9 49.7441C1474.6 49.8589 1470.29 49.9563 1465.96 50.0371C1460.13 50.1437 1457.98 50.2643 1457.98 50.4775C1458.01 50.7839 1488.08 50.9436 1494.59 50.6504C1496.39 50.5837 1500.16 50.5968 1502.99 50.7168C1508.99 50.9568 1512.59 50.6373 1508.73 50.1973C1505.56 49.824 1505.99 49.7705 1515.59 49.4238C1531.45 48.8238 1528.97 48.3574 1510.11 48.3574C1497.08 48.3574 1495.36 48.5441 1500.08 49.3574C1503.08 49.864 1501.7 49.9435 1492.53 49.7969C1485.59 49.6769 1484.47 49.6104 1485.16 49.3438C1485.81 49.0713 1486.3 48.7901 1486.62 48.5039ZM192.717 47.21C179.858 47.21 178.657 47.8768 191.174 48.0234C198.889 48.1168 201.976 47.9566 201.976 47.4766C201.97 47.2771 199.738 47.21 192.717 47.21ZM125.248 47.2373C125.848 46.6508 122.077 46.7039 120.362 47.3037C119.591 47.5704 119.333 47.8503 119.848 47.917C121.219 48.1436 124.818 47.6905 125.248 47.2373ZM169.827 47.1572C165.198 46.7439 163.226 46.7439 161.254 47.1172C158.426 47.6505 160.74 47.9707 167.427 47.9707C174.628 47.9707 175.571 47.6766 169.827 47.1699V47.1572ZM148.652 47.1699C148.052 46.8633 145.652 46.7575 144.623 47.0107C144.194 47.1174 142.565 47.21 140.937 47.21C137.508 47.21 135.793 47.5436 137.679 47.8369C138.622 47.9836 139.822 47.9836 141.794 47.8369C143.337 47.7169 145.652 47.5699 146.938 47.5166C148.138 47.4499 148.91 47.3033 148.652 47.1699ZM108.874 47.21C108.86 46.9168 99.5281 46.5974 97.3008 46.8105C95.0721 47.0372 94.4721 47.7833 96.4434 47.9033C99.3581 48.0767 108.874 47.5433 108.874 47.21ZM85.8994 46.6504C81.0987 46.3971 81.6983 46.3968 80.1553 46.6768C75.2688 47.6368 77.7551 48.0106 85.4707 47.5039C90.7855 47.1573 90.8712 46.917 85.8994 46.6504ZM49.5498 42.5039C41.663 41.9573 36.9476 41.89 33.5186 42.29C28.8899 42.8367 33.9479 43.2637 46.0352 43.3438C58.5515 43.4238 59.4943 43.1839 49.5498 42.5039ZM28.1123 42.7646C27.8351 42.5835 16.5316 42.5325 15.3447 42.7168C13.8874 42.9435 15.8588 43.1699 19.2021 43.1699C23.7634 43.1568 27.9889 42.974 28.1123 42.7646C28.1156 42.7668 28.118 42.7684 28.1182 42.7705V42.7568C28.1182 42.7599 28.1142 42.7616 28.1123 42.7646ZM13.2871 40.6641C13.2867 40.0109 11.4001 39.9433 7.45703 40.4766C3.77115 40.9432 3.94281 41.1837 8.05762 41.3037C12.4289 41.437 13.2868 41.3304 13.2871 40.6641ZM1522.45 38.0635C1520.48 37.3968 1518.16 37.357 1513.88 37.957L1510.02 38.4902L1515.16 39.1299C1519.96 39.7166 1520.82 39.7567 1526.48 39.6367C1538.23 39.3967 1539.43 39.1041 1530 38.7441C1525.45 38.5841 1523.31 38.3835 1522.45 38.0635Z" fill="#201818"/>
</svg>
