<svg width="38" height="26" viewBox="0 0 38 26" fill="none" xmlns="http://www.w3.org/2000/svg">
<path d="M27.44 0L24.56 2.88V0.00999999H23.46C21.63 0.00999999 20.02 0.88 19 2.23C18.4825 1.5381 17.8109 0.97631 17.0385 0.58922C16.266 0.20213 15.414 0.000387576 14.55 0H13.44V2.87L10.56 0.00999999H0C2.74 6.85 2.27 5.6 2.76 7.1L3.36 7.24C4.96988 7.64198 6.39887 8.57129 7.41921 9.87979C8.43956 11.1883 8.99253 12.8007 8.99 14.46V15.57H10.09C12.59 15.57 14.94 16.51 16.74 18.23C18.22 22.23 17.73 20.74 19 25.18C20.27 20.74 19.78 22.22 21.26 18.23C23.0463 16.5184 25.426 15.5651 27.9 15.57H29.01V14.46C29.0101 12.8195 29.5525 11.2251 30.5526 9.9248C31.5527 8.62447 32.9545 7.69114 34.54 7.27L35.03 7.14C35.8 5.6 35.15 7.12 38 0.00999999H27.44V0ZM15.66 2.43C16.3096 2.65733 16.8728 3.08034 17.2721 3.64084C17.6714 4.20134 17.8873 4.8718 17.89 5.56H20.11C20.11 4.12 21.04 2.89 22.34 2.43V5.43L19 17.08L15.66 5.41V2.42V2.43ZM4.5 5.27L3.29 2.23H9.64L13.2 5.79L10.58 11.02C10.0632 9.66667 9.24824 8.44706 8.19571 7.45166C7.14318 6.45625 5.88004 5.7106 4.5 5.27ZM11.84 13.48L14.27 8.62L16.07 14.97C14.769 14.2059 13.3327 13.7 11.84 13.48ZM23.74 8.62L26.16 13.48C24.66 13.7 23.22 14.21 21.92 14.97L23.73 8.62H23.74ZM33.56 5.12L33.48 5.27C32.1036 5.71617 30.8448 6.4652 29.7961 7.46201C28.7473 8.45882 27.9354 9.67804 27.42 11.03L24.8 5.79L28.36 2.23H34.71L33.56 5.11V5.12Z" fill="#C41721"/>
</svg>
