<svg width="60" height="60" viewBox="0 0 60 60" fill="none" xmlns="http://www.w3.org/2000/svg">
<g clip-path="url(#clip0_2_11089)">
<path fill-rule="evenodd" clip-rule="evenodd" d="M29.3 0.03C27.404 0.118708 25.5247 0.427446 23.7 0.95L22.93 1.15C22.8507 1.1635 22.7734 1.18702 22.7 1.22C22.64 1.27 21.84 1.53 21.8 1.52C21.74 1.49 21.37 1.62 21.21 1.71C21.05 1.81 20.8 1.91 20.63 1.95C20.55 1.97 20.29 2.07 20.06 2.17C19.82 2.27 19.62 2.34 19.61 2.33C19.6 2.33 19.51 2.35 19.41 2.4L19.18 2.47C19.15 2.46 18.95 2.55 18.66 2.7C18.39 2.83 18.15 2.94 18.12 2.94C18.0621 2.95094 18.0074 2.97487 17.96 3.01C17.91 3.04539 17.8511 3.06617 17.79 3.07C17.73 3.07 17.23 3.29 17.15 3.37C17.13 3.38 16.94 3.49 16.72 3.59L15.76 4.14L15.06 4.57C14.9524 4.6298 14.8488 4.69661 14.75 4.77C14.43 5 13.83 5.39 13.79 5.39C13.715 5.42778 13.6473 5.47856 13.59 5.54L13.22 5.85C12.4581 6.43139 11.7271 7.05223 11.03 7.71C10.73 7.98 10.5 8.19 10.5 8.17C10.5 8.12 11.13 7.49 11.53 7.14C11.67 7 11.81 6.87 11.83 6.83C11.89 6.66 13.16 5.58 14 4.97C15.8661 3.66757 17.8399 2.52677 19.9 1.56C20.46 1.32 20.36 1.29 19.76 1.52C18.8809 1.8781 18.0137 2.26498 17.16 2.68C17.05 2.71 16.02 3.3 15.26 3.76C13.7808 4.66134 12.3941 5.7064 11.12 6.88C10.4337 7.51677 9.77633 8.18411 9.15 8.88C8.82 9.32 8.65 9.55 8.53 9.68C8.47616 9.73732 8.43524 9.80552 8.41 9.88C8.41 9.95 8.31 10.1 8.27 10.1C8.22 10.1 8.1 10.25 7.77 10.74C7.64986 10.9245 7.52312 11.1046 7.39 11.28C7.12 11.6 6.54 12.58 6.54 12.72C6.52682 12.7791 6.49935 12.834 6.46 12.88C6.41431 12.9335 6.38636 12.9999 6.38 13.07C6.38 13.13 6.29 13.29 6.06 13.65C5.91593 13.8667 5.78244 14.0903 5.66 14.32C5.62 14.42 5.56 14.53 5.51 14.58C5.44289 14.6651 5.3827 14.7553 5.33 14.85C5.05274 15.3852 4.71738 15.8882 4.33 16.35C4.24 16.55 3.88 17.25 3.82 17.3C3.65792 17.7208 3.46403 18.1287 3.24 18.52C3.20842 18.5682 3.18793 18.6229 3.18 18.68C3.18 18.71 3.11 18.89 3.03 19.08C2.83533 19.543 2.65853 20.0134 2.5 20.49L2.33 20.97C2.27 21.12 2.18 21.57 2.21 21.57C2.25 21.57 2.32 21.44 2.35 21.33L2.42 20.98C2.46 20.8 2.48 20.75 2.52 20.75C2.59 20.75 2.64 20.63 2.82 20.15C3.06 19.46 3.32 18.85 3.41 18.75C3.46 18.69 3.77 18.01 3.77 17.95C3.77 17.8 4.69 15.94 4.75 15.97C4.78 15.99 4.65 16.3 4.41 16.8C4.31 17 4.21 17.24 4.18 17.33L3.98 17.87C3.71397 18.4814 3.46058 19.0982 3.22 19.72C3.14703 19.8976 3.08032 20.0777 3.02 20.26C2.96742 20.4161 2.90735 20.5696 2.84 20.72C2.8 20.8 2.72 21.07 2.74 21.08C2.79 21.13 2.91 20.92 2.97 20.67C3.07 20.27 3.09 20.23 3.22 19.96L3.34 19.69L3.38 19.62C3.41061 19.59 3.43747 19.5564 3.46 19.52C3.52 19.44 3.51 19.55 3.45 19.69C3.4 19.79 3.25 20.3 3.25 20.35C3.25 20.36 3.28 20.34 3.31 20.3C3.37 20.23 3.37 20.23 3.32 20.41C3.31 20.47 3.26 20.49 3.26 20.43C3.26 20.36 3.2 20.46 3.14 20.66C3.04 20.93 3.03 20.99 3.07 20.96C3.08 20.96 3.11 20.9 3.13 20.83C3.16 20.71 3.23 20.61 3.23 20.68C3.23 20.74 3.08 21.22 3.03 21.33C2.98955 21.4172 2.95611 21.5075 2.93 21.6C2.89735 21.7204 2.85384 21.8375 2.8 21.95C2.72 22.1 2.72 22.12 2.75 22.19C2.78 22.24 2.78 22.28 2.75 22.34C2.71247 22.4924 2.67912 22.6458 2.65 22.8C2.53 23.27 2.27 24.27 2.11 24.8C2.08359 24.8913 2.06683 24.9852 2.06 25.08C2.0568 25.1483 2.04331 25.2157 2.02 25.28C1.96 25.43 1.84 25.91 1.84 26C1.84 26.11 1.66 27.09 1.61 27.22C1.51 27.49 1.44 28.24 1.51 28.27C1.54 28.27 1.55 28.32 1.55 28.39C1.55 28.45 1.56 28.49 1.58 28.49C1.59 28.49 1.6 28.4 1.6 28.29C1.6 27.93 1.64 27.82 1.7 27.98C1.74 28.05 1.74 28.15 1.7 28.57C1.63283 29.061 1.63283 29.559 1.7 30.05C1.8 30.45 1.84 31.53 1.76 31.55C1.72 31.56 1.71 31.58 1.72 31.61C1.86 31.94 1.82 33.21 1.68 33.21C1.58 33.21 1.58 33.31 1.7 33.48C1.74 33.55 1.76 33.59 1.74 33.65C1.74 33.71 1.74 33.75 1.78 33.79C1.82 33.83 1.83 33.88 1.82 34.01C1.81306 34.0773 1.81986 34.1454 1.84 34.21C1.86 34.23 1.9 34.44 1.94 34.73C1.94765 34.7813 1.96107 34.8317 1.98 34.88C2.04 35.03 2.06 35.15 2.01 35.18C1.97 35.22 2.01 35.52 2.06 35.52C2.13 35.52 2.14 35.65 2.09 35.72C2.03 35.81 2.03 35.81 2.09 35.99C2.14 36.19 2.16 36.49 2.12 36.49C2.1 36.49 2.03 36.17 2 35.96L1.96 35.98C1.93 36.01 1.92 36 1.88 35.93C1.83 35.83 1.75 35.81 1.78 35.91C1.83 36.13 1.85 36.28 1.82 36.31C1.79 36.35 1.82 36.56 1.98 37.16C2.03 37.36 2.03 37.43 1.98 37.37C1.79716 36.9535 1.66295 36.5173 1.58 36.07C1.55333 35.9393 1.52332 35.8092 1.49 35.68C1.46599 35.5802 1.44266 35.4802 1.42 35.38C1.38 35.23 1.26 35.08 1.22 35.14C1.21 35.17 1.2 35.16 1.18 35.1C1.14 35 1.14 34.93 1.2 34.87C1.25 34.82 1.25 34.82 1.17 34.6C1.1 34.36 1.05 34.28 1.07 34.43C1.09 34.48 1.08 34.52 1.07 34.52C1.04 34.52 0.97 34.21 0.9 33.77C0.871491 33.5891 0.838146 33.4091 0.8 33.23C0.776835 33.1046 0.763461 32.9775 0.76 32.85C0.752157 32.7025 0.73546 32.5555 0.71 32.41C0.679057 32.2247 0.659022 32.0377 0.65 31.85C0.645125 31.6691 0.628422 31.4887 0.6 31.31C0.575131 31.1951 0.56505 31.0775 0.57 30.96C0.469956 30.4494 0.453071 29.926 0.52 29.41C0.545252 29.3222 0.558703 29.2314 0.56 29.14C0.56 29.03 0.57 28.98 0.61 28.94C0.69 28.88 0.7 28.89 0.68 29.04C0.66 29.22 0.66 29.31 0.68 29.5C0.7 29.62 0.68 29.66 0.66 29.69C0.61 29.73 0.59 30.2 0.64 30.2C0.65 30.2 0.67 30.16 0.67 30.1C0.67 30.06 0.67 30.01 0.69 30.01C0.72 30.01 0.73 30.16 0.76 30.62C0.77 30.77 0.79 30.92 0.81 30.95C0.86 31.05 0.87 31.77 0.81 31.83C0.75 31.9 0.78 32.13 0.87 32.19C0.97 32.26 1.1 32.05 1 31.97C0.96 31.93 0.94 31.72 0.98 31.68C1.01 31.66 0.99 30.71 0.96 30.09C0.93 29.5 0.99 28.94 1.04 29.41C1.04 29.46 1.06 29.5 1.07 29.5C1.08 29.5 1.09 29.43 1.07 29.34C1.06 29.14 1.05 29.11 1.02 29.14C0.91 29.2 0.82 28.66 0.92 28.58C0.95 28.55 0.96 28.49 0.96 28.38C0.96 28.26 0.97 28.2 1.01 28.15C1.07 28.07 1.09 27.69 1.04 27.64C0.99 27.59 1.08 26.19 1.14 25.99C1.16 25.94 1.18 25.68 1.19 25.4C1.19 25.07 1.22 24.8 1.25 24.57C1.32 24.19 1.33 23.99 1.27 23.99C1.24 23.99 1.17 24.4 1.13 24.94C1.12192 25.0445 1.10519 25.1482 1.08 25.25C1.01504 25.5423 0.981517 25.8406 0.98 26.14C0.96 26.32 0.95 26.53 0.93 26.58L0.88 27.05L0.84 27.45C0.81 27.49 0.74 27.4 0.74 27.31C0.74 27.26 0.74 27.22 0.72 27.22C0.71 27.22 0.7 27.37 0.7 27.56C0.7 27.84 0.7 27.9 0.66 27.95C0.62 27.99 0.61 28.05 0.61 28.31C0.61 28.64 0.6 28.79 0.56 28.79C0.54 28.79 0.53 28.55 0.53 28.25C0.53 27.76 0.53 27.7 0.49 27.67C0.45 27.64 0.45 27.61 0.47 27.42C0.49 27.3 0.51 27.12 0.51 27C0.51 26.7 0.56 26 0.59 25.86C0.66 25.61 0.59 25.29 0.49 25.38C0.357084 26.1291 0.296804 26.8893 0.31 27.65C0.23286 28.8091 0.242888 29.9724 0.34 31.13L0.42 31.71C0.45 31.91 0.49 32.27 0.5 32.49C0.517813 32.7816 0.551194 33.072 0.6 33.36C0.59 33.42 0.6 33.48 0.61 33.5C0.63 33.52 0.7 33.83 0.76 34.18C0.91 34.98 1.06 35.68 1.18 36.04C1.21 36.14 1.24 36.3 1.24 36.43C1.25 36.67 1.29 36.8 1.34 36.8C1.37 36.8 1.41 36.86 1.44 37C1.53112 37.3227 1.63116 37.6428 1.74 37.96C1.74 37.99 1.74 38.02 1.76 38.03C1.77 38.03 1.82 38.15 1.86 38.28L1.96 38.55L2.04 38.77L2.23 39.24L2.53 39.99C2.69 40.43 2.83 40.76 3.15 41.38L3.34 41.79C3.37 41.89 3.42 41.99 3.46 42.04C3.5 42.08 3.53 42.14 3.53 42.16L3.62 42.34C3.87363 42.8524 4.15058 43.3529 4.45 43.84L4.73 44.38C4.79 44.53 4.89 44.71 4.94 44.78C5 44.84 5.07 44.95 5.11 45.02C5.14634 45.0817 5.18999 45.1388 5.24 45.19C5.32 45.27 5.53 45.7 5.53 45.8C5.53 45.85 5.55 45.93 5.57 45.99C5.59096 46.0477 5.60113 46.1087 5.6 46.17C5.6 46.24 5.6 46.25 5.66 46.24C5.71 46.24 5.74 46.26 5.78 46.32C5.88 46.49 6.05 46.65 6 46.52C5.98 46.47 6.03 46.34 6.06 46.35C6.48068 46.9055 6.92096 47.4458 7.38 47.97L8.19 48.92C8.29 49.05 8.68 49.46 9.04 49.82C9.4 50.2 9.7 50.52 9.7 50.55C9.7 50.61 9.75 50.65 9.82 50.65C9.91 50.65 11.42 52.07 11.72 52.45C11.91 52.66 12.15 52.79 12.12 52.64C12.1 52.59 12.1 52.56 12.12 52.56C12.17 52.56 12.38 52.71 12.49 52.84C12.56 52.91 12.65 53 12.69 53.02C12.86 53.12 13.04 53.24 13.04 53.26C13.1902 53.3751 13.3338 53.4986 13.47 53.63C13.55 53.71 13.71 53.82 13.83 53.87C13.93 53.93 14.08 54.02 14.15 54.08C14.31 54.23 14.48 54.31 14.51 54.26C14.54 54.21 14.79 54.38 14.78 54.45C14.78 54.52 15.31 54.89 15.75 55.11L16.07 55.31C16.14 55.38 16.31 55.48 16.45 55.55L17.03 55.85C17.48 56.1 17.85 56.28 18.32 56.48L18.96 56.78C20.2973 57.3286 21.6665 57.7961 23.06 58.18C23.125 58.2007 23.1921 58.2141 23.26 58.22C23.52 58.26 24.13 58.42 24.19 58.46C24.28 58.51 24.68 58.6 25.02 58.63C25.19 58.65 25.37 58.68 25.42 58.7C25.48 58.72 25.72 58.77 25.96 58.8C26.2 58.85 26.42 58.9 26.46 58.92C26.5467 58.951 26.6379 58.9679 26.73 58.97C26.86 58.99 26.96 59.01 26.99 59.04C27.02 59.07 27.12 59.08 27.35 59.1C27.81 59.13 28.05 59.17 28.05 59.23C28.05 59.29 28.19 59.31 28.22 59.26C28.25 59.22 28.47 59.22 28.48 59.26C28.49 59.29 28.63 59.31 29.01 59.34C30.6317 59.4515 32.2593 59.4448 33.88 59.32C34.9 59.21 36.77 58.92 37.18 58.8C37.38 58.74 37.42 58.73 37.42 58.77C37.42 58.81 36.82 58.95 36 59.11C35.1614 59.3548 34.3005 59.5156 33.43 59.59C31.52 59.79 27.83 59.7 25.86 59.42C25.46 59.36 25.36 59.35 25.39 59.39C25.45 59.44 26.33 59.62 26.9 59.69C27.4406 59.7515 27.9806 59.8182 28.52 59.89C28.64 59.89 28.85 59.92 28.99 59.93C29.45 59.98 31.46 60.02 32.29 59.99C33.5551 59.9469 34.8152 59.8098 36.06 59.58L36.81 59.44C37.9394 59.1947 39.044 58.8466 40.11 58.4C40.17 58.33 40.29 58.28 40.35 58.3C40.4 58.32 40.53 58.27 41.14 58L41.94 57.65C42.3924 57.4696 42.8193 57.2309 43.21 56.94C43.2551 56.895 43.3098 56.8608 43.37 56.84C43.43 56.81 43.49 56.77 43.51 56.74C43.53 56.7 43.71 56.59 44.07 56.41C44.2984 56.2997 44.522 56.1796 44.74 56.05C44.81 55.99 44.94 55.93 45.02 55.9C45.09 55.87 45.22 55.82 45.29 55.77C45.49 55.65 45.63 55.57 46.09 55.34C46.56 55.09 46.53 55.12 46.47 55.07C46.41 55.03 46.63 54.84 47.12 54.54C47.28 54.44 47.5 54.28 47.61 54.18C47.83 53.98 48.31 53.61 48.38 53.58C48.5513 53.4561 48.7181 53.326 48.88 53.19C49.2823 52.8612 49.689 52.5379 50.1 52.22L50.56 51.84C50.66 51.77 50.73 51.69 50.73 51.67C50.73 51.63 50.69 51.62 50.66 51.66C50.6206 51.6926 50.5768 51.7195 50.53 51.74C50.4203 51.8068 50.3223 51.8913 50.24 51.99C50.1 52.15 49.88 52.34 49.83 52.34C49.7872 52.3623 49.747 52.3891 49.71 52.42C49.61 52.51 49.31 52.67 49.3 52.66L49.58 52.38C49.86 52.12 49.92 52.04 49.83 52.08C49.77 52.1 49.79 52.04 49.87 51.98C49.95 51.9 49.98 51.89 49.98 51.95C49.98 52.03 50.1 51.92 50.1 51.84C50.1 51.77 50.53 51.31 50.6 51.31L50.82 51.13C51.02 50.93 51.16 50.83 51.21 50.83C51.25 50.83 51.33 50.69 51.31 50.66C51.28 50.62 51.88 49.96 52.89 48.96C53.11 48.74 53.29 48.54 53.29 48.52C53.29 48.51 53.43 48.35 53.61 48.17C53.78 48 53.94 47.82 53.95 47.79C54 47.7 54.5 47.09 54.8 46.75C55.07 46.45 55.3 46.15 55.3 46.1C55.3 46.06 55.16 46.1 55.12 46.15C55.08 46.2 55 46.18 55 46.12L55.2 45.76C55.2827 45.6337 55.3595 45.5035 55.43 45.37C55.4635 45.309 55.5038 45.252 55.55 45.2C55.74 44.95 56.01 44.42 56.06 44.2C56.09 44.09 56.18 43.87 56.28 43.67L56.45 43.3L56.51 43.17C56.5436 43.1292 56.5675 43.0814 56.58 43.03C56.7303 42.7894 56.864 42.5389 56.98 42.28C57.37 41.51 57.46 41.36 57.56 41.39C57.62 41.41 57.65 41.36 57.66 41.2C57.67 41.02 57.83 40.47 57.94 40.23C57.98 40.13 58.04 39.98 58.06 39.87C58.08 39.76 58.14 39.56 58.2 39.42L58.29 39.12C58.29 39.05 58.39 38.72 58.42 38.67C58.48 38.57 58.48 38.7 58.41 38.87C58.39 38.9 58.4 38.92 58.42 38.91C58.44 38.91 58.47 38.83 58.49 38.75C58.56 38.48 58.74 38.13 58.7 38.34C58.6937 38.3734 58.687 38.4067 58.68 38.44V38.49C58.71 38.46 58.83 38.1 58.9 37.79L59 37.49C59.05 37.39 59.14 37.11 59.14 37.06C59.14 37 59.09 37.06 59.02 37.21C58.93 37.41 58.9 37.36 58.97 37.1C59.02 36.89 59.02 36.88 58.96 36.88C58.88 36.88 58.9 36.75 59 36.6C59.0346 36.5422 59.0552 36.4772 59.06 36.41L59.11 36.16C59.1286 36.0882 59.1354 36.0139 59.13 35.94C59.1289 35.859 59.139 35.7782 59.16 35.7C59.21 35.46 59.21 35.46 59.14 35.48C59.07 35.5 59.07 35.42 59.15 35.18C59.19 35.08 59.23 34.93 59.24 34.86C59.26 34.68 59.34 34.4 59.4 34.32C59.4354 34.2371 59.459 34.1495 59.47 34.06C59.48 33.95 59.53 33.76 59.57 33.64C59.6 33.52 59.64 33.32 59.65 33.19C59.675 32.9315 59.7286 32.6766 59.81 32.43C59.87 32.43 59.81 33.19 59.75 33.27C59.72 33.3 59.71 33.69 59.75 33.72C59.8 33.78 59.88 33.55 59.84 33.45C59.8 33.4 59.89 32.75 59.94 32.65C59.96 32.61 59.96 32.02 59.94 31.88C59.94 31.87 59.92 31.86 59.89 31.86C59.79 31.86 59.79 30.72 59.89 30.61C59.97 30.51 59.97 29.69 59.89 29.13C59.8361 28.8394 59.8327 28.5417 59.88 28.25C59.9083 28.1943 59.9221 28.1324 59.92 28.07C59.92 28.01 59.93 27.95 59.96 27.93C60.02 27.88 60.01 27.79 59.96 27.8C59.91 27.8 59.9 27.77 59.88 27.64C59.85 27.4 59.76 27.24 59.76 27.41C59.76 27.49 59.6 27.57 59.55 27.51C59.485 27.3589 59.4642 27.1925 59.49 27.03C59.52 26.95 59.52 26.93 59.47 26.9C59.44 26.88 59.41 26.85 59.41 26.83L59.36 26.64C59.3 26.43 59.26 26.44 59.26 26.66C59.26 26.86 59.22 26.89 59.14 26.79C59.06 26.7 58.97 26.29 59 26.16C59.03 26.01 59 25.94 58.89 25.96C58.78 25.97 58.76 25.94 58.73 25.71C58.73 25.63 58.7 25.57 58.69 25.57C58.66 25.57 58.66 25.64 58.7 25.97C58.74 26.26 58.74 26.3 58.7 26.26C58.6 26.16 58.52 24.7 58.61 24.68C58.68 24.66 58.68 24.63 58.59 24.18C58.4616 23.403 58.2846 22.6348 58.06 21.88C57.9722 21.5365 57.8721 21.1963 57.76 20.86C57.5778 20.3407 57.4077 19.8172 57.25 19.29C57.2 19.12 57.07 18.9 57.03 18.94C56.99 18.98 57.08 19.52 57.14 19.65C57.5648 20.9644 57.9088 22.3036 58.17 23.66C58.22 23.73 58.47 24.88 58.47 25.06C58.47 25.16 58.41 25.08 58.35 24.89C58.21 24.46 58.21 24.61 58.35 25.78C58.41 26.27 58.45 28.04 58.4 28.12C58.35 28.18 58.32 28.1 58.3 27.88C58.28 27.61 58.24 27.63 58.23 27.91C58.21 28.4 58.13 28.08 58.12 27.42C58.1162 27.2394 58.1029 27.0592 58.08 26.88C58.0543 26.7409 58.0343 26.6008 58.02 26.46C58 26.22 57.99 26.17 57.94 26.14C57.91 26.12 57.89 26.08 57.89 26.06C57.89 26.04 57.88 26.03 57.86 26.03C57.83 26.03 57.84 26.13 57.89 26.47C57.908 26.606 57.918 26.7429 57.92 26.88C57.92 27.02 57.92 27.17 57.94 27.22C57.96 27.27 57.98 27.51 57.98 27.75C57.98 27.99 58 28.29 58.01 28.43C58.02 28.6 58.02 28.68 58 28.7C57.98 28.7 57.97 28.74 57.97 28.77C57.97 28.8 57.96 28.82 57.94 28.82C57.92 28.82 57.92 28.8 57.92 28.77C57.92 28.69 57.86 28.57 57.82 28.57C57.79 28.57 57.78 28.61 57.78 28.67C57.78 28.81 57.74 28.79 57.72 28.63C57.7 28.48 57.67 28.45 57.62 28.51C57.58 28.56 57.61 28.75 57.66 28.8C57.71 28.83 57.72 29.04 57.68 29.08C57.66 29.1 57.64 29.5 57.64 30.06C57.63 30.58 57.61 31.04 57.6 31.09C57.5865 31.1693 57.5832 31.2499 57.59 31.33C57.59 31.44 57.59 31.52 57.56 31.56C57.5303 31.6673 57.5202 31.7791 57.53 31.89C57.53 32.25 57.49 32.68 57.46 32.71C57.437 32.7674 57.4235 32.8282 57.42 32.89L57.37 33.29L57.3 33.87C57.27 34.16 57.25 34.25 57.2 34.21C57.1695 33.9509 57.1695 33.6891 57.2 33.43C57.2167 33.3613 57.2234 33.2906 57.22 33.22C57.19 33.22 57.09 33.47 57.06 33.62C57.02 33.78 56.99 33.8 56.96 33.66C56.95 33.56 56.87 33.53 56.87 33.62C56.8702 33.6494 56.8595 33.6779 56.84 33.7C56.78 33.75 56.76 33.92 56.81 33.96C56.86 34 56.82 34.16 56.75 34.24C56.7072 34.2953 56.6796 34.3608 56.67 34.43C56.67 34.5 56.62 34.71 56.59 34.88C56.46 35.54 56.47 35.51 56.4 35.51C56.37 35.51 56.3 35.56 56.25 35.61C56.19 35.68 56.15 35.71 56.12 35.7C56.06 35.67 56.04 35.76 56.03 36.05C56.03 36.3 56.01 36.37 55.82 36.99L55.61 37.7C55.518 38.039 55.4079 38.3728 55.28 38.7C55.2652 38.7662 55.2417 38.8301 55.21 38.89L55.05 39.29C54.7816 40.0705 54.454 40.8294 54.07 41.56C54.11 41.58 54.09 41.62 53.97 41.8C53.9 41.92 53.87 41.95 53.84 41.93C53.8 41.89 53.77 41.92 53.69 42.11C53.6652 42.1713 53.6315 42.2286 53.59 42.28C53.53 42.33 53.55 42.2 53.64 41.99C53.69 41.89 53.72 41.77 53.72 41.73C53.72 41.7 53.76 41.6 53.8 41.53L53.9 41.35C53.94 41.28 54.15 40.75 54.22 40.55C54.27 40.39 54.28 40.34 54.25 40.31C54.2414 40.2968 54.236 40.2818 54.2342 40.2662C54.2325 40.2506 54.2345 40.2347 54.24 40.22C54.24 40.2 54.22 40.21 54.19 40.26C54.1605 40.2885 54.1367 40.3225 54.12 40.36C54.12 40.51 53.79 41 53.72 40.96C53.67 40.93 53.69 40.86 53.77 40.79C53.98 40.59 54.28 39.72 54.16 39.68C54.14 39.68 54.11 39.72 54.08 39.78C54.0557 39.8415 54.0219 39.8988 53.98 39.95C53.89 40.02 53.88 40.08 53.96 40.05C54.1 40.02 53.97 40.41 53.76 40.66L53.69 40.74L53.71 40.66L53.73 40.46C53.7342 40.3918 53.7476 40.3245 53.77 40.26C53.79 40.21 53.8 40.17 53.79 40.16C53.76 40.14 53.69 40.22 53.69 40.28C53.69 40.39 53.61 40.6 53.55 40.64C53.5093 40.673 53.4811 40.7188 53.47 40.77C53.43 40.92 53.27 41.22 53.23 41.21C53.2 41.2 53.17 41.24 53.12 41.33L52.78 41.94C52.54 42.37 52.48 42.52 52.55 42.48C52.61 42.44 52.57 42.56 52.49 42.62L52.37 42.74C52.2728 42.855 52.1982 42.9874 52.15 43.13C52.17 43.18 52.05 43.36 52 43.37C51.96 43.37 51.86 43.5 51.69 43.77L51.29 44.32C51.1511 44.4821 51.0177 44.6489 50.89 44.82C50.4079 45.4444 49.9076 46.0547 49.39 46.65C48.8787 47.2114 48.345 47.7518 47.79 48.27C47.51 48.52 47.43 48.61 47.56 48.54C47.88 48.37 50.23 45.94 50.41 45.58C50.51 45.4 50.71 45.22 50.71 45.31C50.71 45.33 50.63 45.44 50.54 45.56C50.4417 45.6864 50.3483 45.8165 50.26 45.95C50.1744 46.0854 50.0809 46.2156 49.98 46.34L49.64 46.74C49.0113 47.4571 48.3294 48.1256 47.6 48.74C46.5882 49.6015 45.5191 50.3933 44.4 51.11C44.2521 51.2089 44.0985 51.2991 43.94 51.38L43.5 51.63C43.36 51.73 43.08 51.89 42.89 51.99C42.6919 52.1009 42.4952 52.2142 42.3 52.33C41.1846 52.9177 40.0243 53.4159 38.83 53.82C37.5693 54.2351 36.2834 54.5691 34.98 54.82C31.7708 55.3458 28.494 55.3018 25.3 54.69C25.1409 54.6526 24.9808 54.6192 24.82 54.59C24.7323 54.5794 24.6454 54.5627 24.56 54.54C24.5121 54.5215 24.4613 54.5114 24.41 54.51C24.3482 54.5067 24.2874 54.4932 24.23 54.47C24.0858 54.4188 23.9389 54.3754 23.79 54.34C21.3496 53.711 19.0051 52.7557 16.82 51.5C16.5951 51.3604 16.3684 51.2237 16.14 51.09C15.6184 50.7712 15.1081 50.4343 14.61 50.08C14.3869 49.9183 14.1602 49.7616 13.93 49.61C13.7 49.47 13.33 49.2 12.93 48.87L12.56 48.57C11.678 47.8141 10.8587 46.9881 10.11 46.1C9.93962 45.9031 9.77293 45.7031 9.61 45.5L8.83 44.54C8.71075 44.3867 8.58737 44.2366 8.46 44.09C8.36132 43.9803 8.27106 43.8633 8.19 43.74C8.12148 43.634 8.04457 43.5337 7.96 43.44L7.85 43.32L7.91 43.43C8.20387 43.9164 8.52784 44.384 8.88 44.83C9.29737 45.4091 9.74813 45.9634 10.23 46.49C10.2533 46.5288 10.2838 46.5628 10.32 46.59L10.62 46.93L11.14 47.53C11.66 48.07 11.78 48.23 11.78 48.29C11.78 48.33 11.83 48.39 11.94 48.49L12.1 48.66C12.1 48.74 11.92 48.6 11.58 48.26C11.4543 48.1418 11.3242 48.0284 11.19 47.92C10.76 47.57 9.78 46.52 9.07 45.64C8.79993 45.3101 8.52993 44.9801 8.26 44.65C7.97104 44.2746 7.69747 43.8876 7.44 43.49C7.38565 43.3975 7.31829 43.3133 7.24 43.24C7.19656 43.2055 7.16223 43.1608 7.14 43.11C7.11932 43.0539 7.09249 43.0002 7.06 42.95C6.98742 42.8643 6.93909 42.7607 6.92 42.65C6.92 42.6 6.88 42.54 6.82 42.47C6.66385 42.3127 6.53538 42.1301 6.44 41.93C6.43129 41.8762 6.41081 41.825 6.38 41.78C6.35525 41.7402 6.33829 41.6961 6.33 41.65C6.33 41.63 6.31 41.58 6.28 41.55C6.24946 41.5242 6.22835 41.4891 6.22 41.45C6.22136 41.4304 6.21745 41.4108 6.20865 41.3932C6.19986 41.3756 6.18651 41.3607 6.17 41.35C6.13871 41.3315 6.11418 41.3035 6.1 41.27C6.08077 41.2195 6.05378 41.1722 6.02 41.13C5.97496 41.0736 5.95346 41.0019 5.96 40.93C5.96 40.83 5.95 40.8 5.9 40.79C5.85 40.78 5.72 40.55 5.72 40.49C5.72 40.47 5.69 40.42 5.65 40.39C5.60692 40.3426 5.57906 40.2834 5.57 40.22C5.56018 40.1587 5.53622 40.1005 5.5 40.05C5.35795 39.7613 5.25376 39.4554 5.19 39.14C5.22 39.11 5.26 39.16 5.26 39.24C5.26 39.28 5.29 39.34 5.33 39.39C5.42 39.5 5.54 39.77 5.58 39.93C5.61 40.07 5.68 40.19 5.7 40.16C5.73 40.13 5.72 39.89 5.68 39.8C5.6 39.62 5.65 39.54 5.73 39.7C5.79 39.82 5.83 39.8 5.83 39.65C5.83 39.48 5.8 39.41 5.74 39.37C5.68 39.34 5.62 39.14 5.66 39.09C5.68 39.06 5.66 38.97 5.6 38.73C5.39 38.02 5.35 37.81 5.4 37.83C5.44 37.85 5.45 37.83 5.45 37.79C5.45 37.75 5.47 37.71 5.49 37.69C5.50294 37.6768 5.51314 37.6612 5.52 37.644C5.52687 37.6268 5.53026 37.6085 5.53 37.59C5.53 37.55 5.54 37.53 5.57 37.53C5.6 37.53 5.61 37.51 5.6 37.47C5.53 37.17 5.52 37.14 5.47 37.13C5.44 37.13 5.42 37.11 5.42 37.1L5.37 36.82C5.33421 36.6405 5.30087 36.4604 5.27 36.28C5.22568 36.0462 5.17901 35.8129 5.13 35.58C5.08544 35.358 5.04876 35.1346 5.02 34.91C5.00954 34.7859 4.99285 34.6624 4.97 34.54C4.9469 34.4243 4.9302 34.3075 4.92 34.19C4.89661 33.9663 4.86994 33.7429 4.84 33.52C4.81 33.29 4.77 32.92 4.76 32.68C4.74433 32.4596 4.72432 32.2396 4.7 32.02C4.6825 31.8872 4.6825 31.7528 4.7 31.62C4.72 31.5 4.72 31.43 4.7 31.42C4.64 31.35 4.67 31.02 4.74 30.99C4.8 30.97 4.8 30.96 4.79 30.75C4.78 30.61 4.79 30.53 4.8 30.53C4.84 30.53 4.85 30.61 4.88 30.87C4.88 30.99 4.91 31.1 4.92 31.12C4.93973 31.195 4.94649 31.2728 4.94 31.35C4.9532 31.7615 5.01019 32.1705 5.11 32.57C5.16 32.59 5.16 32.62 5.15 32.79C5.13 32.99 5.15 33.08 5.19 33.08C5.21 33.08 5.21 32.9 5.2 32.52C5.19 31.9 5.2 31.82 5.28 31.82C5.32 31.82 5.33 31.83 5.32 31.9C5.29 32.22 5.29 32.4 5.32 32.62C5.35 32.75 5.37 32.9 5.37 32.95C5.37 33.05 5.41 33.11 5.47 33.11C5.49 33.11 5.5 33.07 5.5 33.03L5.53 32.81C5.56 32.67 5.55 32.6 5.5 32.67C5.4 32.84 5.31 32.4 5.38 32.06C5.4 31.96 5.45 31.98 5.45 32.07C5.45 32.12 5.47 32.17 5.49 32.2C5.5225 32.244 5.54316 32.2957 5.55 32.35C5.56 32.41 5.58 32.45 5.6 32.45C5.63 32.44 5.62 32.39 5.58 32.19C5.56 32.08 5.56 32.03 5.58 31.99C5.6 31.94 5.61 31.86 5.58 31.69C5.56466 31.604 5.56466 31.516 5.58 31.43C5.58703 31.416 5.5907 31.4006 5.5907 31.385C5.5907 31.3694 5.58703 31.354 5.58 31.34C5.57 31.32 5.58 31.29 5.59 31.26C5.64 31.21 5.69 29.82 5.65 29.82C5.61 29.82 5.55 29.96 5.55 30.05C5.55 30.09 5.55 30.12 5.53 30.12C5.48 30.12 5.56 29.71 5.63 29.63C5.67 29.58 5.68 29.16 5.63 29.13C5.59 29.1 5.63 28.87 5.67 28.83C5.71 28.81 5.72 28.71 5.74 28.36C5.76 28.09 5.79 27.84 5.82 27.74C5.97132 26.7211 6.15474 25.7073 6.37 24.7L6.5 24.13C6.6 23.71 6.82 22.94 6.97 22.48C7.12 22.04 7.14 21.94 7.04 22.11C6.93 22.31 6.7 23.06 6.54 23.73C6.51525 23.8392 6.48181 23.9462 6.44 24.05L6.36 24.38L6.2 25.06C6.08 25.51 6.03 25.8 5.98 26.18C5.95 26.45 5.94 26.52 5.9 26.52C5.86 26.52 5.87 26.32 5.92 26.05L5.96 25.68C5.96 25.6 5.98 25.42 6.01 25.28L6.09 24.82C6.36342 23.4755 6.77217 22.1622 7.31 20.9L7.53 20.34C7.79355 19.8161 8.03706 19.2824 8.26 18.74L8.49 18.3C8.69542 17.9534 8.88887 17.5999 9.07 17.24C9.26451 16.8666 9.47128 16.4997 9.69 16.14C11.0656 13.9408 12.7343 11.939 14.65 10.19C15.1419 9.75972 15.6454 9.3429 16.16 8.94L16.58 8.64C16.75 8.51 16.98 8.34 17.1 8.28L17.78 7.85C18.5637 7.32745 19.3785 6.85323 20.22 6.43L20.46 6.3L20.82 6.13C21.2206 5.93235 21.6312 5.75545 22.05 5.6C22.25 5.52 22.47 5.44 22.51 5.4L22.82 5.29C23.0542 5.2266 23.2846 5.14981 23.51 5.06C23.53 5.06 23.58 5.04 23.61 5.01C23.6762 4.97654 23.747 4.95296 23.82 4.94L24.42 4.76C25.1128 4.55301 25.8133 4.37288 26.52 4.22C29.234 3.66398 32.0203 3.55253 34.77 3.89C35.3478 3.92231 35.9226 3.99583 36.49 4.11C37.5022 4.31356 38.4956 4.60122 39.46 4.97C39.79 5.07 40.36 5.3 41.16 5.64C41.59 5.83 42 5.99 42.06 6.01C42.16 6.04 42.42 6.17 42.72 6.33C42.85 6.41 42.98 6.43 42.92 6.38C42.3736 6.04298 41.8019 5.74877 41.21 5.5L40.51 5.2C40.3596 5.13749 40.2097 5.07416 40.06 5.01C39.9547 4.96652 39.8479 4.9265 39.74 4.89C39.6682 4.86838 39.598 4.84165 39.53 4.81C39.4321 4.76794 39.3319 4.73122 39.23 4.7C39.0946 4.65209 38.9611 4.59871 38.83 4.54C38.6995 4.48552 38.566 4.43877 38.43 4.4C38.047 4.29703 37.6752 4.15634 37.32 3.98C37.28 3.93 37.22 3.91 36.99 3.85C36.9 3.83 36.89 3.78 36.99 3.78L37.42 3.88L37.93 4C38.11 4.02 38.33 4.08 38.56 4.16C39.7159 4.48297 40.8431 4.90107 41.93 5.41C42.19 5.51 42.73 5.78 43.12 5.99C43.32 6.11 43.5 6.19 43.53 6.19C43.56 6.19 43.63 6.23 43.68 6.26L43.88 6.39C43.9479 6.42112 44.0064 6.46937 44.05 6.53C44.09 6.6 44.18 6.66 44.25 6.66C44.34 6.66 44.75 6.89 44.91 7.04C45.01 7.12 45.11 7.2 45.15 7.21C45.2222 7.24002 45.2896 7.28044 45.35 7.33L45.56 7.49C45.7 7.57 46 7.8 46.09 7.89C46.13 7.93 46.19 7.96 46.21 7.96C46.24 7.96 46.29 8 46.33 8.04C46.4 8.12 46.49 8.14 46.53 8.09C46.53 8.08 46.51 8.04 46.48 8.02C46.2 7.82 45.36 7.13 45.35 7.09C45.33 7.03 45.15 6.88 44.92 6.74C44.8 6.66 44.78 6.64 44.79 6.58C44.81 6.49 44.69 6.38 44.46 6.26C44.089 6.09214 43.7452 5.86967 43.44 5.6C43.44 5.56 43.42 5.54 43.39 5.56C43.33 5.58 42.96 5.34 42.95 5.26C42.95 5.22 42.9 5.18 42.78 5.13C42.7024 5.0943 42.6287 5.05073 42.56 5C42.53 4.97 42.49 4.95 42.47 4.95C42.3 4.95 41.8 4.62 41.89 4.57C41.91 4.55 41.91 4.54 41.86 4.52L41.51 4.37C41.3172 4.28549 41.1238 4.20216 40.93 4.12C40.55 3.97 40.36 3.87 40.38 3.84C40.4 3.81 40.93 3.99 40.99 4.05C41.02 4.08 41.11 4.12 41.19 4.13C41.2739 4.1484 41.3547 4.1787 41.43 4.22L41.55 4.27C41.8946 4.38136 42.2292 4.52187 42.55 4.69C42.7932 4.80523 43.0272 4.93895 43.25 5.09L43.42 5.16C43.7 5.3 43.79 5.29 43.52 5.14C43.32 5.03 43.34 4.98 43.56 5.04L43.38 4.94C43.297 4.88806 43.2057 4.85084 43.11 4.83C42.7655 4.73121 42.4359 4.58658 42.13 4.4C41.8968 4.26332 41.6526 4.14625 41.4 4.05C41.38 4.02 41.3 3.99 41.23 3.97C41.0066 3.92281 40.7888 3.85243 40.58 3.76L40.05 3.56C39.9243 3.51232 39.8008 3.45893 39.68 3.4C39.5678 3.34808 39.4505 3.30787 39.33 3.28C39.11 3.23 39.03 3.2 39.03 3.16C39.03 3.15 39.05 3.13 39.07 3.13C39.1 3.12 39.07 3.1 38.99 3.07C38.86 3.01 38.81 3.02 38.87 3.09C38.92 3.16 38.84 3.17 38.72 3.11C38.642 3.07761 38.5618 3.05088 38.48 3.03C37.98 2.91 37.98 2.9 37.96 2.83C37.96 2.73 37.77 2.67 37.54 2.67C37.4777 2.67125 37.4159 2.65753 37.36 2.63C37.32 2.61 37.27 2.6 37.21 2.61C37.1427 2.61482 37.075 2.60806 37.01 2.59C36.9045 2.56432 36.7977 2.54429 36.69 2.53C36.55 2.52 36.46 2.49 36.42 2.46C36.3655 2.42232 36.3045 2.39518 36.24 2.38C36.1325 2.34927 36.0258 2.31593 35.92 2.28C35.8088 2.24956 35.6949 2.22947 35.58 2.22C35.495 2.2129 35.4112 2.19613 35.33 2.17C35.258 2.14791 35.1845 2.13119 35.11 2.12C35.05 2.11 34.98 2.08 34.97 2.06C34.95 2.04 34.89 2.03 34.75 2.04C34.65 2.04 34.51 2.04 34.45 2.02C34.35 2 34.31 2 34.28 2.02C34.24 2.06 34.08 2.02 33.97 1.96C33.9163 1.92669 33.8516 1.91591 33.79 1.93C33.7218 1.93932 33.6524 1.9289 33.59 1.9C33.5358 1.87786 33.4784 1.86436 33.42 1.86C33.26 1.86 33.2 1.79 33.34 1.76L33.42 1.75L33.35 1.67C33.26 1.57 33.19 1.57 33 1.61C32.91 1.64 32.8 1.63 32.52 1.61C32.3882 1.58496 32.254 1.5749 32.12 1.58C32.06 1.61 30.82 1.6 30.72 1.57C30.57 1.52 30.72 1.5 31.31 1.5H31.95L31.93 1.44C31.91 1.36 32.03 1.34 32.07 1.41C32.09 1.46 32.57 1.47 32.57 1.41C32.9263 1.44176 33.283 1.46843 33.64 1.49C33.7 1.52 33.98 1.54 34.26 1.55C34.5959 1.54825 34.9311 1.58177 35.26 1.65C35.37 1.65 35.54 1.68 35.64 1.7C36.518 1.8204 37.3867 2.00083 38.24 2.24C38.38 2.31 38.76 2.38 38.8 2.34C38.83 2.32 39.06 2.38 39.57 2.53C39.6 2.53 39.63 2.57 39.65 2.61C39.67 2.66 39.68 2.67 39.7 2.65C39.75 2.6 39.83 2.61 39.9 2.65C39.94 2.68 40.06 2.74 40.18 2.78C40.62 2.94 41.18 3.17 41.28 3.22C41.3143 3.24143 41.3513 3.25824 41.39 3.27C41.41 3.27 41.48 3.3 41.54 3.35C41.6079 3.39415 41.6821 3.42786 41.76 3.45C41.81 3.45 41.89 3.48 41.94 3.51C42.19 3.64 42.74 3.89 42.8 3.9L43 4C43.07 4.06 43.27 4.17 43.44 4.25C43.9304 4.47899 44.4019 4.74649 44.85 5.05C45.1 5.17 45.3 5.3 45.32 5.35C45.33 5.39 45.37 5.43 45.41 5.45C45.45 5.46 45.59 5.55 45.72 5.63C45.9731 5.78251 46.2334 5.92268 46.5 6.05C46.43 5.87 47.01 6.2 47.15 6.43C47.18 6.48 47.23 6.53 47.26 6.53L47.41 6.63C47.46 6.66 47.51 6.68 47.54 6.67C47.59 6.66 47.76 6.75 47.76 6.8C47.76 6.82 47.74 6.82 47.7 6.8C47.63 6.8 47.63 6.8 47.66 6.85C47.67 6.88 47.69 6.9 47.71 6.91H47.78C47.8926 6.94076 47.9957 6.9992 48.08 7.08C48.15 7.14 48.17 7.15 48.21 7.12C48.28 7.08 48.33 7.11 48.39 7.22C48.3983 7.24083 48.4119 7.25915 48.4295 7.27317C48.447 7.28719 48.4678 7.29643 48.49 7.3C48.53 7.3 48.6 7.35 48.65 7.41C49.0351 7.6975 49.4025 8.00807 49.75 8.34C49.88 8.46 50.02 8.58 50.09 8.6C50.21 8.65 50.33 8.78 50.33 8.87C50.33 8.94 50.39 9 50.44 8.97C50.49 8.96 50.91 9.39 51.11 9.67C51.31 9.96 51.61 10.23 51.61 10.14L51.48 9.95C51.4 9.85 51.34 9.76 51.34 9.72C51.34 9.67 51.29 9.59 51.17 9.46C51.093 9.37567 51.0228 9.28539 50.96 9.19C50.9175 9.1241 50.8672 9.06365 50.81 9.01C50.7704 8.97191 50.7366 8.92809 50.71 8.88C50.71 8.75 51.21 9.24 51.64 9.79C51.91 10.13 52.18 10.43 52.3 10.51C52.42 10.6 52.47 10.6 52.41 10.52C52.39 10.5 52.39 10.47 52.4 10.46C52.4 10.46 52.46 10.49 52.5 10.56C52.6 10.66 52.62 10.73 52.57 10.73C52.51 10.73 52.55 10.8 52.68 10.94C52.82 11.09 52.88 11.11 52.78 10.97C52.68 10.83 52.75 10.85 52.88 11C53.1268 11.3017 53.354 11.619 53.56 11.95C53.59 11.95 53.84 12.3 53.86 12.38L53.98 12.56C54.11 12.72 54.32 13.06 54.41 13.24C54.46 13.34 54.54 13.47 54.6 13.54C54.76 13.74 54.84 13.87 54.84 13.94C54.84 13.97 54.87 14.02 54.9 14.05C55.1 14.23 55.6 15.18 55.58 15.32C55.5741 15.3827 55.5881 15.4457 55.62 15.5C55.6486 15.5596 55.6656 15.6241 55.67 15.69C55.67 15.76 55.68 15.77 55.74 15.77C55.81 15.77 56.03 16.19 56.24 16.7C56.27 16.78 56.29 16.8 56.34 16.79C56.38 16.77 56.39 16.79 56.44 16.9C56.46 16.98 56.54 17.16 56.61 17.31L56.74 17.63C56.74 17.65 56.77 17.73 56.81 17.8L56.87 17.96C56.87 17.98 56.9 18.06 56.94 18.11C56.97 18.18 57.02 18.31 57.04 18.4C57.09 18.6 57.15 18.7 57.21 18.65C57.23 18.63 57.25 18.63 57.26 18.65C57.38 18.85 57.32 18.59 57.13 18.15C57.0589 17.9717 56.9922 17.7916 56.93 17.61C56.86 17.41 56.57 16.81 56.51 16.75C56.4186 16.5919 56.3449 16.4242 56.29 16.25C56.0143 15.5464 55.6798 14.8674 55.29 14.22C55.2262 14.0848 55.1527 13.9545 55.07 13.83C55.018 13.7602 54.9713 13.6866 54.93 13.61C54.9039 13.5585 54.8702 13.5113 54.83 13.47C54.77 13.41 54.34 12.77 54.21 12.53C54.095 12.3184 53.9611 12.1175 53.81 11.93C53.781 11.8914 53.7605 11.8471 53.75 11.8C53.73 11.74 53.69 11.7 53.67 11.68C53.5531 11.5587 53.4461 11.4283 53.35 11.29C52.9252 10.7167 52.4747 10.1628 52 9.63C51.9 9.51 51.82 9.39 51.8 9.35C51.78 9.25 51.67 9.12 51.6 9.1C51.54 9.09 51.2 8.75 50.5 8.04C50.3951 7.92033 50.2739 7.81597 50.14 7.73C50.0334 7.6263 49.9234 7.52624 49.81 7.43C49.5984 7.2418 49.3884 7.0518 49.18 6.86C48.7 6.43 48.48 6.26 48.1 5.98C47.899 5.84265 47.7023 5.69925 47.51 5.55C47.3987 5.46065 47.2854 5.37396 47.17 5.29C47.1032 5.24351 47.0365 5.19684 46.97 5.15C46.5488 4.85347 46.1186 4.57 45.68 4.3C45.4759 4.17454 45.2726 4.04787 45.07 3.92C44.8962 3.81493 44.7195 3.71489 44.54 3.62L43.98 3.3C42.2521 2.43205 40.452 1.71602 38.6 1.16C38.15 1.04 38.1 1.02 38.06 0.96C38.04 0.9 37.93 0.89 37.89 0.93C37.87 0.95 37.66 0.92 37.24 0.83C36.35 0.63 35.46 0.48 35.01 0.43C34.862 0.421354 34.7149 0.401294 34.57 0.37C34.47 0.32 34.41 0.3 34.18 0.29C34.0858 0.290752 33.9919 0.280686 33.9 0.26C33.8251 0.238077 33.7479 0.224659 33.67 0.22C33.5618 0.209443 33.4547 0.189365 33.35 0.16C33.2237 0.12216 33.0906 0.111929 32.96 0.13L32.61 0.12C32.46 0.08 32.01 0.05 32.01 0.09C32.01 0.11 32.04 0.12 32.1 0.12C32.15 0.12 32.19 0.13 32.19 0.15C32.19 0.2 31.85 0.18 31.83 0.12C31.81 0.05 31.69 0.03 30.99 0.02C30.7232 0.0187398 30.4565 0.0120718 30.19 0C30.09 0 29.69 0 29.3 0.03ZM28.61 0.25C28.61 0.28 28.51 0.31 28.41 0.31C28.31 0.31 28.33 0.26 28.43 0.25C28.59 0.23 28.61 0.23 28.61 0.25ZM27.46 0.98C27.46 1.02 27.41 1.03 27.21 1.05C27.09 1.07 27.04 1.06 27.04 1.05C27.04 1.02 27.1 1 27.29 0.98C27.44 0.96 27.46 0.96 27.46 0.98ZM37.28 1.36C37.53 1.41 37.64 1.42 37.67 1.4C37.73 1.36 38.04 1.44 38.1 1.5C38.12 1.53 38.17 1.55 38.24 1.55C38.2946 1.54649 38.3484 1.56443 38.39 1.6C38.44 1.65 38.63 1.7 39.07 1.82C40.37 2.14 40.69 2.26 42.35 2.95C43.197 3.34329 44.0247 3.77712 44.83 4.25C45.7199 4.76801 46.569 5.35303 47.37 6C47.52 6.11 47.57 6.32 47.43 6.22C47.3873 6.19537 47.3392 6.18163 47.29 6.18C47.25 6.18 47.16 6.14 47.09 6.08C46.9895 6.00272 46.8861 5.92933 46.78 5.86C46.6915 5.81216 46.616 5.74352 46.56 5.66C46.52 5.58 46.41 5.5 46.33 5.5C46.2662 5.48063 46.2079 5.44635 46.16 5.4C46.0641 5.33348 45.9638 5.27335 45.86 5.22C45.7707 5.16868 45.687 5.10837 45.61 5.04C45.49 4.92 45.31 4.77 45.29 4.77L45.09 4.66C45.0195 4.61171 44.9419 4.5746 44.86 4.55C44.79 4.55 44.56 4.42 44.54 4.37C44.3512 4.22355 44.1505 4.0931 43.94 3.98C43.8148 3.91687 43.6914 3.85018 43.57 3.78C41.6135 2.76756 39.5418 1.99529 37.4 1.48C36.92 1.38 36.68 1.32 36.68 1.29C36.68 1.26 36.81 1.27 37.28 1.37V1.36ZM33.53 1.74C33.53 1.76 33.58 1.78 33.65 1.79L33.83 1.81C33.9 1.83 33.88 1.79 33.8 1.75C33.72 1.71 33.53 1.71 33.53 1.75V1.74ZM33.03 1.8L33.02 1.84C32.98 1.87 32.75 1.83 32.75 1.8C32.75 1.77 33.01 1.77 33.03 1.8ZM34.43 2.15C34.46 2.15 34.49 2.17 34.49 2.19C34.49 2.21 34.34 2.19 34.29 2.16C34.25 2.14 34.28 2.09 34.32 2.11C34.3523 2.12574 34.3857 2.13911 34.42 2.15H34.43ZM39.12 2.82C39.1 2.87 39.12 2.9 39.21 2.92C39.25 2.94 39.31 2.96 39.32 2.98L39.51 3.08L39.65 3.13L39.64 3.07C39.64 3.03 39.59 3 39.47 2.96C39.37 2.92 39.31 2.88 39.29 2.84C39.27 2.77 39.14 2.75 39.12 2.82ZM39.49 3.54V3.57C39.46 3.59 39.27 3.51 39.27 3.48C39.27 3.46 39.46 3.5 39.49 3.54ZM40.04 3.67C40.18 3.72 40.27 3.81 40.17 3.81C40.0406 3.78107 39.9182 3.72668 39.81 3.65C39.79 3.6 39.85 3.61 40.04 3.68V3.67ZM40.7 4.22L40.94 4.32L41.17 4.42C41.37 4.49 41.45 4.54 41.37 4.54C41.27 4.54 40.47 4.2 40.47 4.16C40.47 4.12 40.45 4.12 40.7 4.22ZM44.11 5.34C44.43 5.54 44.2 5.51 43.77 5.29C43.64 5.23 43.78 5.33 43.93 5.41L44.18 5.57L44.43 5.71C44.5019 5.73917 44.5667 5.78351 44.62 5.84C44.66 5.91 44.9 6.06 44.97 6.06C44.99 6.06 45.06 6.1 45.11 6.16L45.36 6.32C45.43 6.36 45.65 6.49 45.83 6.62C46.18 6.86 46.33 6.94 46.33 6.91C46.33 6.88 46.09 6.7 45.87 6.56C45.77 6.49 45.69 6.43 45.69 6.39C45.69 6.35 45.66 6.34 45.62 6.35C45.58 6.35 45.52 6.33 45.45 6.29C45.32 6.2 45.29 6.14 45.39 6.16C45.44 6.18 45.45 6.17 45.42 6.14C45.37 6.08 45.17 5.97 45.17 6C45.17 6.06 45.09 6.03 44.92 5.94C44.72 5.83 44.7 5.8 44.74 5.75C44.78 5.71 44.73 5.65 44.56 5.57C44.4834 5.53245 44.4098 5.48899 44.34 5.44C44.26 5.37 44.01 5.24 43.98 5.24L44.11 5.34ZM43.74 5.59L44.04 5.77C44.28 5.92 44.67 6.14 44.69 6.14C44.75 6.14 44.69 6.07 44.63 6.07C44.541 6.03165 44.4596 5.97743 44.39 5.91C44.29 5.81 44.21 5.76 44.17 5.77C44.15 5.77 44.08 5.76 44.03 5.72C43.8865 5.63121 43.736 5.55429 43.58 5.49C43.6292 5.52961 43.6829 5.56318 43.74 5.59ZM45.49 6.69C45.52 6.74 45.58 6.79 45.62 6.82C45.83 6.93 46.02 7.06 46.14 7.15C46.28 7.27 46.51 7.4 46.51 7.36L46.44 7.29C46.3654 7.23494 46.2921 7.17826 46.22 7.12C46.1238 7.04782 46.0236 6.98105 45.92 6.92C45.8169 6.85814 45.7168 6.7914 45.62 6.72C45.45 6.58 45.42 6.57 45.49 6.69ZM48.14 6.74C48.24 6.82 48.27 6.87 48.22 6.87C48.1283 6.81873 48.047 6.75092 47.98 6.67C47.98 6.63 48.04 6.66 48.14 6.74ZM46.41 6.92C46.31 6.94 46.51 7.13 47.03 7.49L47.64 7.99L48.19 8.45C48.41 8.62 48.89 9.07 49.37 9.57C49.8 10 49.9 10.09 49.9 10.02L49.55 9.62C49.15 9.2 49.19 9.24 48.7 8.79C48.5647 8.66881 48.4314 8.54546 48.3 8.42C48.246 8.367 48.1893 8.31693 48.13 8.27C48.06 8.21 48.01 8.15 48.01 8.12C48.01 8.07 47.79 7.85 47.65 7.76C47.6074 7.72998 47.5672 7.69654 47.53 7.66C47.42 7.56 46.51 6.9 46.49 6.9C46.4634 6.90702 46.4368 6.91369 46.41 6.92ZM48.53 7.09C48.63 7.19 48.65 7.25 48.57 7.2C48.47 7.14 48.34 7.01 48.39 7.01L48.53 7.09ZM46.78 7.59L47.17 7.89C47.27 7.95 47.17 7.84 47.05 7.75C46.89 7.63 46.78 7.57 46.78 7.59ZM46.68 7.72C46.7469 7.79576 46.8285 7.85702 46.92 7.9C46.96 7.9 46.92 7.86 46.82 7.78C46.69 7.68 46.66 7.67 46.68 7.72ZM47.58 7.77C47.63 7.81 47.66 7.85 47.66 7.87C47.64 7.87 47.44 7.74 47.44 7.71C47.44 7.67 47.5 7.69 47.58 7.77ZM49.13 7.95C49.13 7.99 49.23 8.08 49.25 8.05V8C49.21 7.95 49.13 7.92 49.13 7.96V7.95ZM47.36 8.28C47.36 8.3 47.38 8.32 47.39 8.33C47.44 8.35 47.42 8.4 47.36 8.38C47.19 8.32 47.5 8.61 47.68 8.68C47.84 8.73 47.85 8.71 47.72 8.56C47.49 8.29 47.37 8.2 47.37 8.28H47.36ZM50.6 8.68C50.68 8.76 50.7 8.8 50.65 8.8C50.6 8.8 50.49 8.69 50.49 8.65C50.49 8.59 50.52 8.6 50.6 8.68ZM9.51 9.23C9.51 9.27 9.31 9.49 9.28 9.47L9.36 9.33C9.46 9.21 9.51 9.18 9.51 9.23ZM50.14 10.33C50.14 10.36 50.36 10.59 50.39 10.59C50.44 10.59 50.39 10.49 50.31 10.39C50.2 10.29 50.14 10.26 50.14 10.33ZM50.84 10.37C50.84 10.4 51.02 10.57 51.04 10.56C51.06 10.53 50.97 10.41 50.9 10.38C50.87 10.36 50.84 10.36 50.84 10.37ZM51.5 10.66C51.5 10.69 51.62 10.83 51.66 10.83C51.71 10.83 51.7 10.74 51.64 10.69C51.6 10.65 51.5 10.63 51.5 10.66ZM52.2 11.13L52.34 11.33C52.53 11.55 52.74 11.83 52.84 11.96C52.92 12.09 53.03 12.16 53.03 12.08C53.03 12.04 52.86 11.78 52.73 11.6C52.6782 11.5393 52.6345 11.472 52.6 11.4C52.574 11.3393 52.5404 11.2822 52.5 11.23C52.41 11.08 52.33 11 52.33 11.05C52.33 11.08 52.23 11.09 52.21 11.05C52.16 10.97 52.15 11.05 52.2 11.13ZM7 11.33C6.97 11.39 6.9 11.51 6.83 11.59C6.73 11.74 6.71 11.79 6.77 11.79C6.81 11.79 7 11.49 7.08 11.32C7.15 11.18 7.1 11.19 7.01 11.32L7 11.33ZM53.95 13.03C53.96 13.08 54.01 13.18 54.06 13.25C54.1049 13.3126 54.1356 13.3843 54.15 13.46C54.15 13.5 54.17 13.56 54.19 13.59L54.47 14.12L54.91 14.93C55.09 15.26 55.15 15.39 55.18 15.52C55.2 15.59 55.17 15.6 55.12 15.53C55.07 15.45 55.05 15.52 55.1 15.61C55.14 15.68 55.17 15.71 55.24 15.71C55.37 15.71 55.56 16 55.56 16.18C55.56 16.23 55.59 16.31 55.62 16.38C55.66 16.45 55.67 16.5 55.66 16.55C55.63 16.66 55.7 16.83 55.87 17.05C55.94 17.13 56.3 17.96 56.41 18.28C56.53 18.64 56.65 18.95 56.75 19.14C56.81 19.24 56.92 19.54 57.01 19.79C57.15 20.22 57.22 20.36 57.26 20.32C57.28 20.31 57.08 19.72 56.98 19.49C56.9296 19.3772 56.8894 19.26 56.86 19.14C56.7962 18.8561 56.6988 18.5809 56.57 18.32C56.5068 18.1874 56.4534 18.0504 56.41 17.91C56.3614 17.7505 56.3046 17.5937 56.24 17.44C56.1 17.1 56.09 17.06 56.2 17.09C56.27 17.11 56.28 17.08 56.21 16.99C56.11 16.87 55.99 16.54 56.01 16.49C56.05 16.41 55.81 15.93 55.73 15.89C55.66 15.86 55.53 15.62 55.5 15.47C55.5 15.41 55.46 15.35 55.43 15.34C55.36 15.3 55.27 15.13 55.27 15.03C55.2644 14.9471 55.2441 14.8658 55.21 14.79C55.11 14.58 55.04 14.54 55.12 14.75C55.19 14.91 55.06 14.75 54.89 14.45C54.7961 14.2809 54.6926 14.1173 54.58 13.96C54.4092 13.7414 54.2866 13.4893 54.22 13.22C54.23 13.14 54.08 12.95 53.99 12.95C53.95 12.95 53.94 12.96 53.95 13.04V13.03ZM51.65 13.59C51.66 13.67 52.65 15.17 52.68 15.17C52.73 15.17 52.7 15.11 52.43 14.67C51.93 13.87 51.59 13.4 51.64 13.59H51.65ZM55.56 17.09C55.56 17.15 55.73 17.48 55.76 17.48C55.79 17.48 55.76 17.41 55.68 17.22C55.63 17.09 55.56 17.02 55.56 17.1V17.09ZM56.89 17.65L56.95 17.79C56.95 17.79 56.95 17.81 56.92 17.81C56.89 17.81 56.79 17.61 56.79 17.56C56.79 17.5 56.85 17.55 56.89 17.65ZM56.07 18.3C56.07 18.35 56.38 19.1 56.42 19.15C56.47 19.21 56.48 19.18 56.45 19.05C56.38 18.73 56.07 18.12 56.07 18.3ZM1.3 18.72C0.792377 20.0366 0.400885 21.3951 0.13 22.78C0 23.47 -0.01 23.52 0.03 23.49C0.05 23.46 0.13 23.17 0.23 22.61C0.34 22.09 0.42 21.79 0.63 21.06C0.93 19.94 1.02 19.66 1.19 19.19C1.41 18.57 1.46 18.36 1.29 18.72H1.3ZM55.42 18.67C55.42 18.71 55.49 18.87 55.57 19.02C55.6547 19.1931 55.7314 19.3699 55.8 19.55C55.98 19.93 56.1 20.23 56.1 20.3C56.1 20.37 56.2 20.56 56.22 20.54C56.1003 20.0799 55.9396 19.6315 55.74 19.2C55.7185 19.1669 55.7048 19.1292 55.7 19.09C55.7001 19.073 55.6966 19.0562 55.6897 19.0407C55.6828 19.0252 55.6727 19.0113 55.66 19C55.6114 18.9317 55.5712 18.8578 55.54 18.78C55.45 18.59 55.38 18.53 55.42 18.67ZM56.7 19.94C56.73 20.07 56.79 20.19 56.82 20.19C56.86 20.19 56.85 20.14 56.79 20.01C56.73 19.87 56.67 19.82 56.69 19.94H56.7ZM58.6 20.26C58.6854 20.6278 58.7754 20.9945 58.87 21.36C59.03 21.93 59.41 23.89 59.49 24.48C59.55 24.9 59.59 25.1 59.59 24.89C59.59 24.77 59.52 24.2 59.47 23.89L59.34 23.25C59.2 22.5 59.17 22.32 59.1 22.09C59.0617 21.9378 59.0283 21.7844 59 21.63C58.9446 21.3465 58.8745 21.0662 58.79 20.79C58.7529 20.6668 58.7162 20.5435 58.68 20.42C58.6649 20.3539 58.6414 20.2901 58.61 20.23C58.59 20.21 58.59 20.23 58.6 20.26ZM7.5 20.87C7.46 20.92 7.32 21.29 7.32 21.32C7.32 21.38 7.4 21.25 7.47 21.09C7.53 20.92 7.55 20.78 7.49 20.87H7.5ZM2.57 22.37C2.5622 22.423 2.5622 22.477 2.57 22.53V22.65L2.64 22.53C2.69 22.43 2.69 22.41 2.67 22.38C2.63 22.33 2.59 22.33 2.57 22.38V22.37ZM2.41 22.42L2.28 22.8C2.22 23 2.14 23.17 2.12 23.2C2.10836 23.2137 2.09968 23.2296 2.09452 23.2469C2.08936 23.2641 2.08782 23.2822 2.09 23.3C2.09 23.34 2.09 23.49 2.05 23.64L2 23.9C2 23.9 2.02 23.9 2.04 23.87C2.14 23.79 2.26 23.43 2.23 23.33C2.23 23.3 2.27 23.1 2.35 22.87L2.48 22.42C2.48 22.38 2.44 22.37 2.41 22.41V22.42ZM57.51 23.02C57.51 23.13 57.61 23.53 57.63 23.52C57.68 23.51 57.68 23.39 57.63 23.21C57.56 23.03 57.51 22.94 57.51 23.01V23.02ZM0 23.53L0.01 23.55C0.0126522 23.5527 0.0162493 23.5541 0.02 23.5541C0.0237507 23.5541 0.0273478 23.5527 0.03 23.55C0.0326522 23.5473 0.0341421 23.5438 0.0341421 23.54C0.0341421 23.5363 0.0326522 23.5327 0.03 23.53C0.0313261 23.5273 0.0315443 23.5243 0.0306066 23.5215C0.0296689 23.5187 0.0276522 23.5163 0.025 23.515C0.0223478 23.5137 0.0192775 23.5135 0.0164645 23.5144C0.0136514 23.5153 0.0113261 23.5173 0.01 23.52C0.00734783 23.52 0.0048043 23.5211 0.00292893 23.5229C0.00105357 23.5248 0 23.5273 0 23.53ZM1.56 24.36C1.54299 24.4186 1.53292 24.479 1.53 24.54C1.51 24.75 1.58 24.74 1.61 24.52C1.62 24.38 1.61 24.29 1.56 24.36ZM57.38 24.96C57.36 24.97 57.35 25.06 57.37 25.31L57.4 26.08C57.4 26.32 57.42 26.56 57.43 26.61C57.45 26.66 57.47 26.91 57.49 27.15C57.52 27.58 57.54 27.7 57.62 27.7C57.63 27.7 57.65 27.53 57.66 27.34C57.6587 27.1798 57.6654 27.0196 57.68 26.86C57.66 26.86 57.65 26.88 57.65 26.9C57.65 26.94 57.65 26.94 57.62 26.92C57.57 26.87 57.55 26.54 57.59 26.49C57.62 26.46 57.62 26.39 57.59 26.22C57.57 26.05 57.57 25.97 57.59 25.95C57.63 25.91 57.63 25.65 57.59 25.49C57.5642 25.4156 57.5475 25.3384 57.54 25.26C57.54 25.06 57.46 24.91 57.38 24.96ZM1.43 25.44C1.36 25.7 1.31 26.44 1.37 26.44C1.39 26.44 1.41 26.41 1.42 26.34C1.49 25.89 1.5 25.2 1.43 25.44ZM0.56 25.53L0.55 25.55C0.55 25.55 0.53 25.55 0.52 25.53L0.53 25.5C0.55 25.5 0.56 25.51 0.56 25.53ZM0.46 26.57C0.46 26.62 0.44 26.67 0.43 26.67C0.41 26.67 0.4 26.62 0.4 26.57C0.4 26.52 0.41 26.47 0.43 26.47L0.45 26.57H0.46ZM58.86 26.87C58.8721 26.9191 58.8788 26.9694 58.88 27.02C58.8775 27.1267 58.8775 27.2333 58.88 27.34C58.88 27.69 58.79 27.64 58.74 27.26C58.7 26.96 58.81 26.59 58.87 26.86L58.86 26.87ZM1.32 27.05C1.29 27.09 1.24 27.69 1.26 27.71C1.31 27.76 1.33 27.66 1.36 27.35C1.36 27.04 1.36 26.98 1.32 27.05ZM0.51 27.56C0.51 27.58 0.52 27.59 0.53 27.59C0.53394 27.59 0.537841 27.5892 0.54148 27.5877C0.54512 27.5862 0.548427 27.584 0.551213 27.5812C0.553999 27.5784 0.556209 27.5751 0.557716 27.5715C0.559224 27.5678 0.56 27.5639 0.56 27.56C0.56 27.5561 0.559224 27.5522 0.557716 27.5485C0.556209 27.5449 0.553999 27.5416 0.551213 27.5388C0.548427 27.536 0.54512 27.5338 0.54148 27.5323C0.537841 27.5308 0.53394 27.53 0.53 27.53C0.523865 27.5322 0.518598 27.5362 0.51499 27.5417C0.511383 27.5471 0.509632 27.5535 0.51 27.56ZM58.85 28.33C58.8728 28.8464 58.8861 29.3631 58.89 29.88C58.91 30.47 58.89 31.06 58.81 31.72L58.74 32.35C58.734 32.4343 58.7206 32.518 58.7 32.6C58.66 32.64 58.66 32.55 58.69 32.23L58.75 30.91C58.77 30.37 58.78 29.88 58.8 29.81C58.8143 29.7429 58.8073 29.673 58.78 29.61C58.6976 28.976 58.6976 28.334 58.78 27.7C58.81 27.7 58.82 27.85 58.84 28.33H58.85ZM59.35 28.16C59.41 28.62 59.4 28.73 59.31 28.64C59.2709 28.3918 59.2675 28.1392 59.3 27.89C59.31 27.89 59.34 28.01 59.35 28.16ZM1.29 28.44C1.29 28.58 1.31 28.65 1.34 28.68C1.4 28.74 1.41 29.13 1.36 29.47C1.33 29.74 1.36 29.97 1.42 29.97C1.45 29.97 1.47 29.96 1.47 29.93C1.47281 29.8934 1.48677 29.8585 1.51 29.83C1.57 29.77 1.61 28.73 1.55 28.73C1.54 28.73 1.52 28.75 1.52 28.77C1.52 28.79 1.52 28.81 1.5 28.81C1.48 28.81 1.47 28.75 1.47 28.68C1.47 28.58 1.47 28.56 1.43 28.58C1.36 28.6 1.33 28.55 1.33 28.38C1.33 28.3 1.33 28.24 1.31 28.24C1.29 28.24 1.28 28.3 1.29 28.44ZM1.05 28.47C1.05338 28.5114 1.06351 28.5519 1.08 28.59C1.11 28.62 1.13 28.57 1.11 28.47C1.08 28.34 1.03 28.34 1.05 28.47ZM5.45 30.07C5.45 30.55 5.45 30.65 5.49 30.68C5.54 30.73 5.54 30.98 5.49 31.08C5.37 31.33 5.27 30.02 5.38 29.61C5.43 29.39 5.45 29.48 5.45 30.07ZM59.46 30.12C59.45 30.32 59.39 30.37 59.39 30.17C59.39 30.02 59.4 29.95 59.44 29.95C59.46 29.95 59.47 30.02 59.46 30.12ZM0.64 30.54C0.64 30.69 0.65 30.79 0.67 30.79C0.69 30.79 0.69 30.69 0.69 30.55C0.69 30.4 0.69 30.3 0.67 30.3C0.65 30.3 0.64 30.4 0.64 30.55V30.54ZM5.47 31.57C5.47 31.63 5.45 31.67 5.44 31.67C5.42 31.67 5.41 31.62 5.4 31.57C5.4 31.49 5.4 31.47 5.44 31.47C5.47 31.47 5.48 31.49 5.47 31.57ZM1 32.59C1 32.66 1.02 32.71 1.04 32.72C1.06 32.72 1.07 32.7 1.06 32.62C1.06 32.46 1 32.44 1 32.6V32.59ZM56.9 33.19C56.85 33.31 56.88 33.45 56.94 33.4C56.99 33.36 56.99 33.27 56.94 33.2C56.91 33.15 56.9 33.15 56.89 33.19H56.9ZM5.18 33.27C5.18 33.31 5.2 33.35 5.21 33.37C5.22 33.37 5.24 33.34 5.24 33.28C5.24 33.23 5.22 33.18 5.21 33.18C5.19 33.18 5.18 33.22 5.18 33.27ZM1.37 33.57C1.37 33.71 1.4 33.9 1.42 34C1.45 34.1 1.46 34.19 1.44 34.21C1.4 34.31 1.47 34.87 1.54 34.92C1.57 34.95 1.57 34.94 1.56 34.8C1.54 34.63 1.58 34.6 1.63 34.75C1.71 34.99 1.73 34.76 1.65 34.45L1.47 33.47C1.47 33.42 1.39 33.32 1.36 33.32V33.57H1.37ZM5.22 33.55C5.24 33.73 5.27 33.79 5.3 33.7C5.30804 33.6015 5.28344 33.5031 5.23 33.42C5.21 33.4 5.21 33.44 5.22 33.55ZM57.22 34.35C57.22 34.43 57.19 34.46 57.16 34.41C57.14 34.38 57.17 34.27 57.2 34.27L57.22 34.35ZM59.23 34.66C59.21 34.7 59.19 34.73 59.17 34.73C59.14 34.73 59.14 34.66 59.17 34.59C59.22 34.51 59.27 34.57 59.23 34.66ZM56.89 34.82C56.8983 34.8867 56.8949 34.9544 56.88 35.02C56.85 35.12 56.87 35.25 56.9 35.25C56.92 35.25 56.93 35.22 56.93 35.18C56.93 35.1 56.95 35.03 56.99 35.03C56.9713 35.1558 56.9613 35.2828 56.96 35.41C56.8877 35.8791 56.7739 36.341 56.62 36.79C56.56 36.87 56.55 36.94 56.59 36.99C56.62 37.02 56.62 37.04 56.59 37.15C56.54 37.29 56.49 37.33 56.52 37.21L56.53 37.13L56.46 37.21C56.4262 37.2468 56.4021 37.2915 56.39 37.34C56.39 37.37 56.39 37.39 56.37 37.4C56.34 37.42 56.3 37.27 56.33 37.22C56.38 37.14 56.39 36.96 56.33 36.97C56.29 36.99 56.3 36.82 56.38 36.61L56.43 36.37C56.522 35.8323 56.6489 35.3012 56.81 34.78C56.83 34.68 56.87 34.69 56.89 34.82ZM1.76 35.17C1.76 35.27 1.79 35.36 1.83 35.36C1.88 35.36 1.88 35.24 1.84 35.16C1.81 35.09 1.76 35.1 1.76 35.17ZM59.78 35.39C59.74 35.5 59.73 35.79 59.77 35.79C59.79 35.78 59.81 35.71 59.82 35.63L59.85 35.43C59.85 35.37 59.79 35.33 59.78 35.39ZM5.34 35.61C5.34 35.68 5.42 35.76 5.49 35.76C5.55 35.76 5.54 35.75 5.46 35.64C5.37 35.53 5.34 35.52 5.34 35.61ZM5.59 35.82C5.61 35.87 5.79 36.02 5.81 36V35.94C5.8 35.89 5.57 35.77 5.59 35.82ZM59.64 36.03C59.623 36.0721 59.6096 36.1156 59.6 36.16C59.5878 36.2169 59.5744 36.2736 59.56 36.33C59.54 36.38 59.55 36.39 59.57 36.38C59.6 36.38 59.62 36.35 59.62 36.32C59.6285 36.2862 59.6458 36.2551 59.67 36.23C59.71 36.19 59.72 36.01 59.68 36.01C59.6722 36.01 59.6646 36.0118 59.6576 36.0153C59.6507 36.0187 59.6447 36.0238 59.64 36.03ZM4.71 36.33C4.74 36.43 4.76 36.45 4.8 36.45C4.85 36.45 4.85 36.45 4.93 36.82L5.01 37.12C5.17495 37.653 5.29865 38.198 5.38 38.75C5.33 38.75 5.23 38.57 5.2 38.44C5.18 38.35 5.15 38.3 5.13 38.3C5.09 38.3 5.09 38.3 5.12 38.43C5.15 38.58 5.08 38.5 5.03 38.35C5.00992 38.2698 4.97968 38.1925 4.94 38.12C4.9013 38.0481 4.8743 37.9704 4.86 37.89C4.82317 37.7093 4.78317 37.5293 4.74 37.35C4.69526 37.1757 4.66186 36.9986 4.64 36.82L4.63 36.64C4.63 36.62 4.61 36.6 4.58 36.6C4.53 36.6 4.52 36.58 4.49 36.45C4.47 36.33 4.5 36.25 4.53 36.35C4.56 36.45 4.59 36.42 4.58 36.32C4.54 36.09 4.64 36.1 4.71 36.33ZM59.37 36.31C59.3405 36.3868 59.3236 36.4678 59.32 36.55C59.3138 36.6351 59.297 36.7191 59.27 36.8C59.22 36.89 59.27 36.95 59.36 36.94C59.44 36.94 59.56 36.48 59.48 36.44C59.45 36.42 59.44 36.39 59.45 36.34C59.47 36.24 59.43 36.23 59.38 36.31H59.37ZM2.45 37.78C2.48 37.88 2.46 37.93 2.41 37.88C2.38503 37.8403 2.36804 37.7962 2.36 37.75C2.34 37.62 2.4 37.65 2.45 37.78ZM58.64 38.6L58.6 38.72V38.75C58.63 38.75 58.7 38.55 58.68 38.54C58.68 38.53 58.65 38.56 58.64 38.6ZM54.58 39.24C54.5603 39.2696 54.5499 39.3044 54.55 39.34C54.5446 39.4113 54.5312 39.4817 54.51 39.55C54.46 39.73 54.48 39.73 54.56 39.54C54.67 39.28 54.68 39.14 54.58 39.24ZM54.41 39.81C54.3804 39.8769 54.3504 39.9435 54.32 40.01C54.26 40.16 54.26 40.17 54.31 40.11C54.34 40.08 54.38 40.05 54.41 40.05C54.43 40.05 54.44 40.01 54.43 39.92C54.43 39.77 54.43 39.76 54.41 39.82V39.81ZM3.21 39.94C3.27 40.07 3.27 40.11 3.24 40.11C3.18528 40.0321 3.14778 39.9435 3.13 39.85C3.13 39.8 3.18 39.85 3.22 39.95L3.21 39.94ZM5.85 39.91C5.85 39.94 5.89 40.01 5.93 40.06C6.01 40.16 6.03 40.12 5.99 39.99C5.95 39.89 5.85 39.84 5.85 39.91ZM53.56 41.02C53.56 41.1 53.49 41.18 53.46 41.15C53.43 41.12 53.44 41.1 53.46 41.05C53.5 40.96 53.56 40.95 53.56 41.02ZM4.73 41.48C4.8 41.64 4.82 41.73 4.79 41.73C4.76 41.73 4.68 41.55 4.64 41.41C4.6 41.3 4.68 41.35 4.73 41.48ZM53.31 41.54C53.1295 42.0119 52.8838 42.4562 52.58 42.86C52.48 42.96 52.48 42.92 52.61 42.66C52.73 42.45 52.74 42.41 52.69 42.43L52.65 42.42C52.65 42.36 52.71 42.25 52.75 42.24C52.79 42.22 52.8 42.26 52.75 42.34C52.71 42.44 52.75 42.38 52.83 42.25C53 41.98 53.03 41.93 53.03 41.83C53.03 41.66 53.18 41.43 53.29 41.43C53.32 41.43 53.32 41.46 53.31 41.53V41.54ZM5.15 42.49C5.36073 42.9048 5.5608 43.3249 5.75 43.75C5.85 43.97 5.79 44 5.67 43.78C5.63377 43.7152 5.59015 43.6548 5.54 43.6C5.47421 43.5357 5.43195 43.4512 5.42 43.36C5.40224 43.2854 5.3718 43.2143 5.33 43.15C5.20836 42.9538 5.11415 42.7418 5.05 42.52C5.02105 42.4186 4.98769 42.3185 4.95 42.22C4.93584 42.1846 4.92577 42.1477 4.92 42.11C4.92 42.04 4.99 42.15 5.15 42.49ZM7 43.59C7.1 43.76 7.14 43.87 7.08 43.83C6.98704 43.7049 6.90665 43.5709 6.84 43.43C6.84 43.37 6.9 43.43 7 43.59ZM5.11 43.87C5.2 44.04 5.19 44.15 5.11 43.98C5.01 43.82 5.01 43.79 5.05 43.79L5.11 43.87ZM7.27 44.12C7.37 44.32 7.37 44.31 7.27 44.29C7.19 44.27 7.11 44.11 7.13 44.01C7.14 43.91 7.17 43.93 7.27 44.12ZM6 44.2C6.08 44.36 6.03 44.39 5.94 44.24C5.87 44.14 5.86 44.12 5.92 44.12C5.94 44.12 5.97 44.16 6 44.2ZM7.3 44.48C7.34 44.56 7.39 44.6 7.41 44.59C7.45 44.58 7.61 44.78 7.61 44.84C7.61 44.86 7.64 44.89 7.68 44.91C7.78 44.99 7.88 45.2 7.82 45.24C7.77 45.28 7.77 45.28 7.84 45.42C7.88 45.49 7.9 45.56 7.88 45.56C7.81 45.56 7.48 45.13 7.48 45.04C7.46778 44.9935 7.44747 44.9495 7.42 44.91C7.37779 44.8447 7.33777 44.778 7.3 44.71C7.27 44.66 7.23 44.62 7.2 44.62C7.18568 44.6202 7.17176 44.6153 7.16075 44.6061C7.14975 44.5969 7.14239 44.5841 7.14 44.57C7.13 44.52 7.14 44.52 7.17 44.55C7.24 44.61 7.26 44.56 7.21 44.48C7.17 44.41 7.17 44.36 7.21 44.36L7.29 44.48H7.3ZM56.2 44.45C56.2 44.46 56.18 44.49 56.14 44.5C56.1 44.52 56.04 44.62 55.96 44.77L55.72 45.2C55.62 45.37 55.6 45.41 55.63 45.43C55.67 45.45 55.66 45.47 55.6 45.57C55.5714 45.6125 55.5511 45.66 55.54 45.71C55.57 45.74 55.7 45.57 55.82 45.35L56.06 44.93C56.17 44.74 56.29 44.46 56.26 44.43C56.24 44.41 56.21 44.42 56.21 44.45H56.2ZM7.51 45.28C7.64 45.45 7.75 45.63 7.77 45.66C7.83 45.77 7.97 45.96 8.07 46.05C8.13 46.09 8.17 46.15 8.17 46.18C8.17 46.21 8.22 46.27 8.27 46.31C8.39 46.41 8.57 46.69 8.58 46.81C8.61 46.96 8.68 47.13 8.74 47.15C8.79582 47.1906 8.84335 47.2415 8.88 47.3C9.05 47.55 9.1 47.6 9.16 47.58C9.23 47.56 9.23 47.53 9.16 47.43L9.12 47.33C9.15 47.3 9.22 47.36 9.39 47.58C9.49 47.72 9.61 47.85 9.66 47.88C9.82 48 9.91 48.13 9.9 48.21C9.88 48.31 9.96 48.4 9.98 48.31C10 48.23 10.04 48.23 10.11 48.31L10.44 48.66C10.68 48.91 10.71 48.96 10.71 49.04C10.71 49.14 10.81 49.24 10.88 49.24C10.92 49.24 11.14 49.45 11.14 49.49C11.14 49.5 11.17 49.53 11.21 49.53L11.47 49.71L11.67 49.87C11.9132 50.1719 12.1881 50.4468 12.49 50.69C12.52 50.7 12.66 50.83 12.79 50.96C12.94 51.13 13.09 51.25 13.19 51.32C13.29 51.37 13.39 51.43 13.41 51.46C13.4336 51.4846 13.4659 51.499 13.5 51.5C13.57 51.5 13.86 51.73 13.88 51.8C13.88 51.85 13.91 51.88 13.93 51.88C13.98 51.88 14.37 52.23 14.36 52.26H14.28C14.2 52.22 14.16 52.24 14.22 52.31C14.24 52.33 14.25 52.37 14.25 52.38C14.23 52.43 14.37 52.53 14.45 52.53C14.52 52.53 14.62 52.59 14.83 52.75C15 52.87 15.16 52.98 15.2 52.99C15.3126 53.0259 15.4154 53.0875 15.5 53.17C15.5558 53.2159 15.6205 53.25 15.69 53.27C15.81 53.31 16.34 53.63 16.49 53.75C16.59 53.83 16.49 53.85 16.35 53.77C16.0378 53.5561 15.7023 53.3783 15.35 53.24C15.39 53.31 15.27 53.29 15.2 53.22C15.1 53.09 14.86 52.94 14.78 52.94C14.71 52.94 14.54 52.84 14.4 52.7C14.3378 52.6501 14.2708 52.6066 14.2 52.57C14.1176 52.5254 14.0405 52.4717 13.97 52.41C13.8739 52.3221 13.7738 52.2387 13.67 52.16C13.1249 51.7617 12.6071 51.3274 12.12 50.86C12.09 50.89 12.16 50.99 12.31 51.13C12.44 51.25 12.48 51.31 12.43 51.31C12.3647 51.2707 12.3042 51.2237 12.25 51.17C12.1334 51.0692 12.0133 50.9725 11.89 50.88C11.59 50.65 11.13 50.25 10.49 49.67C10.3637 49.5496 10.2371 49.4296 10.11 49.31C9.89 49.08 9.72 48.95 9.68 48.96C9.6 48.98 9.05 48.41 9.08 48.33C9.08 48.29 9.08 48.27 9.05 48.27C9.02 48.27 8.95 48.21 8.89 48.13C8.80088 48.0261 8.70746 47.9261 8.61 47.83C8.34 47.55 7.91 47.03 7.72 46.73L7.52 46.44C7.25507 46.0686 7.05242 45.6566 6.92 45.22C6.96 45.19 7.05 45.3 7.05 45.36C7.05 45.4 7.19 45.59 7.22 45.59C7.26 45.59 7.21 45.41 7.14 45.32C7.08 45.22 7.06 45.14 7.1 45.16C7.14 45.17 7.36 45.51 7.46 45.71C7.56 45.89 7.62 46.01 7.83 46.32C7.87486 46.3854 7.91179 46.4559 7.94 46.53C7.97 46.66 8.12 46.81 8.2 46.81H8.28L8.24 46.71C8.19084 46.6273 8.13744 46.5472 8.08 46.47C7.99719 46.3472 7.92043 46.2203 7.85 46.09C7.80299 45.9964 7.74953 45.9062 7.69 45.82C7.58471 45.6744 7.49741 45.5166 7.43 45.35C7.40619 45.279 7.37253 45.2117 7.33 45.15C7.29584 45.0956 7.26576 45.0388 7.24 44.98C7.24 44.92 7.32 45 7.51 45.28ZM6.01 45.4C6.21 45.78 6.18 45.87 5.97 45.54C5.79 45.27 5.77 45.21 5.78 45.18C5.82 45.12 5.9 45.21 6.01 45.4ZM8.65 46C9.08 46.5 9.13 46.59 9.06 46.59C9.04 46.59 8.86 46.37 8.76 46.24C8.68807 46.1429 8.61131 46.0494 8.53 45.96C8.39 45.8 8.33 45.69 8.37 45.69L8.65 46ZM8.88 46.67C9 46.82 9.03 46.89 8.98 46.89C8.94 46.89 8.74 46.65 8.72 46.59C8.69 46.46 8.75 46.49 8.88 46.67ZM9.29 47.15C9.42 47.29 9.46 47.38 9.41 47.38C9.37 47.38 9.11 47.09 9.11 47.04C9.11 46.96 9.15 46.99 9.29 47.15ZM7.51 47.33C7.58 47.46 7.75 47.64 7.79 47.63C7.87 47.61 8.25 48.21 8.19 48.26C8.13 48.32 7.34 47.36 7.39 47.29C7.42 47.25 7.48 47.26 7.51 47.33ZM9.76 47.65L9.82 47.75C9.8 47.77 9.64 47.62 9.64 47.59C9.64 47.54 9.7 47.57 9.76 47.65ZM9.24 47.83C9.24 47.85 9.26 47.87 9.28 47.89C9.3 47.91 9.31 47.94 9.31 47.97C9.3 47.99 9.33 48.05 9.39 48.11C9.45 48.17 9.49 48.22 9.49 48.27C9.49 48.36 9.53 48.41 9.61 48.41C9.69 48.41 9.69 48.35 9.61 48.28C9.57612 48.2415 9.54907 48.1976 9.53 48.15C9.4924 48.0805 9.44528 48.0165 9.39 47.96C9.35024 47.922 9.31652 47.8782 9.29 47.83C9.29 47.82 9.29 47.81 9.27 47.81L9.24 47.83ZM8.96 48.9C9.03 48.98 9.05 49.03 9.01 49.03C8.93927 48.9767 8.88121 48.9084 8.84 48.83C8.84 48.79 8.9 48.83 8.96 48.9ZM46.69 49.21C46.49 49.36 46.45 49.41 46.51 49.41C46.54 49.41 46.61 49.35 46.9 49.11C47 49.01 46.85 49.09 46.69 49.21ZM9.47 49.41C9.98878 49.9586 10.5362 50.4793 11.11 50.97C11.11 51.01 11.03 50.97 10.94 50.9C10.8669 50.8431 10.7935 50.7864 10.72 50.73C10.6317 50.6586 10.545 50.5853 10.46 50.51C10.4011 50.4531 10.3336 50.4059 10.26 50.37C10.14 50.35 9.91 50.14 9.91 50.05C9.91 50.03 9.88 50 9.84 49.98C9.79699 49.958 9.762 49.923 9.74 49.88C9.73 49.84 9.59 49.68 9.44 49.51C9.29 49.35 9.16 49.21 9.16 49.19C9.16 49.12 9.25 49.19 9.47 49.42V49.41ZM52.49 49.74C52.09 50.17 51.89 50.37 51.78 50.46C51.67 50.55 51.61 50.66 51.65 50.71C51.7647 50.5845 51.8883 50.4675 52.02 50.36C52.29 50.12 52.79 49.58 52.79 49.54C52.79 49.47 52.67 49.54 52.49 49.74ZM51.15 51.7C50.97 51.96 50.83 52.1 50.77 52.04C50.75 52.02 50.73 52.03 50.69 52.07C50.66 52.1 50.63 52.12 50.61 52.12C50.0993 52.5819 49.5507 53 48.97 53.37C48.92 53.37 48.45 53.7 48.3 53.85C48.2 53.93 47.8 54.23 47.38 54.5C46.52 55.08 46.57 55.04 46.61 55.08C46.63 55.11 46.66 55.1 46.7 55.07C46.7359 55.0466 46.7772 55.0328 46.82 55.03C46.85 55.03 47.05 54.92 47.25 54.78C47.45 54.64 47.71 54.48 47.82 54.44C47.92 54.38 48.1 54.28 48.19 54.2C48.29 54.12 48.58 53.9 48.83 53.73C49.6923 53.1185 50.5049 52.4398 51.26 51.7C51.33 51.64 51.33 51.6 51.26 51.6C51.24 51.6 51.19 51.65 51.16 51.7H51.15ZM14.66 52.38C14.75 52.42 14.82 52.5 14.79 52.52C14.77 52.54 14.56 52.42 14.56 52.37C14.56 52.33 14.57 52.33 14.66 52.37V52.38ZM15.25 52.77C15.33 52.82 15.39 52.87 15.37 52.87C15.2479 52.8354 15.1352 52.7739 15.04 52.69C15.04 52.65 15.1 52.67 15.24 52.76L15.25 52.77ZM18.93 54.97C19.03 55.01 19.09 55.08 19.03 55.08C18.9373 55.05 18.8496 55.0061 18.77 54.95C18.74 54.9 18.81 54.91 18.93 54.97ZM19.35 56.04C19.45 56.09 19.49 56.15 19.39 56.12C19.23 56.07 19.05 55.97 19.06 55.95C19.07 55.93 19.11 55.94 19.16 55.96L19.36 56.04H19.35ZM17.88 56.04C17.91 56.04 17.92 56.07 17.91 56.08C17.9 56.11 17.81 56.08 17.71 56C17.66 55.97 17.81 56 17.88 56.03V56.04ZM42.3 57.7C42.09 57.8 41.87 57.93 41.91 57.95C41.96 57.96 42.53 57.7 42.53 57.66C42.53 57.61 42.49 57.62 42.3 57.71V57.7ZM39.14 58.3C39.14 58.33 38.87 58.43 38.85 58.4C38.82 58.38 38.86 58.35 38.99 58.32L39.13 58.28V58.3H39.14Z" fill="#C41721"/>
</g>
<defs>
<clipPath id="clip0_2_11089">
<rect width="60" height="60" fill="white"/>
</clipPath>
</defs>
</svg>
